<svg id="visual" viewBox="0 0 1920 200" width="1920" height="200" xmlns="http://www.w3.org/2000/svg" xmlns:xlink="http://www.w3.org/1999/xlink" version="1.1"><path d="M0 128L32 130.3C64 132.7 128 137.3 192 147.5C256 157.7 320 173.3 384 169.8C448 166.3 512 143.7 576 129.5C640 115.3 704 109.7 768 117C832 124.3 896 144.7 960 157.5C1024 170.3 1088 175.7 1152 173.7C1216 171.7 1280 162.3 1344 162.8C1408 163.3 1472 173.7 1536 175.2C1600 176.7 1664 169.3 1728 171.3C1792 173.3 1856 184.7 1888 190.3L1920 196" fill="none" stroke-linecap="round" stroke-linejoin="miter" stroke="#64748b" stroke-width="5"></path></svg>