<svg id="visual" viewBox="0 0 1920 200" width="1920" height="200" xmlns="http://www.w3.org/2000/svg" xmlns:xlink="http://www.w3.org/1999/xlink" version="1.1"><path d="M0 198L32 189.3C64 180.7 128 163.3 192 147.5C256 131.7 320 117.3 384 116.8C448 116.3 512 129.7 576 132.3C640 135 704 127 768 127.2C832 127.3 896 135.7 960 147.5C1024 159.3 1088 174.7 1152 182.2C1216 189.7 1280 189.3 1344 190.3C1408 191.3 1472 193.7 1536 190C1600 186.3 1664 176.7 1728 168.8C1792 161 1856 155 1888 152L1920 149" fill="none" stroke-linecap="round" stroke-linejoin="miter" stroke="#64748b" stroke-width="5"></path></svg>