<svg id="visual" viewBox="0 0 1920 200" width="1920" height="200" xmlns="http://www.w3.org/2000/svg" xmlns:xlink="http://www.w3.org/1999/xlink" version="1.1"><path d="M0 196L32 183.7C64 171.3 128 146.7 192 140.3C256 134 320 146 384 151.5C448 157 512 156 576 161.2C640 166.3 704 177.7 768 184.7C832 191.7 896 194.3 960 190.2C1024 186 1088 175 1152 174.2C1216 173.3 1280 182.7 1344 175.5C1408 168.3 1472 144.7 1536 134C1600 123.3 1664 125.7 1728 122.2C1792 118.7 1856 109.3 1888 104.7L1920 100" fill="none" stroke-linecap="round" stroke-linejoin="miter" stroke="#64748b" stroke-width="5"></path></svg>