<svg id="visual" viewBox="0 0 1920 200" width="1920" height="200" xmlns="http://www.w3.org/2000/svg" xmlns:xlink="http://www.w3.org/1999/xlink" version="1.1"><path d="M0 150L32 156.3C64 162.7 128 175.3 192 172C256 168.7 320 149.3 384 140.3C448 131.3 512 132.7 576 134.8C640 137 704 140 768 134.8C832 129.7 896 116.3 960 116.2C1024 116 1088 129 1152 135.7C1216 142.3 1280 142.7 1344 140C1408 137.3 1472 131.7 1536 134.5C1600 137.3 1664 148.7 1728 146.3C1792 144 1856 128 1888 120L1920 112" fill="none" stroke-linecap="round" stroke-linejoin="miter" stroke="#64748b" stroke-width="5"></path></svg>