<svg id="visual" viewBox="0 0 1920 200" width="1920" height="200" xmlns="http://www.w3.org/2000/svg" xmlns:xlink="http://www.w3.org/1999/xlink" version="1.1"><path d="M0 101L32 109.5C64 118 128 135 192 136.3C256 137.7 320 123.3 384 119.5C448 115.7 512 122.3 576 124C640 125.7 704 122.3 768 132C832 141.7 896 164.3 960 175C1024 185.7 1088 184.3 1152 174.7C1216 165 1280 147 1344 137.2C1408 127.3 1472 125.7 1536 132C1600 138.3 1664 152.7 1728 159.5C1792 166.3 1856 165.7 1888 165.3L1920 165" fill="none" stroke-linecap="round" stroke-linejoin="miter" stroke="#64748b" stroke-width="5"></path></svg>