<svg id="visual" viewBox="0 0 1920 200" width="1920" height="200" xmlns="http://www.w3.org/2000/svg" xmlns:xlink="http://www.w3.org/1999/xlink" version="1.1"><path d="M0 127L32 138.3C64 149.7 128 172.3 192 176C256 179.7 320 164.3 384 159.7C448 155 512 161 576 162C640 163 704 159 768 148.2C832 137.3 896 119.7 960 112.5C1024 105.3 1088 108.7 1152 119.7C1216 130.7 1280 149.3 1344 150.8C1408 152.3 1472 136.7 1536 131.8C1600 127 1664 133 1728 133.5C1792 134 1856 129 1888 126.5L1920 124" fill="none" stroke-linecap="round" stroke-linejoin="miter" stroke="#64748b" stroke-width="5"></path></svg>