<svg id="visual" viewBox="0 0 1920 200" width="1920" height="200" xmlns="http://www.w3.org/2000/svg" xmlns:xlink="http://www.w3.org/1999/xlink" version="1.1"><path d="M0 189L32 188.7C64 188.3 128 187.7 192 173.7C256 159.7 320 132.3 384 120.2C448 108 512 111 576 113C640 115 704 116 768 122C832 128 896 139 960 144.2C1024 149.3 1088 148.7 1152 155.5C1216 162.3 1280 176.7 1344 181.8C1408 187 1472 183 1536 175C1600 167 1664 155 1728 154.3C1792 153.7 1856 164.3 1888 169.7L1920 175" fill="none" stroke-linecap="round" stroke-linejoin="miter" stroke="#64748b" stroke-width="5"></path></svg>