<svg id="svg" version="1.1" xmlns="http://www.w3.org/2000/svg" xmlns:xlink="http://www.w3.org/1999/xlink" width="400" height="400" viewBox="0, 0, 400,400"><g id="svgg"><path id="path0" d="M198.000 0.627 C 198.000 0.928,197.683 1.042,197.200 0.916 C 196.760 0.801,196.400 0.877,196.400 1.086 C 196.400 1.490,193.524 3.436,191.200 4.604 C 190.430 4.992,189.656 5.554,189.480 5.854 C 189.304 6.154,188.956 6.400,188.706 6.400 C 188.000 6.400,184.633 8.089,184.320 8.601 C 184.165 8.853,183.310 9.300,182.420 9.594 C 181.529 9.888,180.800 10.279,180.800 10.464 C 180.800 10.649,180.440 10.800,180.000 10.800 C 179.560 10.800,179.200 10.989,179.200 11.220 C 179.200 11.452,178.525 11.919,177.700 12.260 C 176.875 12.600,175.640 13.301,174.955 13.818 C 173.713 14.754,171.809 15.447,170.945 15.276 C 170.695 15.226,170.382 15.594,170.249 16.093 C 170.098 16.661,169.372 17.283,168.304 17.758 C 167.367 18.175,166.060 18.913,165.400 19.399 C 164.740 19.884,163.480 20.533,162.600 20.841 C 161.720 21.148,160.650 21.716,160.223 22.102 C 159.795 22.488,158.670 23.179,157.723 23.637 C 156.775 24.096,156.000 24.635,156.000 24.836 C 156.000 25.036,155.651 25.200,155.224 25.200 C 154.797 25.200,154.331 25.388,154.190 25.617 C 154.048 25.846,153.227 26.316,152.366 26.660 C 151.505 27.005,150.800 27.447,150.800 27.643 C 150.800 27.840,150.575 28.004,150.300 28.009 C 150.025 28.014,149.350 28.370,148.800 28.800 C 148.250 29.230,147.492 29.586,147.116 29.591 C 146.739 29.596,146.053 30.005,145.591 30.500 C 144.969 31.166,144.820 31.218,145.018 30.700 C 145.204 30.213,145.090 30.000,144.643 30.000 C 144.274 30.000,144.000 30.330,144.000 30.773 C 144.000 31.198,143.672 31.650,143.271 31.778 C 142.869 31.905,142.192 32.334,141.765 32.732 C 141.339 33.129,139.957 33.927,138.695 34.505 C 137.433 35.083,136.400 35.746,136.400 35.978 C 136.400 36.210,136.040 36.400,135.600 36.400 C 135.160 36.400,134.800 36.544,134.800 36.720 C 134.800 36.895,134.172 37.266,133.404 37.544 C 132.637 37.822,131.777 38.263,131.494 38.524 C 130.587 39.363,127.128 40.965,126.351 40.906 C 125.895 40.872,125.595 41.115,125.587 41.525 C 125.574 42.197,122.800 43.814,122.800 43.149 C 122.800 42.957,122.530 42.800,122.200 42.800 C 121.827 42.800,121.600 43.178,121.600 43.800 C 121.600 44.350,121.393 44.800,121.140 44.800 C 120.375 44.800,116.327 46.938,115.271 47.900 C 114.728 48.395,113.983 48.800,113.617 48.800 C 113.251 48.800,112.602 49.115,112.175 49.500 C 111.749 49.885,110.365 50.716,109.100 51.348 C 107.835 51.979,106.800 52.654,106.800 52.848 C 106.800 53.041,106.534 53.200,106.210 53.200 C 105.885 53.200,105.030 53.559,104.310 53.999 C 103.589 54.438,102.685 54.798,102.300 54.799 C 101.915 54.799,101.600 55.070,101.600 55.400 C 101.600 56.004,101.193 56.152,99.900 56.021 C 99.515 55.982,99.200 56.202,99.200 56.511 C 99.200 57.143,97.365 58.167,96.300 58.129 C 95.891 58.114,95.600 58.395,95.600 58.802 C 95.600 59.243,95.195 59.582,94.500 59.723 C 93.895 59.845,93.003 60.317,92.517 60.773 C 92.031 61.228,91.442 61.600,91.209 61.600 C 90.975 61.600,90.071 62.050,89.200 62.600 C 88.329 63.150,87.452 63.600,87.251 63.600 C 87.050 63.600,86.798 63.825,86.691 64.100 C 86.584 64.375,85.575 64.955,84.448 65.388 C 83.322 65.821,82.400 66.323,82.400 66.502 C 82.400 66.682,81.635 67.173,80.700 67.594 C 78.543 68.566,75.877 70.095,75.545 70.550 C 75.406 70.742,74.821 70.900,74.245 70.900 C 73.670 70.900,73.193 71.103,73.185 71.350 C 73.168 71.861,68.971 74.400,68.143 74.400 C 67.844 74.400,67.600 74.582,67.600 74.805 C 67.600 75.028,66.565 75.694,65.300 76.284 C 64.035 76.875,62.856 77.593,62.680 77.879 C 62.504 78.166,62.075 78.400,61.727 78.400 C 61.161 78.400,58.507 79.812,58.000 80.383 C 57.890 80.507,56.844 81.048,55.675 81.584 C 54.506 82.121,53.426 82.749,53.275 82.980 C 52.908 83.541,50.481 84.800,49.768 84.800 C 49.455 84.800,49.200 84.980,49.200 85.200 C 49.200 85.420,48.591 85.600,47.847 85.600 C 46.837 85.600,46.441 85.800,46.288 86.387 C 46.174 86.820,45.433 87.483,44.641 87.861 C 43.848 88.239,43.200 88.695,43.200 88.874 C 43.200 89.053,42.972 89.200,42.693 89.200 C 42.414 89.200,41.523 89.650,40.714 90.200 C 39.905 90.750,39.062 91.200,38.842 91.200 C 38.621 91.200,37.956 91.650,37.362 92.200 C 36.769 92.750,35.949 93.200,35.542 93.200 C 35.134 93.200,34.445 93.555,34.010 93.990 C 33.161 94.839,31.434 95.428,30.300 95.256 C 29.915 95.198,29.600 95.392,29.600 95.688 C 29.600 96.068,28.969 96.235,27.453 96.257 C 26.271 96.274,25.101 96.414,24.853 96.568 C 24.518 96.774,24.401 123.297,24.403 198.524 L 24.406 300.200 25.303 300.648 C 27.966 301.977,29.020 302.567,29.200 302.829 C 29.310 302.989,30.435 303.594,31.700 304.172 C 32.965 304.750,34.000 305.366,34.000 305.540 C 34.000 305.715,34.914 306.270,36.030 306.775 C 37.147 307.280,38.156 307.942,38.273 308.246 C 38.390 308.551,38.736 308.800,39.043 308.800 C 39.349 308.800,39.600 308.988,39.600 309.218 C 39.600 309.447,39.825 309.585,40.100 309.524 C 41.119 309.297,43.200 310.483,43.200 311.291 C 43.200 311.814,43.395 312.011,43.770 311.867 C 44.354 311.643,48.283 313.399,49.000 314.206 C 49.220 314.453,50.210 314.993,51.200 315.407 C 52.190 315.820,53.320 316.481,53.711 316.874 C 54.102 317.268,54.867 317.702,55.411 317.839 C 55.955 317.975,56.400 318.228,56.400 318.400 C 56.400 318.572,56.866 318.830,57.435 318.973 C 58.005 319.116,58.948 319.676,59.531 320.216 C 60.115 320.757,60.909 321.200,61.296 321.200 C 61.683 321.200,62.317 321.515,62.705 321.900 C 63.093 322.285,64.308 323.050,65.405 323.600 C 66.502 324.150,67.544 324.825,67.720 325.100 C 67.896 325.375,68.346 325.604,68.720 325.609 C 69.094 325.614,69.850 325.970,70.400 326.400 C 70.950 326.830,71.625 327.186,71.900 327.191 C 72.175 327.196,72.400 327.360,72.400 327.557 C 72.400 327.753,73.075 328.206,73.900 328.564 C 74.725 328.921,76.120 329.663,77.000 330.211 C 77.880 330.759,79.351 331.579,80.268 332.033 C 81.186 332.487,82.029 333.098,82.141 333.391 C 82.254 333.685,82.898 334.046,83.572 334.194 C 84.247 334.342,85.058 334.833,85.374 335.284 C 85.721 335.780,86.197 336.010,86.574 335.865 C 86.919 335.733,87.200 335.770,87.200 335.946 C 87.200 336.123,88.232 336.792,89.494 337.433 C 90.756 338.075,92.151 338.927,92.594 339.327 C 93.037 339.728,93.895 340.155,94.500 340.277 C 95.554 340.491,95.772 340.804,95.630 341.900 C 95.594 342.175,95.753 342.400,95.982 342.400 C 96.212 342.400,96.400 342.138,96.400 341.818 C 96.400 341.074,99.157 342.740,99.183 343.500 C 99.193 343.785,99.716 344.000,100.400 344.000 C 101.060 344.000,101.600 344.159,101.600 344.353 C 101.600 344.738,105.594 346.800,106.340 346.800 C 106.593 346.800,106.800 346.959,106.800 347.152 C 106.800 347.346,107.831 348.021,109.091 348.652 C 110.351 349.284,111.696 350.110,112.081 350.490 C 112.465 350.869,113.214 351.289,113.744 351.422 C 114.452 351.599,114.655 351.868,114.508 352.432 C 114.371 352.955,114.513 353.200,114.953 353.200 C 115.309 353.200,115.603 352.975,115.606 352.700 C 115.610 352.349,115.700 352.333,115.906 352.646 C 116.068 352.891,116.605 353.219,117.100 353.373 C 117.595 353.528,118.000 353.920,118.000 354.244 C 118.000 354.569,118.225 354.793,118.500 354.742 C 119.743 354.511,121.600 355.283,121.600 356.032 C 121.600 356.484,121.876 356.800,122.272 356.800 C 123.628 356.800,125.600 357.766,125.600 358.430 C 125.600 358.886,125.935 359.100,126.645 359.100 C 127.221 359.100,127.806 359.278,127.945 359.496 C 128.085 359.714,128.583 360.012,129.051 360.158 C 129.519 360.303,130.400 360.850,131.008 361.373 C 131.616 361.895,132.583 362.418,133.157 362.534 C 133.730 362.650,134.560 363.076,135.000 363.481 C 135.440 363.885,136.925 364.747,138.300 365.395 C 139.675 366.042,140.800 366.708,140.800 366.875 C 140.800 367.041,141.809 367.638,143.043 368.202 C 144.276 368.767,145.549 369.492,145.871 369.814 C 146.193 370.136,146.804 370.400,147.229 370.400 C 147.653 370.400,148.000 370.550,148.000 370.732 C 148.000 370.915,148.495 371.318,149.100 371.627 C 149.705 371.936,150.596 372.596,151.081 373.094 C 151.565 373.592,152.420 374.000,152.981 374.000 C 153.620 374.000,154.000 374.224,154.000 374.600 C 154.000 374.930,154.274 375.200,154.608 375.200 C 154.942 375.200,155.929 375.650,156.800 376.200 C 157.671 376.750,158.568 377.200,158.792 377.200 C 159.016 377.200,159.200 377.380,159.200 377.600 C 159.200 377.820,159.470 378.000,159.800 378.000 C 160.130 378.000,160.400 378.138,160.400 378.306 C 160.400 378.627,163.320 380.000,164.003 380.000 C 164.221 380.000,164.400 380.190,164.400 380.422 C 164.400 380.654,165.345 381.287,166.500 381.829 C 167.655 382.370,169.140 383.167,169.800 383.601 C 171.314 384.594,172.687 385.200,173.426 385.200 C 173.742 385.200,174.000 385.470,174.000 385.800 C 174.000 386.130,174.264 386.400,174.587 386.400 C 174.909 386.400,175.803 387.030,176.573 387.800 C 177.436 388.663,178.362 389.200,178.987 389.200 C 179.544 389.200,180.000 389.380,180.000 389.600 C 180.000 389.820,180.255 390.000,180.568 390.000 C 181.226 390.000,183.738 391.262,183.930 391.689 C 184.001 391.849,185.171 392.543,186.530 393.233 C 187.888 393.922,189.090 394.612,189.200 394.765 C 189.310 394.919,190.265 395.445,191.323 395.935 C 192.897 396.664,193.200 396.968,192.996 397.613 C 192.854 398.060,192.930 398.400,193.173 398.400 C 193.408 398.400,193.600 398.216,193.600 397.992 C 193.600 397.767,194.320 397.951,195.200 398.400 C 196.080 398.849,196.800 399.370,196.800 399.557 C 196.800 399.745,197.637 399.915,198.661 399.936 C 200.301 399.969,201.359 399.628,203.600 398.342 C 203.930 398.153,204.605 397.823,205.100 397.609 C 205.595 397.395,206.000 397.064,206.000 396.874 C 206.000 396.684,206.715 396.292,207.590 396.003 C 208.464 395.715,209.499 395.185,209.890 394.826 C 210.280 394.467,211.590 393.758,212.800 393.250 C 214.010 392.743,215.186 392.093,215.414 391.805 C 215.641 391.518,216.451 390.998,217.214 390.649 C 218.747 389.949,219.897 389.246,220.685 388.526 C 220.971 388.266,221.609 387.927,222.102 387.773 C 222.596 387.620,223.953 386.866,225.117 386.097 C 226.281 385.329,227.658 384.700,228.176 384.700 C 228.726 384.700,229.310 384.346,229.579 383.850 C 229.833 383.382,231.066 382.566,232.320 382.036 C 233.574 381.506,234.785 380.876,235.010 380.636 C 235.577 380.033,237.959 378.800,238.557 378.800 C 238.828 378.800,239.419 378.455,239.872 378.033 C 240.325 377.612,241.606 376.805,242.719 376.241 C 243.832 375.677,244.866 375.017,245.016 374.775 C 245.166 374.532,246.120 373.977,247.136 373.542 C 248.152 373.106,249.078 372.625,249.192 372.472 C 249.306 372.319,250.390 371.670,251.600 371.030 C 252.810 370.389,253.944 369.626,254.120 369.333 C 254.296 369.040,254.756 368.800,255.143 368.800 C 255.530 368.800,256.196 368.536,256.624 368.213 C 257.051 367.890,257.715 367.620,258.100 367.613 C 258.485 367.606,258.800 367.330,258.800 367.000 C 258.800 366.670,258.975 366.400,259.189 366.400 C 259.790 366.400,264.134 364.293,264.731 363.712 C 265.640 362.828,266.715 362.393,267.371 362.644 C 267.724 362.780,268.000 362.679,268.000 362.414 C 268.000 361.739,268.804 361.046,270.300 360.435 C 271.015 360.142,271.600 359.745,271.600 359.551 C 271.600 359.358,271.947 359.200,272.371 359.200 C 272.796 359.200,273.439 358.904,273.801 358.542 C 274.600 357.743,277.168 356.400,277.897 356.400 C 278.188 356.400,278.534 356.117,278.666 355.771 C 278.799 355.425,279.829 354.705,280.954 354.169 C 283.504 352.957,288.132 350.397,288.400 350.050 C 288.899 349.404,293.014 347.823,293.896 347.939 C 294.739 348.049,294.820 347.965,294.472 347.342 C 294.071 346.627,296.025 345.254,297.500 345.214 C 297.775 345.206,298.000 344.930,298.000 344.600 C 298.000 344.270,298.222 344.000,298.494 344.000 C 299.219 344.000,303.270 341.919,304.200 341.069 C 304.640 340.667,305.624 340.075,306.386 339.753 C 307.148 339.432,307.868 339.032,307.986 338.865 C 308.104 338.697,309.280 338.056,310.600 337.441 C 311.920 336.825,313.144 336.069,313.320 335.761 C 313.496 335.452,313.946 335.194,314.320 335.187 C 314.694 335.180,315.349 334.910,315.776 334.587 C 316.204 334.264,316.879 334.000,317.276 334.000 C 317.674 334.000,318.000 333.744,318.000 333.432 C 318.000 333.119,318.540 332.745,319.200 332.600 C 319.860 332.455,320.400 332.193,320.400 332.017 C 320.400 331.422,322.928 330.585,323.107 331.121 C 323.418 332.053,324.000 331.583,324.000 330.400 C 324.000 329.497,324.184 329.200,324.744 329.200 C 325.153 329.200,326.106 328.781,326.862 328.268 C 327.617 327.756,329.262 326.850,330.517 326.256 C 331.773 325.663,332.800 325.002,332.800 324.788 C 332.800 324.575,333.025 324.400,333.300 324.401 C 333.902 324.402,337.349 322.712,337.523 322.330 C 337.820 321.680,341.615 320.031,342.251 320.275 C 342.788 320.481,342.879 320.384,342.668 319.832 C 342.474 319.328,342.626 319.066,343.198 318.916 C 343.639 318.801,344.000 318.548,344.000 318.353 C 344.000 318.159,344.335 318.000,344.744 318.000 C 345.153 318.000,346.098 317.595,346.844 317.100 C 347.590 316.605,348.695 315.945,349.300 315.632 C 349.905 315.320,350.400 314.915,350.400 314.732 C 350.400 314.550,350.760 314.400,351.200 314.400 C 351.640 314.400,352.000 314.220,352.000 314.000 C 352.000 313.780,352.257 313.600,352.571 313.600 C 352.886 313.600,353.389 313.354,353.690 313.053 C 353.991 312.752,354.633 312.380,355.116 312.227 C 355.600 312.073,356.221 311.725,356.498 311.453 C 357.114 310.847,360.482 309.200,361.106 309.200 C 361.356 309.200,361.704 308.953,361.880 308.652 C 362.056 308.351,362.946 307.727,363.858 307.265 C 364.770 306.804,365.815 306.128,366.180 305.763 C 366.544 305.398,367.283 305.100,367.821 305.100 C 368.385 305.100,368.800 304.867,368.800 304.550 C 368.800 304.248,369.160 304.000,369.600 304.000 C 370.040 304.000,370.400 303.820,370.400 303.600 C 370.400 303.380,370.655 303.200,370.967 303.200 C 371.278 303.200,371.593 303.065,371.667 302.900 C 371.740 302.735,372.655 302.182,373.700 301.672 L 375.600 300.744 375.600 200.224 L 375.600 99.705 373.200 98.664 C 371.880 98.091,370.800 97.438,370.800 97.211 C 370.800 96.985,370.350 96.800,369.800 96.800 C 369.250 96.800,368.800 96.611,368.800 96.380 C 368.800 96.148,368.170 95.696,367.400 95.374 C 366.630 95.052,366.000 94.638,366.000 94.453 C 366.000 94.268,364.830 93.607,363.400 92.985 C 361.970 92.362,360.800 91.711,360.800 91.538 C 360.800 91.365,359.810 90.771,358.600 90.217 C 357.390 89.664,356.400 89.072,356.400 88.903 C 356.400 88.734,355.860 88.356,355.200 88.064 C 354.344 87.685,354.000 87.256,354.000 86.566 C 354.000 85.429,353.035 85.265,352.432 86.300 C 352.044 86.967,352.024 86.967,352.012 86.300 C 352.005 85.871,351.691 85.600,351.200 85.600 C 350.760 85.600,350.400 85.350,350.400 85.045 C 350.400 84.694,349.733 84.391,348.577 84.217 C 347.574 84.067,346.660 83.700,346.545 83.401 C 346.431 83.103,345.541 82.484,344.568 82.027 C 343.559 81.553,342.800 80.921,342.800 80.555 C 342.800 80.179,342.575 80.001,342.256 80.123 C 341.746 80.319,337.286 78.317,336.815 77.681 C 336.697 77.522,335.565 76.877,334.300 76.248 C 333.035 75.619,332.000 74.946,332.000 74.752 C 332.000 74.559,331.731 74.400,331.403 74.400 C 331.074 74.400,329.504 73.590,327.913 72.600 C 326.322 71.610,324.848 70.800,324.636 70.800 C 324.425 70.800,323.880 70.456,323.426 70.037 C 322.972 69.617,321.475 68.705,320.100 68.011 C 318.725 67.317,317.600 66.580,317.600 66.374 C 317.600 66.168,317.330 66.000,317.000 66.000 C 316.600 66.000,316.400 65.600,316.400 64.800 C 316.400 64.140,316.220 63.600,316.000 63.600 C 315.780 63.600,315.600 64.028,315.600 64.551 C 315.600 65.493,315.585 65.496,314.200 64.868 C 313.430 64.519,312.800 64.088,312.800 63.911 C 312.800 63.734,311.765 63.103,310.500 62.507 C 309.235 61.912,307.851 61.104,307.425 60.712 C 306.998 60.321,306.331 60.000,305.943 60.000 C 305.554 60.000,304.820 59.595,304.312 59.100 C 303.351 58.165,299.264 56.000,298.460 56.000 C 298.207 56.000,298.000 55.770,298.000 55.488 C 298.000 55.206,297.100 54.627,296.000 54.200 C 294.615 53.662,294.000 53.200,294.000 52.694 C 294.000 52.293,293.762 52.018,293.472 52.082 C 292.884 52.213,288.677 50.375,288.465 49.894 C 288.390 49.726,287.551 49.233,286.599 48.799 C 285.647 48.366,284.628 47.777,284.334 47.490 C 284.040 47.204,282.810 46.554,281.600 46.046 C 280.390 45.538,279.130 44.814,278.800 44.436 C 278.470 44.058,277.390 43.410,276.400 42.995 C 275.410 42.581,274.278 41.917,273.884 41.521 C 273.491 41.124,272.816 40.800,272.384 40.800 C 271.953 40.800,271.600 40.623,271.600 40.408 C 271.600 40.192,271.105 39.896,270.500 39.751 C 269.158 39.429,268.074 38.377,268.322 37.635 C 268.456 37.231,268.247 37.152,267.526 37.333 C 266.662 37.549,265.110 36.885,264.400 35.996 C 264.290 35.858,263.339 35.333,262.286 34.830 C 261.234 34.327,260.150 33.693,259.879 33.422 C 259.607 33.150,258.263 32.425,256.893 31.809 C 255.522 31.194,254.400 30.580,254.399 30.445 C 254.399 30.310,253.283 29.660,251.919 29.000 C 250.556 28.340,249.000 27.395,248.462 26.900 C 247.924 26.405,247.070 26.000,246.564 26.000 C 246.059 26.000,245.410 25.682,245.123 25.294 C 244.835 24.905,244.150 24.364,243.600 24.091 C 241.739 23.165,239.801 21.917,239.667 21.558 C 239.593 21.361,239.293 21.200,238.999 21.200 C 238.429 21.200,235.937 19.979,235.597 19.533 C 235.485 19.386,234.225 18.599,232.797 17.784 C 231.369 16.969,229.610 15.964,228.888 15.551 C 228.166 15.138,227.313 14.800,226.991 14.800 C 226.670 14.800,226.182 14.440,225.907 14.000 C 225.632 13.560,225.104 13.200,224.732 13.200 C 224.361 13.200,223.811 12.954,223.510 12.653 C 223.209 12.352,222.566 11.980,222.081 11.826 C 221.597 11.672,221.200 11.378,221.200 11.173 C 221.200 10.968,220.793 10.800,220.296 10.800 C 219.799 10.800,219.168 10.440,218.893 10.000 C 218.618 9.560,218.152 9.200,217.858 9.200 C 217.563 9.200,216.892 8.827,216.367 8.371 C 215.841 7.915,214.913 7.443,214.305 7.321 C 213.697 7.199,213.200 6.942,213.200 6.750 C 213.200 6.558,212.964 6.400,212.675 6.400 C 212.387 6.400,211.758 6.034,211.278 5.587 C 210.798 5.140,209.594 4.426,208.603 4.001 C 207.611 3.576,206.800 3.064,206.800 2.863 C 206.800 2.662,206.260 2.273,205.600 2.000 C 204.869 1.697,204.400 1.209,204.400 0.751 C 204.400 0.338,204.220 0.000,204.000 0.000 C 203.780 0.000,203.600 0.180,203.600 0.400 C 203.600 0.922,202.121 0.920,201.799 0.398 C 201.435 -0.190,198.000 0.017,198.000 0.627 M258.077 30.030 C 258.156 30.267,258.391 30.460,258.600 30.460 C 258.809 30.460,259.045 30.267,259.123 30.030 C 259.202 29.794,258.967 29.600,258.600 29.600 C 258.233 29.600,257.998 29.794,258.077 30.030 M207.918 36.465 C 211.813 38.701,216.170 41.191,217.600 41.998 C 219.030 42.805,222.450 44.782,225.200 46.392 C 230.053 49.233,234.113 51.566,237.400 53.404 C 238.280 53.896,241.250 55.609,244.000 57.211 C 246.750 58.812,250.170 60.785,251.600 61.595 C 254.328 63.141,269.731 71.997,278.600 77.120 C 281.460 78.772,285.600 81.142,287.800 82.387 C 290.000 83.633,294.230 86.066,297.200 87.794 C 300.170 89.522,303.770 91.596,305.200 92.402 C 306.630 93.209,310.860 95.637,314.600 97.797 C 318.340 99.957,322.570 102.390,324.000 103.202 C 325.430 104.015,327.770 105.364,329.200 106.200 C 330.630 107.036,332.970 108.381,334.400 109.188 C 339.082 111.832,345.384 115.450,346.200 115.964 C 346.957 116.440,347.362 280.540,346.614 283.813 C 346.511 284.266,345.667 285.016,344.714 285.504 C 342.310 286.734,339.076 288.550,332.400 292.418 C 330.970 293.247,324.490 296.934,318.000 300.612 C 311.510 304.289,304.310 308.389,302.000 309.722 C 299.690 311.055,296.900 312.633,295.800 313.230 C 294.700 313.826,292.586 315.008,291.101 315.857 C 289.617 316.706,285.567 318.998,282.101 320.951 C 278.636 322.905,274.810 325.089,273.600 325.806 C 271.637 326.969,266.926 329.645,251.600 338.305 C 249.070 339.735,246.010 341.481,244.800 342.185 C 241.818 343.921,237.834 346.187,227.200 352.197 C 222.250 354.995,217.030 357.964,215.600 358.794 C 204.057 365.501,199.441 367.967,199.043 367.642 C 198.799 367.444,194.280 364.807,189.000 361.783 C 183.720 358.758,177.060 354.937,174.200 353.290 C 171.340 351.644,168.190 349.840,167.200 349.281 C 164.963 348.019,159.240 344.721,154.100 341.732 C 151.955 340.485,149.030 338.803,147.600 337.994 C 146.170 337.185,141.940 334.759,138.200 332.603 C 134.460 330.447,130.230 328.019,128.800 327.207 C 127.370 326.396,123.230 324.020,119.600 321.927 C 115.970 319.833,109.310 315.995,104.800 313.397 C 100.290 310.799,95.520 308.045,94.200 307.277 C 92.880 306.510,90.000 304.862,87.800 303.615 C 85.600 302.368,81.370 299.934,78.400 298.206 C 75.430 296.478,71.830 294.409,70.400 293.607 C 67.730 292.111,53.484 283.945,53.294 283.802 C 52.862 283.475,53.268 116.162,53.703 115.740 C 54.194 115.263,60.916 111.399,80.000 100.622 C 85.390 97.578,90.340 94.764,91.000 94.367 C 91.660 93.971,93.460 92.946,95.000 92.090 C 96.540 91.234,99.780 89.399,102.200 88.012 C 104.620 86.624,107.950 84.726,109.600 83.792 C 111.250 82.859,115.840 80.247,119.800 77.988 C 123.760 75.729,128.350 73.122,130.000 72.194 C 131.650 71.267,133.630 70.147,134.400 69.706 C 135.170 69.265,138.590 67.329,142.000 65.404 C 147.959 62.041,150.425 60.633,156.300 57.241 C 158.922 55.728,165.787 51.818,175.200 46.477 C 185.872 40.422,190.336 37.883,195.600 34.871 C 200.854 31.866,199.630 31.707,207.918 36.465 M88.000 61.000 C 88.000 61.367,88.194 61.602,88.430 61.523 C 88.666 61.444,88.860 61.209,88.860 61.000 C 88.860 60.791,88.666 60.556,88.430 60.477 C 88.194 60.398,88.000 60.633,88.000 61.000 M57.600 78.800 C 57.600 79.020,57.870 79.200,58.200 79.200 C 58.530 79.200,58.800 79.020,58.800 78.800 C 58.800 78.580,58.530 78.400,58.200 78.400 C 57.870 78.400,57.600 78.580,57.600 78.800 M360.800 90.000 C 360.800 90.220,361.070 90.400,361.400 90.400 C 361.730 90.400,362.000 90.220,362.000 90.000 C 362.000 89.780,361.730 89.600,361.400 89.600 C 361.070 89.600,360.800 89.780,360.800 90.000 M368.000 94.600 C 368.000 94.930,368.180 95.200,368.400 95.200 C 368.620 95.200,368.800 94.930,368.800 94.600 C 368.800 94.270,368.620 94.000,368.400 94.000 C 368.180 94.000,368.000 94.270,368.000 94.600 M79.600 180.782 C 55.503 185.343,53.520 226.016,77.151 231.025 C 89.378 233.616,98.847 229.287,103.454 219.000 C 104.988 215.576,105.001 215.600,101.566 215.600 C 98.894 215.600,98.763 215.645,98.365 216.700 C 95.710 223.735,91.378 226.600,83.400 226.600 C 73.454 226.600,67.162 220.341,66.713 210.000 L 66.600 207.400 85.959 207.296 L 105.318 207.192 105.070 203.896 C 103.854 187.762,93.305 178.188,79.600 180.782 M168.800 180.743 C 163.565 181.881,158.067 185.299,155.691 188.895 L 154.600 190.546 154.486 186.273 L 154.373 182.000 151.586 182.000 L 148.800 182.000 148.800 215.800 L 148.800 249.600 151.600 249.600 L 154.400 249.600 154.400 236.400 C 154.400 229.140,154.452 223.200,154.515 223.200 C 154.578 223.200,155.793 224.325,157.215 225.700 C 165.236 233.457,178.990 233.732,187.066 226.295 C 196.817 217.316,196.831 194.692,187.091 185.725 C 182.888 181.855,174.365 179.534,168.800 180.743 M216.600 180.828 C 211.913 181.611,207.682 184.905,205.717 189.300 C 204.656 191.673,204.400 191.109,204.400 186.400 L 204.400 182.000 201.800 182.000 L 199.200 182.000 199.200 206.200 L 199.200 230.400 201.800 230.400 L 204.400 230.400 204.405 216.900 C 204.414 193.699,207.185 187.556,218.100 186.536 L 220.800 186.284 220.800 183.342 L 220.800 180.400 219.700 180.447 C 219.095 180.473,217.700 180.644,216.600 180.828 M237.153 180.781 C 212.717 185.251,211.248 227.023,235.379 231.226 C 247.412 233.321,257.009 228.683,261.072 218.810 C 262.397 215.588,262.404 215.600,259.204 215.600 L 256.408 215.600 255.255 218.100 C 249.896 229.725,232.957 230.021,226.608 218.600 C 225.170 216.013,223.862 210.935,224.071 208.750 L 224.200 207.400 243.400 207.200 L 262.600 207.000 262.479 204.400 C 261.721 188.071,251.156 178.219,237.153 180.781 M276.883 180.982 C 268.549 182.884,265.000 186.890,265.000 194.400 C 265.000 202.927,268.230 205.322,284.171 208.620 C 293.428 210.534,296.400 212.799,296.400 217.936 C 296.400 223.731,292.170 226.600,283.627 226.600 C 275.500 226.600,271.689 224.239,269.813 218.044 L 269.073 215.600 266.191 215.600 L 263.309 215.600 263.687 217.700 C 265.589 228.278,275.859 233.603,289.372 231.018 C 299.650 229.051,305.069 220.644,301.256 212.583 C 299.154 208.139,295.560 206.176,284.400 203.376 C 274.550 200.905,271.249 198.998,270.571 195.386 C 268.309 183.331,290.492 181.297,294.818 193.162 L 295.707 195.600 298.308 195.600 L 300.909 195.600 300.655 193.700 C 299.417 184.427,288.167 178.409,276.883 180.982 M318.200 180.674 C 308.437 181.931,302.520 189.727,304.959 198.119 C 306.548 203.585,310.677 205.889,323.685 208.569 C 334.135 210.721,337.662 214.040,335.971 220.128 C 334.716 224.648,330.924 226.600,323.400 226.600 C 315.105 226.600,311.640 224.393,309.429 217.700 L 308.736 215.600 305.968 215.600 C 304.446 215.600,303.203 215.735,303.206 215.900 C 303.391 225.282,311.146 231.412,322.800 231.388 C 335.309 231.362,342.105 226.516,342.105 217.623 C 342.105 210.003,338.415 206.991,324.848 203.539 C 313.238 200.585,310.229 198.558,310.301 193.742 C 310.472 182.433,331.905 182.397,334.855 193.700 L 335.351 195.600 338.119 195.600 L 340.887 195.600 340.626 194.500 C 338.114 183.879,330.374 179.108,318.200 180.674 M105.200 182.164 C 105.200 182.254,109.078 187.491,113.818 193.801 C 119.477 201.334,122.317 205.433,122.090 205.737 C 121.900 205.992,120.231 208.180,118.382 210.600 C 116.533 213.020,113.061 217.610,110.666 220.800 C 108.272 223.990,105.996 226.960,105.609 227.400 C 105.222 227.840,104.591 228.695,104.207 229.300 L 103.508 230.400 106.739 230.400 L 109.970 230.400 113.485 225.667 C 115.418 223.064,118.876 218.384,121.168 215.267 C 123.461 212.150,125.463 209.600,125.617 209.600 C 125.843 209.600,134.751 221.798,138.271 226.930 C 140.682 230.444,140.695 230.451,144.129 230.320 L 147.257 230.200 145.882 228.400 C 145.126 227.410,142.118 223.360,139.198 219.400 C 136.277 215.440,132.870 210.850,131.626 209.200 C 128.486 205.036,128.579 205.281,129.686 204.067 C 130.221 203.480,131.667 201.650,132.899 200.000 C 134.131 198.350,137.137 194.390,139.579 191.200 C 142.021 188.010,144.564 184.635,145.229 183.700 L 146.438 182.000 143.036 182.000 L 139.634 182.000 137.717 184.636 C 136.663 186.085,134.717 188.740,133.393 190.536 C 132.069 192.331,129.962 195.257,128.710 197.037 C 125.303 201.883,125.834 201.950,121.755 196.153 C 119.800 193.374,117.660 190.344,117.000 189.419 C 116.340 188.495,114.900 186.453,113.800 184.882 L 111.800 182.025 108.500 182.013 C 106.685 182.006,105.200 182.074,105.200 182.164 M85.998 185.627 C 93.436 186.834,98.567 192.449,99.105 199.972 L 99.307 202.800 82.864 202.800 L 66.420 202.800 66.646 201.500 C 68.143 192.894,72.806 187.307,79.755 185.795 C 82.845 185.123,82.883 185.122,85.998 185.627 M176.800 186.254 C 184.205 188.310,187.998 194.267,188.312 204.334 C 188.770 219.029,183.082 226.600,171.583 226.600 C 160.659 226.600,154.039 218.296,154.521 205.200 C 155.062 190.510,164.185 182.751,176.800 186.254 M243.600 185.624 C 251.219 186.849,256.800 193.418,256.800 201.162 L 256.800 202.800 240.355 202.800 L 223.911 202.800 224.182 201.358 C 225.800 192.731,230.386 187.311,237.347 185.797 C 240.444 185.123,240.480 185.122,243.600 185.624 M356.800 313.800 C 356.800 314.130,356.980 314.400,357.200 314.400 C 357.420 314.400,357.600 314.130,357.600 313.800 C 357.600 313.470,357.420 313.200,357.200 313.200 C 356.980 313.200,356.800 313.470,356.800 313.800 M349.200 317.600 C 349.200 317.820,349.470 318.000,349.800 318.000 C 350.130 318.000,350.400 317.820,350.400 317.600 C 350.400 317.380,350.130 317.200,349.800 317.200 C 349.470 317.200,349.200 317.380,349.200 317.600 M148.000 373.200 C 148.000 373.640,148.180 374.000,148.400 374.000 C 148.620 374.000,148.800 373.640,148.800 373.200 C 148.800 372.760,148.620 372.400,148.400 372.400 C 148.180 372.400,148.000 372.760,148.000 373.200 M210.800 395.200 C 210.800 395.420,211.070 395.600,211.400 395.600 C 211.730 395.600,212.000 395.420,212.000 395.200 C 212.000 394.980,211.730 394.800,211.400 394.800 C 211.070 394.800,210.800 394.980,210.800 395.200 " stroke="none" fill="#fbfbfb" fill-rule="evenodd"></path><path id="path1" d="M194.600 35.813 C 191.740 37.452,188.500 39.317,187.400 39.958 C 186.300 40.600,180.720 43.776,175.000 47.016 C 169.280 50.257,161.360 54.754,157.400 57.010 C 153.440 59.266,148.760 61.912,147.000 62.891 C 145.240 63.870,141.910 65.757,139.600 67.084 C 137.290 68.411,130.090 72.509,123.600 76.191 C 117.110 79.873,110.630 83.566,109.200 84.396 C 107.770 85.227,105.160 86.709,103.400 87.690 C 101.640 88.672,97.590 90.970,94.400 92.797 C 91.210 94.625,87.970 96.474,87.200 96.908 C 81.298 100.230,73.360 104.739,71.200 105.995 C 69.770 106.827,66.260 108.816,63.400 110.417 C 60.540 112.017,57.165 113.941,55.900 114.692 L 53.600 116.058 53.600 162.563 C 53.600 188.140,53.487 225.792,53.349 246.234 L 53.097 283.400 63.973 289.600 C 79.374 298.379,80.322 298.921,83.000 300.477 C 86.772 302.669,104.320 312.764,107.200 314.400 C 112.231 317.257,143.249 335.095,148.800 338.325 C 150.890 339.541,153.770 341.197,155.200 342.005 C 156.630 342.814,160.860 345.243,164.600 347.403 C 168.340 349.563,172.570 351.992,174.000 352.799 C 175.430 353.607,180.200 356.344,184.600 358.882 C 189.000 361.420,194.182 364.402,196.115 365.509 L 199.629 367.521 206.315 363.700 C 219.901 355.936,229.214 350.641,237.800 345.800 C 240.220 344.436,243.550 342.546,245.200 341.601 C 246.850 340.656,252.790 337.283,258.400 334.106 C 264.010 330.928,269.770 327.648,271.200 326.816 C 272.630 325.985,275.870 324.134,278.400 322.703 C 285.837 318.496,292.084 314.957,293.800 313.978 C 294.680 313.476,296.570 312.402,298.000 311.593 C 299.430 310.783,303.750 308.327,307.600 306.137 C 317.784 300.341,329.281 293.807,336.600 289.655 C 340.120 287.659,343.765 285.574,344.700 285.022 L 346.400 284.020 346.400 243.710 C 346.400 221.539,346.510 183.870,346.643 160.000 L 346.886 116.600 337.943 111.533 C 328.598 106.239,314.270 98.027,305.400 92.881 C 302.540 91.222,299.030 89.203,297.600 88.394 C 294.313 86.535,277.493 76.872,272.200 73.801 C 270.000 72.524,263.430 68.745,257.600 65.402 C 251.770 62.059,243.310 57.199,238.800 54.601 C 227.625 48.166,219.366 43.415,209.347 37.657 C 199.383 31.931,201.016 32.135,194.600 35.813 M88.845 180.801 C 98.309 182.560,104.387 191.105,105.417 204.100 L 105.695 207.600 86.193 207.600 L 66.690 207.600 66.894 210.100 C 67.141 213.143,68.749 217.905,70.274 220.112 C 77.092 229.977,94.169 228.132,97.821 217.136 L 98.464 215.200 101.609 215.200 C 105.585 215.200,105.606 215.251,103.466 219.768 C 99.505 228.131,93.155 232.000,83.392 232.000 C 68.660 232.000,60.661 223.150,60.617 206.800 C 60.567 188.440,72.218 177.709,88.845 180.801 M178.763 181.016 C 199.983 186.018,200.444 224.473,179.362 231.046 C 171.240 233.578,161.869 231.286,156.491 225.452 L 154.800 223.618 154.800 236.809 L 154.800 250.000 151.600 250.000 L 148.400 250.000 148.400 215.800 L 148.400 181.600 151.600 181.600 L 154.800 181.600 154.800 185.660 L 154.800 189.720 155.947 188.136 C 160.529 181.811,169.827 178.910,178.763 181.016 M221.200 183.542 L 221.200 186.684 218.323 186.925 C 213.067 187.366,209.535 189.689,207.259 194.202 C 205.190 198.306,205.101 199.118,204.911 215.500 L 204.734 230.800 201.767 230.800 L 198.800 230.800 198.800 206.200 L 198.800 181.600 201.800 181.600 L 204.800 181.600 204.818 185.900 L 204.835 190.200 205.667 188.600 C 208.420 183.302,212.963 180.497,218.900 180.427 L 221.200 180.400 221.200 183.542 M246.480 180.846 C 253.466 182.315,258.951 187.655,261.338 195.312 C 262.380 198.652,263.443 205.989,263.039 207.042 C 262.860 207.509,259.678 207.600,243.613 207.600 L 224.400 207.600 224.400 209.516 C 224.400 228.110,250.628 233.448,255.770 215.900 C 256.093 214.795,262.400 214.855,262.400 215.963 C 262.400 220.624,255.499 228.531,249.558 230.677 C 236.180 235.508,222.848 229.084,219.061 215.981 C 213.003 195.022,227.227 176.796,246.480 180.846 M290.024 181.161 C 294.806 182.621,298.994 186.818,300.385 191.542 C 301.714 196.059,301.841 195.783,298.370 195.916 L 295.340 196.031 294.689 193.716 C 291.638 182.868,270.800 182.852,270.800 193.698 C 270.800 198.410,274.436 200.835,285.000 203.172 C 297.957 206.038,302.522 209.841,302.556 217.800 C 302.593 226.590,294.995 231.972,282.521 231.993 C 271.926 232.011,264.573 226.327,263.360 217.182 L 263.097 215.200 266.095 215.200 L 269.093 215.200 270.004 217.699 C 272.395 224.258,276.130 226.573,284.200 226.501 C 291.575 226.436,296.204 222.976,296.122 217.590 C 296.048 212.632,292.938 210.725,280.800 208.193 C 275.522 207.092,274.548 206.813,271.813 205.620 C 259.819 200.391,262.663 183.613,276.018 180.813 C 278.275 180.339,288.137 180.585,290.024 181.161 M328.773 181.018 C 334.965 182.478,338.976 186.429,340.602 192.672 C 341.515 196.177,341.611 196.049,338.154 195.917 L 335.107 195.800 334.413 193.551 C 330.797 181.846,308.133 183.576,310.790 195.354 C 311.614 199.007,314.394 200.547,324.932 203.186 C 338.528 206.591,342.400 209.794,342.400 217.635 C 342.400 226.852,334.250 232.386,321.400 231.893 C 310.976 231.493,304.050 225.893,303.103 217.100 L 302.898 215.200 305.958 215.200 L 309.019 215.200 309.998 218.100 C 311.967 223.932,316.105 226.497,323.600 226.530 C 331.154 226.564,336.000 223.150,336.000 217.796 C 336.000 212.784,332.677 210.715,320.600 208.208 C 308.272 205.649,303.462 201.341,304.097 193.429 C 304.886 183.602,316.007 178.009,328.773 181.018 M116.067 187.479 C 121.823 195.666,123.005 197.338,124.353 199.198 L 125.530 200.823 129.065 195.982 C 134.424 188.644,135.235 187.523,137.400 184.457 L 139.400 181.625 143.143 181.613 C 147.720 181.597,147.950 180.786,140.685 190.279 C 137.518 194.415,133.638 199.491,132.063 201.558 C 130.316 203.850,129.325 205.488,129.522 205.758 C 129.701 206.001,131.115 207.910,132.665 210.000 C 145.339 227.093,147.600 230.205,147.600 230.562 C 147.600 230.693,146.025 230.796,144.100 230.790 L 140.600 230.781 133.200 220.400 C 129.130 214.690,125.707 210.015,125.593 210.010 C 125.480 210.004,123.860 212.090,121.993 214.644 C 120.127 217.199,116.921 221.564,114.868 224.344 C 112.816 227.125,110.964 229.715,110.754 230.100 C 110.434 230.686,109.789 230.800,106.786 230.800 C 102.963 230.800,102.572 230.556,103.936 229.026 C 104.608 228.272,109.183 222.271,118.480 209.950 L 121.989 205.300 113.394 193.779 C 108.667 187.442,104.800 182.109,104.800 181.928 C 104.800 181.748,106.405 181.600,108.367 181.600 L 111.933 181.600 116.067 187.479 M79.737 185.991 C 73.482 187.326,68.460 193.357,66.989 201.300 L 66.711 202.800 82.732 202.800 C 91.543 202.800,98.840 202.659,98.946 202.488 C 99.324 201.876,98.055 195.993,97.097 193.914 C 94.340 187.935,86.785 184.486,79.737 185.991 M167.689 186.025 C 152.401 189.038,149.948 217.529,164.336 224.967 C 173.676 229.796,184.515 224.362,187.409 213.400 C 191.783 196.838,181.966 183.211,167.689 186.025 M237.265 186.003 C 231.615 187.199,226.737 192.395,224.998 199.072 C 223.919 203.215,222.199 202.800,240.457 202.800 L 256.515 202.800 256.246 199.907 C 255.347 190.238,246.809 183.983,237.265 186.003 " stroke="none" fill="#333333" fill-rule="evenodd"></path><path id="path2" d="M53.389 143.600 C 53.389 158.890,53.439 165.145,53.500 157.500 C 53.561 149.855,53.561 137.345,53.500 129.700 C 53.439 122.055,53.389 128.310,53.389 143.600 M346.901 117.800 C 346.905 118.680,346.987 118.993,347.083 118.495 C 347.179 117.998,347.175 117.278,347.075 116.895 C 346.975 116.513,346.896 116.920,346.901 117.800 M346.924 121.800 C 346.926 123.120,347.001 123.612,347.090 122.893 C 347.179 122.174,347.177 121.094,347.086 120.493 C 346.995 119.892,346.922 120.480,346.924 121.800 M220.937 183.400 C 220.939 185.160,221.009 185.830,221.093 184.889 C 221.178 183.949,221.177 182.509,221.091 181.689 C 221.005 180.870,220.936 181.640,220.937 183.400 M104.799 181.900 C 104.799 182.065,105.924 182.150,107.299 182.088 C 111.550 181.898,111.960 181.723,108.300 181.660 C 106.375 181.627,104.800 181.735,104.799 181.900 M139.168 182.300 C 138.718 182.896,138.722 182.925,139.199 182.500 C 140.183 181.623,146.644 181.814,145.949 182.700 C 145.451 183.334,145.466 183.349,146.100 182.851 C 147.384 181.844,146.827 181.600,143.249 181.600 C 140.336 181.600,139.603 181.726,139.168 182.300 M150.100 181.891 C 150.925 181.978,152.275 181.978,153.100 181.891 C 153.925 181.805,153.250 181.734,151.600 181.734 C 149.950 181.734,149.275 181.805,150.100 181.891 M198.991 182.082 C 198.882 182.367,198.839 193.400,198.896 206.600 L 199.000 230.600 201.502 230.631 L 204.004 230.662 201.602 230.512 L 199.200 230.362 199.200 206.181 L 199.200 182.000 201.800 182.000 L 204.400 182.000 204.400 186.400 C 204.400 188.820,204.535 190.800,204.700 190.801 C 204.865 190.801,204.910 188.776,204.800 186.301 L 204.600 181.800 201.895 181.682 C 199.959 181.597,199.133 181.711,198.991 182.082 M307.775 185.300 L 306.600 186.600 307.900 185.425 C 308.615 184.779,309.200 184.194,309.200 184.125 C 309.200 183.816,308.870 184.088,307.775 185.300 M82.500 185.476 C 82.885 185.576,83.515 185.576,83.900 185.476 C 84.285 185.375,83.970 185.293,83.200 185.293 C 82.430 185.293,82.115 185.375,82.500 185.476 M170.500 185.476 C 170.885 185.576,171.515 185.576,171.900 185.476 C 172.285 185.375,171.970 185.293,171.200 185.293 C 170.430 185.293,170.115 185.375,170.500 185.476 M186.800 185.325 C 186.800 185.394,187.385 185.979,188.100 186.625 L 189.400 187.800 188.225 186.500 C 187.130 185.288,186.800 185.016,186.800 185.325 M240.100 185.476 C 240.485 185.576,241.115 185.576,241.500 185.476 C 241.885 185.375,241.570 185.293,240.800 185.293 C 240.030 185.293,239.715 185.375,240.100 185.476 M281.105 185.483 C 281.602 185.579,282.322 185.575,282.705 185.475 C 283.087 185.375,282.680 185.296,281.800 185.301 C 280.920 185.305,280.607 185.387,281.105 185.483 M321.105 185.483 C 321.602 185.579,322.322 185.575,322.705 185.475 C 323.087 185.375,322.680 185.296,321.800 185.301 C 320.920 185.305,320.607 185.387,321.105 185.483 M272.575 188.500 L 271.400 189.800 272.700 188.625 C 273.415 187.979,274.000 187.394,274.000 187.325 C 274.000 187.016,273.670 187.288,272.575 188.500 M330.800 187.725 C 330.800 187.794,331.385 188.379,332.100 189.025 L 333.400 190.200 332.225 188.900 C 331.130 187.688,330.800 187.416,330.800 187.725 M209.375 190.500 L 208.200 191.800 209.500 190.625 C 210.215 189.979,210.800 189.394,210.800 189.325 C 210.800 189.016,210.470 189.288,209.375 190.500 M264.528 194.400 C 264.528 195.830,264.601 196.415,264.689 195.700 C 264.778 194.985,264.778 193.815,264.689 193.100 C 264.601 192.385,264.528 192.970,264.528 194.400 M154.493 203.200 C 154.493 203.970,154.575 204.285,154.676 203.900 C 154.776 203.515,154.776 202.885,154.676 202.500 C 154.575 202.115,154.493 202.430,154.493 203.200 M218.101 203.400 C 218.105 204.280,218.187 204.593,218.283 204.095 C 218.379 203.598,218.375 202.878,218.275 202.495 C 218.175 202.113,218.096 202.520,218.101 203.400 M262.509 203.600 C 262.509 204.590,262.587 204.995,262.682 204.500 C 262.778 204.005,262.778 203.195,262.682 202.700 C 262.587 202.205,262.509 202.610,262.509 203.600 M204.580 216.600 C 204.580 224.300,204.634 227.393,204.699 223.474 C 204.765 219.555,204.765 213.255,204.699 209.474 C 204.634 205.693,204.580 208.900,204.580 216.600 M243.400 207.200 L 224.200 207.412 243.500 207.506 C 256.163 207.568,262.800 207.462,262.800 207.200 C 262.800 206.980,262.755 206.842,262.700 206.894 C 262.645 206.946,253.960 207.084,243.400 207.200 M66.556 207.771 C 66.435 208.085,66.416 208.760,66.514 209.271 C 66.649 209.980,66.704 209.894,66.746 208.904 L 66.800 207.608 86.100 207.500 L 105.400 207.392 86.087 207.296 C 69.664 207.214,66.742 207.285,66.556 207.771 M154.493 209.200 C 154.493 209.970,154.575 210.285,154.676 209.900 C 154.776 209.515,154.776 208.885,154.676 208.500 C 154.575 208.115,154.493 208.430,154.493 209.200 M218.109 209.600 C 218.109 210.590,218.187 210.995,218.282 210.500 C 218.378 210.005,218.378 209.195,218.282 208.700 C 218.187 208.205,218.109 208.610,218.109 209.600 M293.200 211.725 C 293.200 211.794,293.785 212.379,294.500 213.025 L 295.800 214.200 294.625 212.900 C 293.530 211.688,293.200 211.416,293.200 211.725 M264.900 215.491 C 265.725 215.578,267.075 215.578,267.900 215.491 C 268.725 215.405,268.050 215.334,266.400 215.334 C 264.750 215.334,264.075 215.405,264.900 215.491 M305.789 215.489 C 307.332 215.573,308.730 215.855,308.919 216.120 C 309.160 216.458,309.213 216.423,309.098 216.000 C 308.974 215.539,308.249 215.393,305.968 215.369 L 303.000 215.337 305.789 215.489 M336.101 217.800 C 336.105 218.680,336.187 218.993,336.283 218.495 C 336.379 217.998,336.375 217.278,336.275 216.895 C 336.175 216.513,336.096 216.920,336.101 217.800 M160.400 222.600 C 161.146 223.370,161.847 224.000,161.957 224.000 C 162.067 224.000,161.546 223.370,160.800 222.600 C 160.054 221.830,159.353 221.200,159.243 221.200 C 159.133 221.200,159.654 221.830,160.400 222.600 M251.775 222.900 L 250.600 224.200 251.900 223.025 C 252.615 222.379,253.200 221.794,253.200 221.725 C 253.200 221.416,252.870 221.688,251.775 222.900 M156.800 225.800 C 157.546 226.570,158.247 227.200,158.357 227.200 C 158.467 227.200,157.946 226.570,157.200 225.800 C 156.454 225.030,155.753 224.400,155.643 224.400 C 155.533 224.400,156.054 225.030,156.800 225.800 M223.600 224.925 C 223.600 224.994,224.185 225.579,224.900 226.225 L 226.200 227.400 225.025 226.100 C 223.930 224.888,223.600 224.616,223.600 224.925 M268.000 226.600 C 268.746 227.370,269.447 228.000,269.557 228.000 C 269.667 228.000,269.146 227.370,268.400 226.600 C 267.654 225.830,266.953 225.200,266.843 225.200 C 266.733 225.200,267.254 225.830,268.000 226.600 M338.575 226.500 L 337.400 227.800 338.700 226.625 C 339.912 225.530,340.184 225.200,339.875 225.200 C 339.806 225.200,339.221 225.785,338.575 226.500 M142.700 230.682 C 143.195 230.778,144.005 230.778,144.500 230.682 C 144.995 230.587,144.590 230.509,143.600 230.509 C 142.610 230.509,142.205 230.587,142.700 230.682 M81.911 231.893 C 82.851 231.978,84.291 231.977,85.111 231.891 C 85.930 231.805,85.160 231.736,83.400 231.737 C 81.640 231.739,80.970 231.809,81.911 231.893 M170.900 231.891 C 171.725 231.978,173.075 231.978,173.900 231.891 C 174.725 231.805,174.050 231.734,172.400 231.734 C 170.750 231.734,170.075 231.805,170.900 231.891 M239.511 231.893 C 240.451 231.978,241.891 231.977,242.711 231.891 C 243.530 231.805,242.760 231.736,241.000 231.737 C 239.240 231.739,238.570 231.809,239.511 231.893 M281.111 231.893 C 282.051 231.978,283.491 231.977,284.311 231.891 C 285.130 231.805,284.360 231.736,282.600 231.737 C 280.840 231.739,280.170 231.809,281.111 231.893 M320.711 231.893 C 321.651 231.978,323.091 231.977,323.911 231.891 C 324.730 231.805,323.960 231.736,322.200 231.737 C 320.440 231.739,319.770 231.809,320.711 231.893 M346.587 260.800 C 346.587 273.670,346.638 278.935,346.700 272.500 C 346.762 266.065,346.762 255.535,346.700 249.100 C 346.638 242.665,346.587 247.930,346.587 260.800 M150.100 249.891 C 150.925 249.978,152.275 249.978,153.100 249.891 C 153.925 249.805,153.250 249.734,151.600 249.734 C 149.950 249.734,149.275 249.805,150.100 249.891 " stroke="none" fill="#9c9c9b" fill-rule="evenodd"></path><path id="path3" d="M296.691 195.889 C 297.401 195.977,298.661 195.979,299.491 195.892 C 300.321 195.805,299.740 195.733,298.200 195.731 C 296.660 195.729,295.981 195.800,296.691 195.889 M336.500 195.891 C 337.325 195.978,338.675 195.978,339.500 195.891 C 340.325 195.805,339.650 195.734,338.000 195.734 C 336.350 195.734,335.675 195.805,336.500 195.891 M346.564 231.000 C 346.563 234.740,346.623 236.324,346.697 234.520 C 346.771 232.715,346.772 229.655,346.698 227.720 C 346.625 225.784,346.564 227.260,346.564 231.000 " stroke="none" fill="#949493" fill-rule="evenodd"></path><path id="path4" d="M53.390 203.000 C 53.390 220.160,53.440 227.122,53.500 218.470 C 53.560 209.819,53.560 195.779,53.500 187.270 C 53.440 178.762,53.390 185.840,53.390 203.000 M346.588 199.400 C 346.588 213.260,346.639 218.872,346.700 211.871 C 346.761 204.870,346.761 193.530,346.700 186.671 C 346.638 179.812,346.588 185.540,346.588 199.400 M148.591 215.800 C 148.591 234.720,148.640 242.401,148.700 232.870 C 148.760 223.338,148.760 207.858,148.700 198.470 C 148.640 189.081,148.591 196.880,148.591 215.800 M154.464 186.076 C 154.429 187.988,154.535 189.637,154.700 189.739 C 154.865 189.842,154.950 188.818,154.889 187.463 C 154.689 183.052,154.529 182.530,154.464 186.076 M267.775 185.300 L 266.600 186.600 267.900 185.425 C 268.615 184.779,269.200 184.194,269.200 184.125 C 269.200 183.816,268.870 184.088,267.775 185.300 M98.000 185.800 C 98.746 186.570,99.447 187.200,99.557 187.200 C 99.667 187.200,99.146 186.570,98.400 185.800 C 97.654 185.030,96.953 184.400,96.843 184.400 C 96.733 184.400,97.254 185.030,98.000 185.800 M219.300 186.676 C 219.685 186.776,220.315 186.776,220.700 186.676 C 221.085 186.575,220.770 186.493,220.000 186.493 C 219.230 186.493,218.915 186.575,219.300 186.676 M311.200 197.325 C 311.200 197.394,311.785 197.979,312.500 198.625 L 313.800 199.800 312.625 198.500 C 311.530 197.288,311.200 197.016,311.200 197.325 M217.734 206.400 C 217.734 208.050,217.805 208.725,217.891 207.900 C 217.978 207.075,217.978 205.725,217.891 204.900 C 217.805 204.075,217.734 204.750,217.734 206.400 M262.901 205.800 C 262.905 206.680,262.987 206.993,263.083 206.495 C 263.179 205.998,263.175 205.278,263.075 204.895 C 262.975 204.513,262.896 204.920,262.901 205.800 M101.388 215.490 C 103.257 215.576,104.717 215.836,104.918 216.118 C 105.161 216.459,105.213 216.425,105.098 216.000 C 104.971 215.530,104.206 215.394,101.568 215.372 L 98.200 215.343 101.388 215.490 M255.861 215.500 C 255.758 215.665,256.782 215.750,258.137 215.688 C 262.278 215.500,262.769 215.323,259.324 215.260 C 257.522 215.227,255.963 215.335,255.861 215.500 M302.509 218.000 C 302.509 218.990,302.587 219.395,302.682 218.900 C 302.778 218.405,302.778 217.595,302.682 217.100 C 302.587 216.605,302.509 217.010,302.509 218.000 M154.578 236.200 C 154.579 243.240,154.633 246.064,154.699 242.475 C 154.766 238.886,154.766 233.126,154.699 229.675 C 154.633 226.224,154.578 229.160,154.578 236.200 " stroke="none" fill="#7c7c7a" fill-rule="evenodd"></path></g></svg>