<svg id="svg" xmlns="http://www.w3.org/2000/svg" xmlns:xlink="http://www.w3.org/1999/xlink" width="400" height="400" viewBox="0, 0, 400,400" version="1.1"><g id="svgg"><path id="path0" d="M69.216 179.250 L 69.500 231.500 72.071 236.500 C 77.392 246.849,87.776 250.074,105.927 247.012 L 113.000 245.819 113.000 236.294 L 113.000 226.770 107.572 227.448 C 94.520 229.079,95.000 231.104,95.000 174.418 L 95.000 127.000 81.966 127.000 L 68.932 127.000 69.216 179.250 M42.500 133.978 C 25.737 137.026,21.967 143.262,21.025 169.500 C 20.242 191.336,18.933 195.000,11.918 195.000 C 10.189 195.000,10.000 195.779,10.000 202.922 L 10.000 210.845 13.535 212.012 C 19.760 214.066,20.397 216.147,21.005 236.428 C 21.849 264.579,27.827 272.000,49.659 272.000 L 56.000 272.000 56.000 264.707 L 56.000 257.415 51.531 256.220 C 44.277 254.279,43.585 252.400,43.000 233.045 C 42.444 214.663,40.708 209.304,34.032 205.360 L 31.091 203.623 34.439 201.348 C 40.816 197.014,42.429 191.692,43.031 173.000 C 43.669 153.166,45.438 149.000,53.223 149.000 L 56.000 149.000 56.000 141.000 L 56.000 133.000 51.250 133.125 C 48.638 133.194,44.700 133.578,42.500 133.978 M346.000 139.270 C 346.000 147.687,346.547 149.000,350.051 149.000 C 357.057 149.000,358.345 151.979,359.151 170.042 C 360.055 190.300,361.115 195.009,365.870 199.907 L 369.500 203.646 365.976 207.097 C 361.109 211.863,359.940 216.727,359.144 235.520 C 358.370 253.795,358.172 254.308,351.122 256.359 L 346.500 257.703 346.206 264.852 L 345.912 272.000 352.481 272.000 C 373.398 272.000,379.082 264.773,380.012 236.996 C 380.705 216.283,381.391 214.016,387.582 211.973 L 391.000 210.845 391.000 202.922 C 391.000 195.779,390.811 195.000,389.082 195.000 C 382.045 195.000,380.790 191.397,380.025 169.000 C 379.087 141.559,374.210 134.879,353.975 133.319 L 346.000 132.704 346.000 139.270 M148.105 164.583 C 112.040 174.281,105.858 228.454,139.000 244.377 C 147.878 248.642,169.993 249.057,181.250 245.168 L 188.000 242.837 188.000 234.000 C 188.000 229.140,188.273 224.453,188.606 223.585 C 189.053 222.421,187.411 222.859,182.356 225.253 C 165.503 233.235,147.656 229.040,144.055 216.250 L 143.140 213.000 169.223 213.000 L 195.306 213.000 194.691 201.524 C 193.172 173.183,173.659 157.710,148.105 164.583 M228.000 164.485 C 212.506 167.964,204.543 175.295,203.323 187.203 C 201.872 201.358,208.251 208.299,229.426 215.609 C 246.590 221.535,245.871 228.500,228.096 228.500 C 218.116 228.500,218.330 228.564,203.750 221.212 C 203.338 221.004,203.000 226.010,203.000 232.336 L 203.000 243.839 208.250 245.667 C 222.282 250.553,249.065 247.524,258.160 240.022 C 275.599 225.637,268.345 205.694,242.335 196.517 C 232.289 192.972,229.000 190.839,229.000 187.868 C 229.000 181.143,245.972 180.938,261.285 187.478 C 262.945 188.187,263.050 187.483,262.785 177.444 L 262.500 166.647 257.000 165.352 C 247.989 163.228,235.286 162.849,228.000 164.485 M298.571 164.584 C 281.504 168.400,273.135 177.635,274.242 191.432 C 275.195 203.296,280.281 208.250,298.403 214.967 C 310.723 219.534,312.000 220.335,312.000 223.500 C 312.000 227.520,309.470 228.500,299.096 228.500 C 289.116 228.500,289.330 228.564,274.750 221.212 C 274.337 221.004,274.000 226.010,274.000 232.336 L 274.000 243.839 279.250 245.667 C 298.501 252.370,327.173 246.093,334.513 233.569 C 343.712 217.870,335.744 203.971,313.303 196.573 C 303.877 193.466,300.000 190.836,300.000 187.549 C 300.000 181.425,319.874 181.045,330.921 186.958 C 332.967 188.053,333.000 187.897,333.000 177.235 L 333.000 166.400 326.750 165.099 C 316.922 163.052,306.294 162.858,298.571 164.584 M165.665 184.710 C 167.788 186.092,171.000 192.599,171.000 195.520 C 171.000 196.756,168.693 197.000,157.000 197.000 C 149.300 197.000,143.000 196.723,143.000 196.385 C 143.000 187.002,157.616 179.474,165.665 184.710 " stroke="none" fill="#47689b" fill-rule="evenodd"></path></g></svg>