<svg id="visual" viewBox="0 0 1920 200" width="1920" height="200" xmlns="http://www.w3.org/2000/svg" xmlns:xlink="http://www.w3.org/1999/xlink" version="1.1"><path d="M0 129L29.2 139C58.3 149 116.7 169 174.8 170.8C233 172.7 291 156.3 349.2 141.5C407.3 126.7 465.7 113.3 523.8 111C582 108.7 640 117.3 698.2 130.3C756.3 143.3 814.7 160.7 872.8 160C931 159.3 989 140.7 1047.2 140.5C1105.3 140.3 1163.7 158.7 1221.8 161.7C1280 164.7 1338 152.3 1396.2 143.8C1454.3 135.3 1512.7 130.7 1570.8 136.7C1629 142.7 1687 159.3 1745.2 158.7C1803.3 158 1861.7 140 1890.8 131L1920 122L1920 201L1890.8 201C1861.7 201 1803.3 201 1745.2 201C1687 201 1629 201 1570.8 201C1512.7 201 1454.3 201 1396.2 201C1338 201 1280 201 1221.8 201C1163.7 201 1105.3 201 1047.2 201C989 201 931 201 872.8 201C814.7 201 756.3 201 698.2 201C640 201 582 201 523.8 201C465.7 201 407.3 201 349.2 201C291 201 233 201 174.8 201C116.7 201 58.3 201 29.2 201L0 201Z" fill="#18191c" stroke-linecap="round" stroke-linejoin="miter"></path></svg>