<svg id="visual" viewBox="0 0 1920 200" width="1920" height="200" xmlns="http://www.w3.org/2000/svg" xmlns:xlink="http://www.w3.org/1999/xlink" version="1.1"><path d="M0 130L29.2 127.8C58.3 125.7 116.7 121.3 174.8 125.8C233 130.3 291 143.7 349.2 144.3C407.3 145 465.7 133 523.8 134.8C582 136.7 640 152.3 698.2 158C756.3 163.7 814.7 159.3 872.8 158.3C931 157.3 989 159.7 1047.2 159.7C1105.3 159.7 1163.7 157.3 1221.8 147.2C1280 137 1338 119 1396.2 119.7C1454.3 120.3 1512.7 139.7 1570.8 149.5C1629 159.3 1687 159.7 1745.2 152.7C1803.3 145.7 1861.7 131.3 1890.8 124.2L1920 117L1920 201L1890.8 201C1861.7 201 1803.3 201 1745.2 201C1687 201 1629 201 1570.8 201C1512.7 201 1454.3 201 1396.2 201C1338 201 1280 201 1221.8 201C1163.7 201 1105.3 201 1047.2 201C989 201 931 201 872.8 201C814.7 201 756.3 201 698.2 201C640 201 582 201 523.8 201C465.7 201 407.3 201 349.2 201C291 201 233 201 174.8 201C116.7 201 58.3 201 29.2 201L0 201Z" fill="#18191c" stroke-linecap="round" stroke-linejoin="miter"></path></svg>