<svg id="visual" viewBox="0 0 1920 200" width="1920" height="200" xmlns="http://www.w3.org/2000/svg" xmlns:xlink="http://www.w3.org/1999/xlink" version="1.1"><path d="M0 161L29.2 156.5C58.3 152 116.7 143 174.8 133.5C233 124 291 114 349.2 118.2C407.3 122.3 465.7 140.7 523.8 151.5C582 162.3 640 165.7 698.2 156C756.3 146.3 814.7 123.7 872.8 117C931 110.3 989 119.7 1047.2 134.3C1105.3 149 1163.7 169 1221.8 176.2C1280 183.3 1338 177.7 1396.2 173.2C1454.3 168.7 1512.7 165.3 1570.8 160.7C1629 156 1687 150 1745.2 151.3C1803.3 152.7 1861.7 161.3 1890.8 165.7L1920 170L1920 201L1890.8 201C1861.7 201 1803.3 201 1745.2 201C1687 201 1629 201 1570.8 201C1512.7 201 1454.3 201 1396.2 201C1338 201 1280 201 1221.8 201C1163.7 201 1105.3 201 1047.2 201C989 201 931 201 872.8 201C814.7 201 756.3 201 698.2 201C640 201 582 201 523.8 201C465.7 201 407.3 201 349.2 201C291 201 233 201 174.8 201C116.7 201 58.3 201 29.2 201L0 201Z" fill="#18191c" stroke-linecap="round" stroke-linejoin="miter"></path></svg>