<svg id="visual" viewBox="0 0 1920 200" width="1920" height="200" xmlns="http://www.w3.org/2000/svg" xmlns:xlink="http://www.w3.org/1999/xlink" version="1.1"><path d="M0 133L29.2 140.5C58.3 148 116.7 163 174.8 159.7C233 156.3 291 134.7 349.2 121.7C407.3 108.7 465.7 104.3 523.8 117.7C582 131 640 162 698.2 162.7C756.3 163.3 814.7 133.7 872.8 124.8C931 116 989 128 1047.2 131C1105.3 134 1163.7 128 1221.8 130C1280 132 1338 142 1396.2 153.5C1454.3 165 1512.7 178 1570.8 178.5C1629 179 1687 167 1745.2 156.7C1803.3 146.3 1861.7 137.7 1890.8 133.3L1920 129L1920 201L1890.8 201C1861.7 201 1803.3 201 1745.2 201C1687 201 1629 201 1570.8 201C1512.7 201 1454.3 201 1396.2 201C1338 201 1280 201 1221.8 201C1163.7 201 1105.3 201 1047.2 201C989 201 931 201 872.8 201C814.7 201 756.3 201 698.2 201C640 201 582 201 523.8 201C465.7 201 407.3 201 349.2 201C291 201 233 201 174.8 201C116.7 201 58.3 201 29.2 201L0 201Z" fill="#18191c" stroke-linecap="round" stroke-linejoin="miter"></path></svg>