<svg id="visual" viewBox="0 0 1920 200" width="1920" height="200" xmlns="http://www.w3.org/2000/svg" xmlns:xlink="http://www.w3.org/1999/xlink" version="1.1"><path d="M0 185L29.2 182.7C58.3 180.3 116.7 175.7 174.8 175.3C233 175 291 179 349.2 172.5C407.3 166 465.7 149 523.8 138.3C582 127.7 640 123.3 698.2 125.3C756.3 127.3 814.7 135.7 872.8 143.7C931 151.7 989 159.3 1047.2 168.5C1105.3 177.7 1163.7 188.3 1221.8 180.3C1280 172.3 1338 145.7 1396.2 144C1454.3 142.3 1512.7 165.7 1570.8 169.3C1629 173 1687 157 1745.2 149.8C1803.3 142.7 1861.7 144.3 1890.8 145.2L1920 146L1920 201L1890.8 201C1861.7 201 1803.3 201 1745.2 201C1687 201 1629 201 1570.8 201C1512.7 201 1454.3 201 1396.2 201C1338 201 1280 201 1221.8 201C1163.7 201 1105.3 201 1047.2 201C989 201 931 201 872.8 201C814.7 201 756.3 201 698.2 201C640 201 582 201 523.8 201C465.7 201 407.3 201 349.2 201C291 201 233 201 174.8 201C116.7 201 58.3 201 29.2 201L0 201Z" fill="#18191c" stroke-linecap="round" stroke-linejoin="miter"></path></svg>