<svg id="visual" viewBox="0 0 1920 200" width="1920" height="200" xmlns="http://www.w3.org/2000/svg" xmlns:xlink="http://www.w3.org/1999/xlink" version="1.1"><path d="M0 112L29.2 117.3C58.3 122.7 116.7 133.3 174.8 135.5C233 137.7 291 131.3 349.2 132C407.3 132.7 465.7 140.3 523.8 142.2C582 144 640 140 698.2 144.2C756.3 148.3 814.7 160.7 872.8 166C931 171.3 989 169.7 1047.2 165.3C1105.3 161 1163.7 154 1221.8 153.7C1280 153.3 1338 159.7 1396.2 154C1454.3 148.3 1512.7 130.7 1570.8 120.7C1629 110.7 1687 108.3 1745.2 119.8C1803.3 131.3 1861.7 156.7 1890.8 169.3L1920 182L1920 201L1890.8 201C1861.7 201 1803.3 201 1745.2 201C1687 201 1629 201 1570.8 201C1512.7 201 1454.3 201 1396.2 201C1338 201 1280 201 1221.8 201C1163.7 201 1105.3 201 1047.2 201C989 201 931 201 872.8 201C814.7 201 756.3 201 698.2 201C640 201 582 201 523.8 201C465.7 201 407.3 201 349.2 201C291 201 233 201 174.8 201C116.7 201 58.3 201 29.2 201L0 201Z" fill="#18191c" stroke-linecap="round" stroke-linejoin="miter"></path></svg>