<svg id="svg" version="1.1" xmlns="http://www.w3.org/2000/svg" xmlns:xlink="http://www.w3.org/1999/xlink" width="400" height="286.8552412645591" viewBox="0, 0, 400,286.8552412645591"><g id="svgg"><path id="path0" d="M177.587 0.198 C 177.168 0.265,176.673 0.626,176.462 1.019 C 176.256 1.406,175.973 1.722,175.835 1.722 C 175.551 1.722,174.175 3.036,174.175 3.307 C 174.175 3.405,173.981 3.678,173.745 3.915 C 173.508 4.151,173.314 4.659,173.314 5.042 C 173.314 5.425,173.185 5.739,173.027 5.739 C 172.839 5.739,172.740 12.339,172.740 24.964 L 172.740 44.189 127.681 44.189 C 87.893 44.189,82.603 44.240,82.457 44.620 C 82.341 44.921,81.871 45.050,80.888 45.050 C 80.115 45.050,79.484 45.179,79.484 45.337 C 79.484 45.495,79.271 45.624,79.010 45.624 C 78.467 45.624,75.466 48.710,75.466 49.269 C 75.466 49.474,75.337 49.641,75.179 49.641 C 75.022 49.641,74.892 50.222,74.892 50.933 C 74.892 51.643,74.763 52.224,74.605 52.224 C 74.417 52.224,74.319 58.632,74.319 70.875 L 74.319 89.527 53.659 89.527 C 40.077 89.527,32.999 89.625,32.999 89.813 C 32.999 89.971,32.607 90.100,32.129 90.100 C 31.620 90.100,31.190 90.279,31.094 90.531 C 31.003 90.768,30.678 90.961,30.372 90.961 C 29.786 90.961,28.407 92.160,28.407 92.670 C 28.407 92.835,28.269 92.970,28.100 92.970 C 27.594 92.970,26.973 93.749,26.973 94.384 C 26.973 94.711,26.844 94.978,26.686 94.978 C 26.528 94.978,26.399 95.375,26.399 95.860 C 26.399 96.345,26.205 96.935,25.968 97.172 C 25.595 97.545,25.538 100.087,25.538 116.520 L 25.538 135.438 18.364 135.438 C 13.773 135.438,11.191 135.541,11.191 135.725 C 11.191 135.882,10.965 136.012,10.689 136.013 C 10.412 136.014,9.817 136.208,9.365 136.444 C 8.913 136.679,8.364 136.872,8.145 136.872 C 7.926 136.872,7.747 137.001,7.747 137.159 C 7.747 137.317,7.550 137.446,7.308 137.446 C 7.066 137.446,6.795 137.639,6.704 137.875 C 6.614 138.111,6.423 138.232,6.281 138.144 C 6.138 138.056,5.944 138.186,5.850 138.432 C 5.755 138.679,5.556 138.881,5.408 138.881 C 5.042 138.881,3.730 140.217,3.730 140.590 C 3.730 140.755,3.592 140.890,3.423 140.890 C 3.026 140.890,2.296 141.620,2.296 142.017 C 2.296 142.186,2.166 142.324,2.009 142.324 C 1.851 142.324,1.722 142.582,1.722 142.898 C 1.722 143.214,1.593 143.472,1.435 143.472 C 1.277 143.472,1.148 143.656,1.148 143.882 C 1.148 144.107,0.922 144.518,0.646 144.795 C 0.009 145.433,-0.105 172.321,0.527 172.711 C 0.739 172.842,0.915 173.955,0.987 175.622 C 1.055 177.194,1.232 178.364,1.412 178.424 C 1.596 178.485,1.722 179.389,1.722 180.655 C 1.722 181.883,1.843 182.783,2.009 182.783 C 2.170 182.783,2.296 183.591,2.296 184.632 C 2.296 185.648,2.425 186.560,2.582 186.657 C 2.740 186.755,2.869 187.399,2.869 188.088 C 2.869 188.820,3.049 189.521,3.300 189.772 C 3.568 190.041,3.730 190.745,3.730 191.641 C 3.730 192.432,3.859 193.159,4.017 193.257 C 4.175 193.354,4.304 194.008,4.304 194.708 C 4.304 195.409,4.433 195.983,4.591 195.983 C 4.749 195.983,4.878 196.483,4.878 197.095 C 4.878 197.734,5.061 198.360,5.308 198.565 C 5.571 198.783,5.739 199.412,5.739 200.179 C 5.739 200.869,5.868 201.435,6.026 201.435 C 6.184 201.435,6.313 201.879,6.313 202.422 C 6.313 202.965,6.442 203.489,6.600 203.587 C 6.758 203.684,6.887 204.213,6.887 204.761 C 6.887 205.381,7.049 205.819,7.317 205.922 C 7.583 206.024,7.747 206.460,7.747 207.061 C 7.747 207.596,7.877 208.034,8.034 208.034 C 8.192 208.034,8.321 208.486,8.321 209.039 C 8.321 209.591,8.451 210.043,8.608 210.043 C 8.766 210.043,8.895 210.434,8.895 210.913 C 8.895 211.421,9.074 211.851,9.326 211.948 C 9.591 212.050,9.756 212.486,9.756 213.087 C 9.756 213.622,9.885 214.060,10.043 214.060 C 10.201 214.060,10.330 214.440,10.330 214.904 C 10.330 215.368,10.459 215.828,10.617 215.925 C 10.775 216.023,10.904 216.357,10.904 216.669 C 10.904 216.980,11.098 217.309,11.334 217.400 C 11.580 217.494,11.765 217.922,11.765 218.395 C 11.765 218.852,11.894 219.225,12.052 219.225 C 12.209 219.225,12.339 219.548,12.339 219.943 C 12.339 220.337,12.468 220.660,12.626 220.660 C 12.783 220.660,12.912 220.974,12.912 221.357 C 12.912 221.740,13.106 222.247,13.343 222.484 C 13.580 222.721,13.773 223.182,13.773 223.509 C 13.773 223.836,13.902 224.103,14.060 224.103 C 14.218 224.103,14.347 224.362,14.347 224.677 C 14.347 224.993,14.476 225.251,14.634 225.251 C 14.792 225.251,14.921 225.574,14.921 225.968 C 14.921 226.415,15.084 226.686,15.352 226.686 C 15.619 226.686,15.782 226.957,15.782 227.403 C 15.782 227.798,15.911 228.121,16.069 228.121 C 16.227 228.121,16.356 228.379,16.356 228.694 C 16.356 229.010,16.485 229.268,16.643 229.268 C 16.801 229.268,16.930 229.591,16.930 229.986 C 16.930 230.380,17.045 230.703,17.186 230.703 C 17.326 230.703,17.522 231.026,17.621 231.420 C 17.720 231.815,17.928 232.138,18.083 232.138 C 18.238 232.138,18.364 232.396,18.364 232.712 C 18.364 233.027,18.494 233.286,18.651 233.286 C 18.809 233.286,18.938 233.548,18.938 233.868 C 18.938 234.189,19.131 234.525,19.367 234.616 C 19.603 234.706,19.731 234.886,19.651 235.014 C 19.572 235.143,19.702 235.443,19.940 235.681 C 20.178 235.919,20.373 236.252,20.373 236.421 C 20.373 236.590,20.502 236.729,20.660 236.729 C 20.818 236.729,20.947 236.987,20.947 237.303 C 20.947 237.618,21.076 237.877,21.234 237.877 C 21.392 237.877,21.521 238.039,21.521 238.238 C 21.521 238.437,21.844 238.948,22.238 239.373 C 22.633 239.799,22.960 240.314,22.965 240.518 C 22.977 241.031,23.666 241.894,24.063 241.894 C 24.243 241.894,24.390 242.128,24.390 242.414 C 24.390 242.699,24.648 243.211,24.964 243.549 C 25.280 243.888,25.538 244.286,25.538 244.434 C 25.538 244.581,25.732 244.776,25.968 244.867 C 26.205 244.958,26.399 245.230,26.399 245.472 C 26.399 245.713,26.528 245.911,26.686 245.911 C 26.844 245.911,26.973 246.074,26.973 246.273 C 26.973 246.473,27.296 246.878,27.690 247.174 C 28.085 247.471,28.407 247.889,28.407 248.103 C 28.407 248.318,28.537 248.494,28.694 248.494 C 28.852 248.494,28.981 248.632,28.981 248.801 C 28.981 249.198,29.711 249.928,30.109 249.928 C 30.278 249.928,30.416 250.122,30.416 250.359 C 30.416 250.595,30.514 250.789,30.633 250.789 C 30.752 250.789,31.021 251.176,31.231 251.650 C 31.440 252.123,31.795 252.511,32.018 252.511 C 32.242 252.511,32.425 252.644,32.425 252.807 C 32.425 253.112,39.728 260.545,40.028 260.545 C 40.216 260.545,40.721 260.945,41.751 261.908 C 42.131 262.263,42.577 262.554,42.742 262.554 C 42.907 262.554,43.042 262.701,43.042 262.881 C 43.042 263.300,43.916 263.968,44.480 263.979 C 44.719 263.984,45.148 264.299,45.433 264.680 C 45.718 265.060,46.330 265.527,46.792 265.719 C 47.255 265.910,47.633 266.160,47.633 266.274 C 47.633 266.388,48.085 266.724,48.637 267.022 C 49.189 267.319,49.641 267.638,49.641 267.730 C 49.641 267.823,50.093 268.076,50.646 268.293 C 51.198 268.509,51.650 268.782,51.650 268.899 C 51.650 269.164,53.324 270.014,53.846 270.014 C 54.059 270.014,54.232 270.143,54.232 270.301 C 54.232 270.459,54.426 270.588,54.663 270.588 C 54.900 270.588,55.093 270.717,55.093 270.875 C 55.093 271.033,55.338 271.162,55.636 271.162 C 55.935 271.162,56.254 271.356,56.345 271.593 C 56.436 271.829,56.772 272.023,57.093 272.023 C 57.413 272.023,57.676 272.152,57.676 272.310 C 57.676 272.468,57.999 272.597,58.393 272.597 C 58.788 272.597,59.110 272.726,59.110 272.884 C 59.110 273.042,59.498 273.171,59.971 273.171 C 60.545 273.171,60.832 273.314,60.832 273.601 C 60.832 273.869,61.103 274.032,61.549 274.032 C 61.944 274.032,62.267 274.161,62.267 274.319 C 62.267 274.476,62.590 274.605,62.984 274.605 C 63.379 274.605,63.702 274.735,63.702 274.892 C 63.702 275.050,64.093 275.179,64.571 275.179 C 65.080 275.179,65.510 275.358,65.606 275.610 C 65.697 275.846,66.008 276.040,66.298 276.040 C 66.587 276.040,66.904 276.169,67.001 276.327 C 67.099 276.485,67.559 276.614,68.023 276.614 C 68.487 276.614,68.867 276.743,68.867 276.901 C 68.867 277.059,69.319 277.188,69.871 277.188 C 70.572 277.188,70.875 277.318,70.875 277.618 C 70.875 277.919,71.178 278.049,71.879 278.049 C 72.432 278.049,72.884 278.178,72.884 278.336 C 72.884 278.494,73.336 278.623,73.888 278.623 C 74.440 278.623,74.892 278.752,74.892 278.910 C 74.892 279.067,75.289 279.197,75.774 279.197 C 76.258 279.197,76.849 279.390,77.085 279.627 C 77.322 279.864,77.959 280.057,78.500 280.057 C 79.041 280.057,79.484 280.187,79.484 280.344 C 79.484 280.502,80.000 280.631,80.631 280.631 C 81.263 280.631,81.779 280.760,81.779 280.918 C 81.779 281.076,82.305 281.205,82.947 281.205 C 83.603 281.205,84.304 281.394,84.546 281.636 C 84.799 281.889,85.500 282.066,86.247 282.066 C 86.946 282.066,87.518 282.195,87.518 282.353 C 87.518 282.511,88.164 282.640,88.953 282.640 C 89.742 282.640,90.387 282.769,90.387 282.927 C 90.387 283.085,91.087 283.214,91.942 283.214 C 92.889 283.214,93.540 283.347,93.610 283.555 C 93.677 283.757,94.512 283.947,95.642 284.019 C 96.698 284.086,97.561 284.256,97.561 284.395 C 97.561 284.534,98.465 284.648,99.570 284.648 C 100.717 284.648,101.578 284.771,101.578 284.935 C 101.578 285.101,102.517 285.226,103.802 285.232 C 105.301 285.238,106.207 285.378,106.583 285.662 C 106.972 285.957,107.882 286.083,109.610 286.083 C 111.204 286.083,112.208 286.211,112.439 286.442 C 112.965 286.968,167.041 286.968,167.217 286.442 C 167.301 286.189,168.128 286.083,170.018 286.083 C 172.019 286.083,172.809 285.974,173.130 285.653 C 173.445 285.337,174.216 285.222,176.020 285.222 C 177.468 285.222,178.479 285.104,178.479 284.935 C 178.479 284.772,179.334 284.648,180.471 284.648 C 181.566 284.648,182.542 284.519,182.640 284.362 C 182.737 284.204,183.495 284.075,184.324 284.075 C 185.204 284.075,186.062 283.900,186.387 283.653 C 186.706 283.412,187.581 283.228,188.434 283.223 C 189.253 283.218,190.003 283.085,190.100 282.927 C 190.198 282.769,190.980 282.640,191.839 282.640 C 192.698 282.640,193.400 282.511,193.400 282.353 C 193.400 282.195,193.972 282.066,194.671 282.066 C 195.418 282.066,196.119 281.889,196.372 281.636 C 196.629 281.379,197.331 281.205,198.114 281.205 C 198.836 281.205,199.426 281.076,199.426 280.918 C 199.426 280.760,200.007 280.631,200.717 280.631 C 201.428 280.631,202.009 280.502,202.009 280.344 C 202.009 280.187,202.529 280.057,203.165 280.057 C 203.929 280.057,204.378 279.911,204.487 279.627 C 204.599 279.335,205.057 279.197,205.913 279.197 C 206.606 279.197,207.174 279.067,207.174 278.910 C 207.174 278.752,207.626 278.623,208.178 278.623 C 208.730 278.623,209.182 278.494,209.182 278.336 C 209.182 278.178,209.609 278.049,210.132 278.049 C 210.654 278.049,211.332 277.859,211.638 277.627 C 211.944 277.396,212.615 277.202,213.128 277.197 C 213.641 277.192,214.060 277.059,214.060 276.901 C 214.060 276.743,214.440 276.614,214.904 276.614 C 215.368 276.614,215.828 276.485,215.925 276.327 C 216.023 276.169,216.487 276.040,216.956 276.040 C 217.449 276.040,217.878 275.859,217.974 275.610 C 218.067 275.367,218.494 275.179,218.952 275.179 C 219.399 275.179,219.845 275.050,219.943 274.892 C 220.040 274.735,220.500 274.605,220.964 274.605 C 221.428 274.605,221.808 274.476,221.808 274.319 C 221.808 274.161,222.199 274.032,222.678 274.032 C 223.186 274.032,223.616 273.853,223.713 273.601 C 223.803 273.364,224.187 273.171,224.564 273.171 C 224.942 273.171,225.251 273.042,225.251 272.884 C 225.251 272.726,225.703 272.597,226.255 272.597 C 226.808 272.597,227.260 272.468,227.260 272.310 C 227.260 272.152,227.587 272.023,227.986 272.023 C 228.386 272.023,228.787 271.829,228.878 271.593 C 228.972 271.347,229.400 271.162,229.873 271.162 C 230.329 271.162,230.703 271.033,230.703 270.875 C 230.703 270.717,230.961 270.588,231.277 270.588 C 231.593 270.588,231.851 270.459,231.851 270.301 C 231.851 270.143,232.231 270.014,232.695 270.014 C 233.159 270.014,233.618 269.885,233.716 269.727 C 233.813 269.570,234.148 269.440,234.459 269.440 C 234.771 269.440,235.100 269.247,235.190 269.010 C 235.281 268.773,235.592 268.580,235.882 268.580 C 236.171 268.580,236.488 268.451,236.585 268.293 C 236.683 268.135,237.013 268.006,237.320 268.006 C 237.626 268.006,237.877 267.877,237.877 267.719 C 237.877 267.561,238.184 267.432,238.559 267.432 C 238.934 267.432,239.402 267.238,239.598 267.001 C 239.795 266.765,240.190 266.571,240.477 266.571 C 240.764 266.571,241.079 266.442,241.176 266.284 C 241.274 266.126,241.604 265.997,241.911 265.997 C 242.217 265.997,242.468 265.882,242.468 265.741 C 242.468 265.601,242.791 265.404,243.185 265.305 C 243.580 265.206,243.902 264.999,243.902 264.844 C 243.902 264.689,244.092 264.562,244.323 264.562 C 244.826 264.562,247.449 263.143,247.585 262.797 C 247.637 262.663,247.863 262.554,248.087 262.554 C 248.311 262.554,248.494 262.425,248.494 262.267 C 248.494 262.109,248.816 261.980,249.211 261.980 C 249.605 261.980,249.928 261.851,249.928 261.693 C 249.928 261.535,250.191 261.406,250.511 261.406 C 250.832 261.406,251.168 261.212,251.259 260.976 C 251.350 260.739,251.669 260.545,251.968 260.545 C 252.266 260.545,252.511 260.440,252.511 260.312 C 252.511 260.183,252.963 259.901,253.515 259.684 C 254.067 259.468,254.519 259.121,254.519 258.913 C 254.519 258.703,254.836 258.537,255.237 258.537 C 255.631 258.537,255.954 258.416,255.954 258.268 C 255.954 258.121,256.406 257.836,256.958 257.637 C 257.511 257.437,257.963 257.106,257.963 256.901 C 257.963 256.696,258.221 256.528,258.537 256.528 C 258.852 256.528,259.110 256.399,259.110 256.241 C 259.110 256.083,259.304 255.954,259.541 255.954 C 259.778 255.954,259.971 255.825,259.971 255.667 C 259.971 255.509,260.230 255.380,260.545 255.380 C 260.864 255.380,261.119 255.189,261.119 254.950 C 261.119 254.713,261.313 254.519,261.549 254.519 C 261.786 254.519,261.980 254.390,261.980 254.232 C 261.980 254.075,262.238 253.945,262.554 253.945 C 262.869 253.945,263.128 253.816,263.128 253.659 C 263.128 253.501,263.266 253.372,263.435 253.372 C 263.604 253.372,263.923 253.210,264.143 253.013 C 265.092 252.161,265.417 251.937,265.698 251.937 C 265.863 251.937,265.997 251.808,265.997 251.650 C 265.997 251.492,266.180 251.363,266.403 251.363 C 266.626 251.363,267.274 250.911,267.843 250.359 C 268.412 249.806,269.021 249.354,269.197 249.354 C 269.372 249.354,269.942 248.902,270.463 248.350 C 270.984 247.798,271.581 247.342,271.788 247.337 C 272.227 247.326,273.171 246.660,273.171 246.361 C 273.171 246.047,273.953 245.337,274.298 245.337 C 274.467 245.337,274.605 245.208,274.605 245.050 C 274.605 244.892,274.803 244.763,275.045 244.763 C 275.287 244.763,275.559 244.570,275.649 244.333 C 275.740 244.096,275.936 243.902,276.084 243.902 C 276.450 243.902,277.762 242.567,277.762 242.194 C 277.762 242.029,278.020 241.894,278.336 241.894 C 278.651 241.894,278.910 241.765,278.910 241.607 C 278.910 241.449,279.054 241.320,279.231 241.320 C 279.408 241.320,280.109 240.739,280.790 240.029 C 281.470 239.319,282.165 238.737,282.333 238.737 C 282.502 238.737,282.640 238.602,282.640 238.437 C 282.640 238.131,283.923 236.729,284.203 236.729 C 284.737 236.729,293.257 228.188,293.257 227.653 C 293.257 227.389,294.673 226.112,294.965 226.112 C 295.130 226.112,295.265 225.986,295.265 225.831 C 295.265 225.677,295.976 224.829,296.844 223.947 C 297.712 223.065,298.422 222.094,298.422 221.789 C 298.422 221.484,298.565 221.234,298.740 221.234 C 299.143 221.234,301.522 218.675,301.740 218.006 C 301.830 217.730,302.024 217.504,302.171 217.504 C 302.319 217.504,302.439 217.310,302.439 217.073 C 302.439 216.836,302.600 216.641,302.798 216.639 C 303.108 216.636,304.448 214.899,304.448 214.500 C 304.448 214.422,304.900 213.892,305.452 213.323 C 306.004 212.755,306.456 212.107,306.456 211.884 C 306.456 211.660,306.585 211.478,306.743 211.478 C 306.901 211.478,307.030 211.284,307.030 211.047 C 307.030 210.811,307.200 210.617,307.407 210.617 C 307.614 210.617,307.954 210.183,308.162 209.652 C 308.371 209.122,308.847 208.458,309.220 208.177 C 309.594 207.897,309.900 207.455,309.900 207.197 C 309.900 206.938,310.158 206.540,310.473 206.313 C 310.789 206.085,311.047 205.605,311.047 205.245 C 311.047 204.885,311.186 204.591,311.355 204.591 C 311.839 204.591,312.482 203.823,312.482 203.245 C 312.482 202.956,312.805 202.476,313.199 202.180 C 313.594 201.884,313.917 201.466,313.917 201.251 C 313.917 201.036,314.046 200.861,314.204 200.861 C 314.362 200.861,314.491 200.667,314.491 200.430 C 314.491 200.194,314.620 200.000,314.778 200.000 C 314.935 200.000,315.065 199.756,315.065 199.457 C 315.065 199.158,315.226 198.852,315.423 198.776 C 315.842 198.615,317.073 196.403,317.073 195.812 C 317.073 195.590,317.243 195.409,317.450 195.409 C 317.657 195.409,318.004 194.957,318.221 194.405 C 318.438 193.852,318.720 193.400,318.848 193.400 C 318.977 193.400,319.082 193.077,319.082 192.683 C 319.082 192.282,319.248 191.966,319.459 191.966 C 319.666 191.966,320.013 191.514,320.230 190.961 C 320.446 190.409,320.729 189.957,320.857 189.957 C 320.985 189.957,321.090 189.699,321.090 189.383 C 321.090 189.067,321.220 188.809,321.377 188.809 C 321.535 188.809,321.664 188.486,321.664 188.092 C 321.664 187.645,321.827 187.374,322.095 187.374 C 322.363 187.374,322.525 187.103,322.525 186.657 C 322.525 186.263,322.654 185.940,322.812 185.940 C 322.970 185.940,323.099 185.746,323.099 185.509 C 323.099 185.273,323.228 185.079,323.386 185.079 C 323.544 185.079,323.673 184.821,323.673 184.505 C 323.673 184.189,323.793 183.931,323.939 183.931 C 324.245 183.931,325.108 182.310,325.108 181.735 C 325.108 181.522,325.237 181.349,325.395 181.349 C 325.552 181.349,325.681 181.086,325.681 180.766 C 325.681 180.445,325.875 180.109,326.112 180.018 C 326.349 179.927,326.542 179.608,326.542 179.309 C 326.542 179.011,326.671 178.766,326.829 178.766 C 326.987 178.766,327.116 178.443,327.116 178.049 C 327.116 177.654,327.245 177.331,327.403 177.331 C 327.561 177.331,327.690 177.087,327.690 176.788 C 327.690 176.489,327.884 176.171,328.121 176.080 C 328.357 175.989,328.551 175.652,328.551 175.332 C 328.551 175.011,328.680 174.749,328.838 174.749 C 328.996 174.749,329.125 174.426,329.125 174.032 C 329.125 173.637,329.254 173.314,329.412 173.314 C 329.570 173.314,329.699 173.047,329.699 172.720 C 329.699 172.393,329.892 171.932,330.129 171.695 C 330.366 171.458,330.560 171.016,330.560 170.711 C 330.560 170.407,330.689 170.158,330.846 170.158 C 331.004 170.158,331.133 169.835,331.133 169.440 C 331.133 169.046,331.263 168.723,331.420 168.723 C 331.578 168.723,331.707 168.472,331.707 168.166 C 331.707 167.860,331.833 167.532,331.987 167.437 C 332.140 167.342,332.474 166.785,332.728 166.200 C 332.982 165.615,333.309 164.912,333.453 164.638 C 333.598 164.364,333.716 163.815,333.716 163.419 C 333.716 162.969,333.878 162.697,334.146 162.697 C 334.383 162.697,334.577 162.447,334.577 162.140 C 334.577 161.834,334.706 161.504,334.864 161.406 C 335.022 161.308,335.151 160.913,335.151 160.528 C 335.151 160.143,335.280 159.828,335.438 159.828 C 335.595 159.828,335.725 159.440,335.725 158.967 C 335.725 158.494,335.854 158.106,336.011 158.106 C 336.169 158.106,336.298 157.797,336.298 157.420 C 336.298 157.042,336.492 156.659,336.729 156.568 C 336.980 156.471,337.159 156.041,337.159 155.533 C 337.159 155.054,337.288 154.663,337.446 154.663 C 337.604 154.663,337.733 154.405,337.733 154.089 C 337.733 153.773,337.862 153.515,338.020 153.515 C 338.178 153.515,338.307 153.063,338.307 152.511 L 338.307 151.506 343.168 151.506 C 346.099 151.506,348.100 151.393,348.207 151.220 C 348.304 151.061,349.590 150.933,351.072 150.933 C 353.080 150.933,353.870 150.823,354.191 150.502 C 354.479 150.215,355.196 150.072,356.347 150.072 C 357.296 150.072,358.152 149.943,358.250 149.785 C 358.347 149.627,359.000 149.498,359.701 149.498 C 360.402 149.498,360.976 149.369,360.976 149.211 C 360.976 149.053,361.414 148.924,361.949 148.924 C 362.550 148.924,362.986 148.759,363.088 148.494 C 363.197 148.209,363.646 148.063,364.410 148.063 C 365.046 148.063,365.567 147.934,365.567 147.776 C 365.567 147.618,365.890 147.489,366.284 147.489 C 366.679 147.489,367.001 147.360,367.001 147.202 C 367.001 147.044,367.393 146.915,367.871 146.915 C 368.380 146.915,368.810 146.737,368.906 146.485 C 368.997 146.248,369.380 146.055,369.758 146.055 C 370.136 146.055,370.445 145.954,370.445 145.830 C 370.445 145.707,371.033 145.432,371.752 145.220 C 372.471 145.008,373.236 144.657,373.453 144.440 C 373.670 144.223,373.985 144.046,374.155 144.046 C 374.324 144.046,374.462 143.917,374.462 143.759 C 374.462 143.601,374.720 143.472,375.036 143.472 C 375.352 143.472,375.610 143.343,375.610 143.185 C 375.610 143.027,375.933 142.898,376.327 142.898 C 376.773 142.898,377.044 142.736,377.044 142.468 C 377.044 142.229,377.300 142.037,377.618 142.037 C 377.934 142.037,378.192 141.908,378.192 141.750 C 378.192 141.593,378.386 141.463,378.623 141.463 C 378.859 141.463,379.053 141.334,379.053 141.176 C 379.053 141.019,379.251 140.890,379.493 140.890 C 379.734 140.890,380.006 140.696,380.097 140.459 C 380.188 140.222,380.414 140.029,380.599 140.029 C 380.784 140.029,381.121 139.770,381.349 139.455 C 381.576 139.139,381.961 138.881,382.204 138.881 C 382.447 138.881,383.031 138.432,383.503 137.883 C 383.975 137.334,384.523 136.882,384.720 136.879 C 384.918 136.875,385.079 136.709,385.079 136.510 C 385.079 136.311,385.419 135.892,385.835 135.580 C 386.775 134.874,389.670 132.039,389.670 131.824 C 389.670 131.569,390.467 130.846,390.749 130.846 C 390.891 130.846,391.181 130.524,391.392 130.129 C 391.603 129.735,391.883 129.412,392.014 129.412 C 392.145 129.412,392.253 129.212,392.253 128.968 C 392.253 128.723,392.553 128.239,392.921 127.892 C 393.289 127.544,393.773 126.840,393.996 126.327 C 394.219 125.814,394.563 125.395,394.762 125.395 C 394.960 125.395,395.122 125.136,395.122 124.821 C 395.122 124.505,395.251 124.247,395.409 124.247 C 395.567 124.247,395.696 124.053,395.696 123.816 C 395.696 123.580,395.825 123.386,395.983 123.386 C 396.141 123.386,396.270 123.128,396.270 122.812 C 396.270 122.496,396.396 122.238,396.551 122.238 C 396.706 122.238,396.914 121.915,397.013 121.521 C 397.112 121.126,397.308 120.803,397.449 120.803 C 397.589 120.803,397.704 120.481,397.704 120.086 C 397.704 119.692,397.834 119.369,397.991 119.369 C 398.149 119.369,398.278 119.186,398.278 118.962 C 398.278 118.738,398.494 118.124,398.757 117.599 C 399.021 117.073,399.355 116.400,399.500 116.104 C 400.046 114.989,400.136 110.187,399.612 110.187 C 399.352 110.187,399.139 110.057,399.139 109.900 C 399.139 109.742,398.945 109.613,398.709 109.613 C 398.472 109.613,398.278 109.474,398.278 109.305 C 398.278 108.908,397.548 108.178,397.151 108.178 C 396.982 108.178,396.844 108.049,396.844 107.891 C 396.844 107.733,396.644 107.604,396.399 107.604 C 396.155 107.604,395.656 107.281,395.291 106.887 C 394.925 106.492,394.415 106.169,394.156 106.169 C 393.898 106.169,393.687 106.040,393.687 105.882 C 393.687 105.725,393.364 105.595,392.970 105.595 C 392.575 105.595,392.253 105.476,392.253 105.329 C 392.253 105.023,390.632 104.161,390.056 104.161 C 389.844 104.161,389.670 104.032,389.670 103.874 C 389.670 103.716,389.229 103.587,388.690 103.587 C 388.150 103.587,387.664 103.452,387.609 103.287 C 387.555 103.123,387.130 102.948,386.667 102.898 C 386.203 102.849,385.775 102.661,385.714 102.480 C 385.654 102.300,385.164 102.152,384.625 102.152 C 384.085 102.152,383.644 102.023,383.644 101.865 C 383.644 101.707,383.063 101.578,382.353 101.578 C 381.643 101.578,381.062 101.449,381.062 101.291 C 381.062 101.133,380.430 101.004,379.658 101.004 C 378.674 101.004,378.204 100.875,378.088 100.574 C 377.962 100.244,377.418 100.143,375.762 100.143 C 374.513 100.143,373.601 100.022,373.601 99.857 C 373.601 99.463,353.041 99.463,352.798 99.857 C 352.700 100.014,351.530 100.143,350.198 100.143 C 348.237 100.143,347.776 100.225,347.776 100.574 C 347.776 100.811,347.647 101.004,347.489 101.004 C 347.331 101.004,347.202 100.368,347.202 99.590 C 347.202 98.716,347.038 98.012,346.772 97.745 C 346.530 97.504,346.341 96.803,346.341 96.147 C 346.341 95.504,346.212 94.978,346.055 94.978 C 345.897 94.978,345.768 94.397,345.768 93.687 C 345.768 92.977,345.638 92.396,345.481 92.396 C 345.323 92.396,345.194 92.024,345.194 91.570 C 345.194 91.116,345.000 90.584,344.763 90.387 C 344.527 90.191,344.333 89.659,344.333 89.204 C 344.333 88.750,344.204 88.379,344.046 88.379 C 343.888 88.379,343.759 88.056,343.759 87.661 C 343.759 87.267,343.630 86.944,343.472 86.944 C 343.314 86.944,343.185 86.621,343.185 86.227 C 343.185 85.780,343.022 85.509,342.755 85.509 C 342.518 85.509,342.324 85.314,342.324 85.075 C 342.324 84.836,342.195 84.384,342.037 84.071 C 341.879 83.757,341.621 83.244,341.463 82.931 C 341.306 82.617,341.176 82.165,341.176 81.926 C 341.176 81.688,340.983 81.492,340.746 81.492 C 340.507 81.492,340.316 81.237,340.316 80.918 C 340.316 80.603,340.187 80.344,340.029 80.344 C 339.871 80.344,339.742 80.077,339.742 79.750 C 339.742 79.115,339.121 78.336,338.614 78.336 C 338.445 78.336,338.307 78.041,338.307 77.682 C 338.307 77.322,338.049 76.842,337.733 76.614 C 337.418 76.387,337.159 75.989,337.159 75.730 C 337.159 75.471,336.836 75.017,336.442 74.721 C 336.047 74.425,335.725 74.019,335.725 73.820 C 335.725 73.621,335.595 73.458,335.438 73.458 C 335.280 73.458,335.151 73.279,335.151 73.060 C 335.151 72.842,334.214 71.687,333.070 70.495 C 331.926 69.302,330.604 67.867,330.132 67.305 C 329.660 66.744,329.111 66.284,328.912 66.284 C 328.714 66.284,328.551 66.155,328.551 65.997 C 328.551 65.839,328.357 65.710,328.121 65.710 C 327.884 65.710,327.690 65.575,327.690 65.410 C 327.690 65.021,326.371 63.702,325.981 63.702 C 325.816 63.702,325.681 63.563,325.681 63.394 C 325.681 62.997,324.951 62.267,324.554 62.267 C 324.385 62.267,324.247 62.138,324.247 61.980 C 324.247 61.822,323.989 61.693,323.673 61.693 C 323.357 61.693,323.099 61.555,323.099 61.386 C 323.099 60.988,322.369 60.258,321.972 60.258 C 321.803 60.258,321.664 60.129,321.664 59.971 C 321.664 59.813,321.406 59.684,321.090 59.684 C 320.772 59.684,320.516 59.493,320.516 59.254 C 320.516 59.017,320.323 58.824,320.086 58.824 C 319.849 58.824,319.656 58.694,319.656 58.537 C 319.656 58.379,319.397 58.250,319.082 58.250 C 318.766 58.250,318.508 58.121,318.508 57.963 C 318.508 57.805,318.185 57.676,317.791 57.676 C 317.332 57.676,317.073 57.514,317.073 57.228 C 317.073 56.982,316.959 56.852,316.819 56.938 C 316.679 57.025,316.405 56.903,316.210 56.668 C 316.015 56.433,315.677 56.241,315.460 56.241 C 315.242 56.241,315.065 56.112,315.065 55.954 C 315.065 55.796,314.820 55.667,314.521 55.667 C 314.223 55.667,313.899 55.461,313.803 55.210 C 313.648 54.807,312.687 54.760,311.119 55.079 C 311.080 55.087,311.047 55.323,311.047 55.604 C 311.047 55.885,310.789 56.300,310.473 56.528 C 310.158 56.755,309.900 57.076,309.900 57.240 C 309.900 57.404,309.577 57.886,309.182 58.312 C 308.788 58.737,308.465 59.220,308.465 59.385 C 308.465 59.550,308.336 59.684,308.178 59.684 C 308.020 59.684,307.891 59.871,307.891 60.100 C 307.891 60.329,307.568 60.864,307.174 61.290 C 306.779 61.715,306.456 62.239,306.456 62.452 C 306.456 62.666,306.327 62.841,306.169 62.841 C 306.011 62.841,305.882 63.164,305.882 63.558 C 305.882 63.953,305.756 64.275,305.601 64.275 C 305.446 64.275,305.238 64.598,305.139 64.993 C 305.040 65.387,304.844 65.710,304.703 65.710 C 304.563 65.710,304.448 65.968,304.448 66.284 C 304.448 66.600,304.319 66.858,304.161 66.858 C 304.003 66.858,303.874 67.109,303.874 67.415 C 303.874 67.721,303.745 68.052,303.587 68.149 C 303.429 68.247,303.300 68.581,303.300 68.893 C 303.300 69.204,303.106 69.533,302.869 69.624 C 302.633 69.714,302.439 70.033,302.439 70.332 C 302.439 70.631,302.310 70.875,302.152 70.875 C 301.994 70.875,301.865 71.198,301.865 71.593 C 301.865 71.987,301.736 72.310,301.578 72.310 C 301.420 72.310,301.291 72.762,301.291 73.314 C 301.291 74.016,301.161 74.319,300.861 74.319 C 300.593 74.319,300.430 74.590,300.430 75.036 C 300.430 75.430,300.301 75.753,300.143 75.753 C 299.986 75.753,299.857 76.133,299.857 76.597 C 299.857 77.061,299.727 77.521,299.570 77.618 C 299.412 77.716,299.279 78.143,299.274 78.568 C 299.268 78.993,299.075 79.591,298.843 79.897 C 298.611 80.203,298.422 80.881,298.422 81.403 C 298.422 81.926,298.293 82.353,298.135 82.353 C 297.977 82.353,297.848 82.934,297.848 83.644 C 297.848 84.354,297.719 84.935,297.561 84.935 C 297.402 84.935,297.274 85.690,297.274 86.626 C 297.274 87.865,297.159 88.362,296.844 88.483 C 296.514 88.609,296.413 89.151,296.413 90.792 C 296.413 91.971,296.284 93.016,296.126 93.113 C 295.949 93.223,295.839 95.645,295.839 99.426 C 295.839 103.207,295.949 105.630,296.126 105.739 C 296.284 105.836,296.413 106.817,296.413 107.917 C 296.413 109.431,296.518 109.958,296.844 110.083 C 297.153 110.201,297.274 110.685,297.274 111.795 C 297.274 112.647,297.403 113.343,297.561 113.343 C 297.719 113.343,297.848 113.852,297.848 114.474 C 297.848 115.096,297.977 115.684,298.135 115.782 C 298.293 115.879,298.422 116.323,298.422 116.768 C 298.422 117.213,298.615 117.738,298.852 117.934 C 299.089 118.130,299.283 118.591,299.283 118.957 C 299.283 119.322,299.412 119.702,299.570 119.799 C 299.727 119.897,299.857 120.292,299.857 120.677 C 299.857 121.062,299.986 121.377,300.143 121.377 C 300.301 121.377,300.430 121.700,300.430 122.095 C 300.430 122.541,300.593 122.812,300.861 122.812 C 301.129 122.812,301.291 123.083,301.291 123.529 C 301.291 123.924,301.420 124.247,301.578 124.247 C 301.736 124.247,301.865 124.505,301.865 124.821 C 301.865 125.136,301.994 125.395,302.152 125.395 C 302.310 125.395,302.439 125.717,302.439 126.112 C 302.439 126.558,302.602 126.829,302.869 126.829 C 303.106 126.829,303.300 127.080,303.300 127.386 C 303.300 127.693,303.429 128.023,303.587 128.121 C 304.066 128.417,303.908 128.838,303.317 128.838 C 303.010 128.838,302.680 128.967,302.582 129.125 C 302.485 129.283,302.155 129.412,301.848 129.412 C 301.542 129.412,301.291 129.605,301.291 129.842 C 301.291 130.110,301.020 130.273,300.574 130.273 C 300.179 130.273,299.857 130.402,299.857 130.560 C 299.857 130.717,299.405 130.846,298.852 130.846 C 298.300 130.846,297.848 130.976,297.848 131.133 C 297.848 131.291,297.396 131.420,296.844 131.420 C 296.142 131.420,295.839 131.550,295.839 131.851 C 295.839 132.170,295.505 132.281,294.548 132.281 C 293.838 132.281,293.257 132.410,293.257 132.568 C 293.257 132.726,292.676 132.855,291.966 132.855 C 291.255 132.855,290.674 132.984,290.674 133.142 C 290.674 133.300,290.038 133.429,289.260 133.429 C 288.386 133.429,287.682 133.593,287.415 133.859 C 287.120 134.155,286.393 134.290,285.099 134.290 C 284.034 134.290,283.214 134.415,283.214 134.577 C 283.214 134.736,282.449 134.864,281.492 134.864 L 279.770 134.864 279.770 115.495 C 279.770 102.774,279.672 96.126,279.484 96.126 C 279.326 96.126,279.197 95.894,279.197 95.610 C 279.197 94.832,278.528 93.549,278.121 93.546 C 277.923 93.545,277.762 93.447,277.761 93.329 C 277.761 92.962,276.422 91.535,276.079 91.535 C 275.900 91.535,275.753 91.406,275.753 91.248 C 275.753 91.090,275.509 90.961,275.210 90.961 C 274.911 90.961,274.593 90.768,274.502 90.531 C 274.406 90.282,273.977 90.100,273.484 90.100 C 273.015 90.100,272.551 89.971,272.453 89.813 C 272.338 89.626,265.038 89.527,251.490 89.527 L 230.703 89.527 230.703 47.767 C 230.703 10.912,230.652 5.988,230.273 5.843 C 230.036 5.752,229.842 5.368,229.842 4.991 C 229.842 4.613,229.713 4.304,229.555 4.304 C 229.397 4.304,229.264 4.078,229.259 3.802 C 229.249 3.256,228.619 2.296,228.271 2.296 C 228.152 2.296,227.611 1.811,227.069 1.220 L 226.083 0.143 202.210 0.112 C 189.079 0.094,177.999 0.133,177.587 0.198 M220.217 8.028 C 222.483 9.125,222.382 8.271,222.381 26.300 C 222.380 41.687,222.357 42.361,221.819 43.243 C 220.594 45.253,221.241 45.184,202.595 45.276 C 184.208 45.367,183.528 45.320,181.995 43.834 L 181.062 42.929 181.062 26.459 C 181.062 7.996,180.962 8.871,183.169 7.904 C 184.834 7.175,218.688 7.288,220.217 8.028 M188.881 15.398 C 188.275 15.642,188.368 37.182,188.976 37.415 C 189.748 37.712,191.546 37.608,191.908 37.245 C 192.498 36.655,192.393 15.610,191.799 15.382 C 191.268 15.178,189.400 15.189,188.881 15.398 M200.057 15.552 C 199.802 15.808,199.713 18.613,199.713 26.399 C 199.713 37.984,199.648 37.593,201.564 37.585 C 203.708 37.577,203.587 38.248,203.587 26.399 C 203.587 17.255,203.526 15.723,203.156 15.489 C 202.543 15.101,200.466 15.144,200.057 15.552 M211.549 15.398 C 211.271 15.510,211.191 17.981,211.191 26.392 C 211.191 38.442,211.041 37.590,213.166 37.590 C 214.972 37.590,214.921 37.914,214.921 26.399 C 214.921 18.613,214.832 15.808,214.577 15.552 C 214.239 15.214,212.255 15.113,211.549 15.398 M122.142 53.167 C 122.484 53.358,123.065 53.899,123.434 54.369 L 124.103 55.223 124.103 71.493 C 124.103 87.497,124.094 87.776,123.509 88.573 C 122.137 90.443,122.766 90.386,103.443 90.386 C 83.931 90.386,84.661 90.458,83.291 88.408 L 82.640 87.433 82.641 71.622 L 82.643 55.811 83.318 54.694 C 83.690 54.081,84.303 53.407,84.680 53.198 C 85.639 52.667,121.197 52.637,122.142 53.167 M171.775 53.348 C 173.641 54.486,173.601 54.090,173.600 71.565 C 173.599 89.254,173.686 88.492,171.523 89.819 C 170.034 90.732,135.059 90.570,133.809 89.644 C 132.112 88.388,132.146 88.719,132.051 72.453 C 131.947 54.441,131.994 54.053,134.410 53.076 C 135.829 52.502,170.804 52.757,171.775 53.348 M220.574 53.360 C 222.432 54.493,222.382 53.985,222.382 71.606 C 222.382 89.434,222.475 88.598,220.360 89.786 C 218.985 90.559,185.055 90.745,183.247 89.989 C 180.960 89.034,181.062 89.893,181.062 71.540 C 181.062 53.526,180.962 54.523,182.889 53.348 C 184.303 52.486,219.158 52.497,220.574 53.360 M90.890 60.568 C 90.425 60.838,90.387 61.675,90.387 71.613 L 90.387 82.365 91.083 82.682 C 91.475 82.861,92.226 82.915,92.804 82.806 L 93.831 82.614 93.831 71.613 L 93.831 60.612 93.185 60.439 C 92.253 60.189,91.464 60.234,90.890 60.568 M102.224 60.554 L 101.578 60.814 101.578 71.590 L 101.578 82.367 102.367 82.674 C 102.857 82.864,103.537 82.889,104.161 82.738 L 105.165 82.496 105.241 71.736 C 105.328 59.390,105.307 59.315,102.224 60.554 M113.343 60.832 C 112.791 61.384,112.769 61.789,112.769 71.593 C 112.769 83.511,112.785 83.568,115.854 82.746 L 116.499 82.573 116.499 71.593 L 116.499 60.612 115.854 60.439 C 114.694 60.128,113.927 60.248,113.343 60.832 M140.244 60.552 C 139.376 61.085,139.482 82.194,140.355 82.661 C 141.081 83.050,142.896 82.816,143.229 82.291 C 143.539 81.803,143.533 61.372,143.222 60.882 C 142.906 60.383,140.885 60.159,140.244 60.552 M151.793 60.467 C 150.981 60.777,150.941 61.289,150.941 71.593 C 150.941 82.735,150.921 82.581,152.423 82.825 C 154.763 83.204,154.663 83.705,154.663 71.593 C 154.663 59.449,154.645 59.382,151.793 60.467 M162.912 60.552 C 162.449 60.837,162.410 61.681,162.410 71.613 L 162.410 82.365 163.106 82.682 C 164.362 83.254,165.805 82.763,166.001 81.696 C 166.229 80.453,166.048 60.930,165.806 60.688 C 165.453 60.336,163.420 60.241,162.912 60.552 M189.024 60.568 C 188.206 61.045,188.256 82.190,189.077 82.630 C 189.788 83.010,190.987 83.010,191.697 82.630 C 192.564 82.166,192.564 61.019,191.697 60.555 C 190.997 60.180,189.679 60.187,189.024 60.568 M200.215 60.568 C 199.396 61.045,199.447 82.190,200.268 82.630 C 201.162 83.108,202.533 82.977,203.156 82.353 C 203.709 81.801,203.730 81.396,203.730 71.593 C 203.730 61.789,203.709 61.384,203.156 60.832 C 202.535 60.211,201.057 60.078,200.215 60.568 M211.693 60.456 C 210.873 60.670,210.924 82.190,211.746 82.630 C 212.456 83.010,213.655 83.010,214.366 82.630 C 215.232 82.166,215.232 61.019,214.366 60.555 C 213.808 60.256,212.625 60.213,211.693 60.456 M316.255 66.069 C 330.334 75.989,338.976 90.850,339.991 106.887 L 340.172 109.756 341.033 109.732 C 341.506 109.718,343.185 109.440,344.763 109.114 C 347.464 108.555,349.069 108.306,354.459 107.607 C 365.586 106.165,380.310 108.140,388.208 112.135 C 391.782 113.942,391.798 113.977,390.416 116.719 C 385.918 125.638,377.581 133.719,368.580 137.884 C 364.655 139.700,364.825 139.630,362.410 140.423 C 355.506 142.689,351.092 143.301,341.544 143.313 L 333.446 143.323 331.411 148.491 C 330.292 151.333,329.203 154.046,328.991 154.519 C 328.779 154.993,328.257 156.220,327.832 157.245 C 327.406 158.271,326.737 159.821,326.345 160.689 C 325.953 161.557,325.464 162.654,325.259 163.128 C 322.808 168.789,317.418 179.649,314.737 184.330 C 313.655 186.219,312.769 187.804,312.769 187.853 C 312.769 187.902,312.188 188.849,311.478 189.957 C 310.768 191.065,310.187 192.037,310.187 192.116 C 310.187 192.586,303.689 202.229,300.041 207.174 C 282.696 230.682,255.232 252.590,231.384 261.941 C 230.576 262.258,229.284 262.797,228.515 263.138 C 227.746 263.479,226.793 263.892,226.399 264.056 C 226.004 264.219,225.423 264.464,225.108 264.600 C 222.371 265.783,211.569 269.446,207.461 270.585 C 206.908 270.738,205.617 271.110,204.591 271.411 C 202.424 272.046,196.527 273.491,191.607 274.591 C 189.562 275.049,186.192 275.694,184.075 276.033 C 182.970 276.210,181.515 276.478,180.842 276.628 C 180.169 276.778,179.201 276.902,178.690 276.903 C 178.180 276.903,177.310 277.026,176.758 277.174 C 175.441 277.528,170.815 278.062,161.693 278.913 C 160.115 279.060,158.049 279.317,157.102 279.483 C 156.057 279.667,149.516 279.798,140.459 279.816 C 126.120 279.845,123.903 279.760,115.352 278.857 C 113.694 278.682,111.306 278.438,110.043 278.316 C 106.725 277.996,103.524 277.562,100.574 277.033 C 99.154 276.778,97.313 276.451,96.485 276.305 C 91.339 275.400,89.746 275.082,88.092 274.628 C 87.382 274.433,86.316 274.154,85.725 274.009 C 81.818 273.050,79.195 272.310,78.555 271.987 C 78.281 271.849,77.758 271.736,77.393 271.736 C 77.028 271.736,76.606 271.633,76.456 271.508 C 76.306 271.383,75.409 271.037,74.462 270.740 C 73.515 270.443,72.618 270.094,72.468 269.964 C 72.318 269.834,71.906 269.727,71.552 269.727 C 71.198 269.727,70.829 269.598,70.732 269.440 C 70.634 269.283,70.372 269.154,70.149 269.154 C 69.926 269.154,68.997 268.817,68.085 268.406 C 67.174 267.996,66.169 267.560,65.854 267.440 C 64.115 266.773,57.546 263.429,55.879 262.362 C 54.813 261.678,53.812 261.119,53.656 261.119 C 53.499 261.119,53.372 261.019,53.372 260.897 C 53.372 260.775,52.926 260.436,52.381 260.142 C 51.836 259.848,51.158 259.399,50.874 259.144 C 50.590 258.889,49.842 258.295,49.211 257.824 C 47.881 256.832,47.429 256.457,44.575 253.984 C 43.416 252.980,42.468 252.044,42.468 251.904 C 42.468 251.762,46.123 251.650,50.725 251.650 C 60.951 251.650,67.948 250.887,75.753 248.920 C 76.779 248.661,78.070 248.347,78.623 248.221 C 79.175 248.095,79.821 247.925,80.057 247.844 C 80.294 247.763,81.650 247.344,83.070 246.912 C 84.491 246.480,85.911 246.023,86.227 245.896 C 86.542 245.769,87.575 245.388,88.522 245.049 C 89.469 244.710,90.696 244.236,91.248 243.995 C 91.801 243.754,92.511 243.451,92.826 243.322 C 97.648 241.349,105.887 236.815,106.395 235.853 C 107.347 234.054,106.325 231.603,104.300 230.830 L 102.981 230.326 100.343 231.685 C 93.664 235.124,91.472 236.178,88.666 237.295 C 87.009 237.954,85.395 238.605,85.079 238.741 C 84.385 239.041,80.695 240.233,78.910 240.736 C 78.199 240.936,77.296 241.206,76.901 241.335 C 74.722 242.051,67.711 243.394,62.554 244.082 C 54.117 245.208,36.281 244.347,34.542 242.729 C 31.332 239.741,22.756 224.881,19.806 217.194 C 19.478 216.338,19.101 215.380,18.969 215.065 C 18.836 214.749,18.592 214.168,18.426 213.773 C 17.467 211.499,15.109 204.470,14.286 201.435 C 12.154 193.573,12.257 193.999,11.223 188.809 C 8.666 175.973,7.455 165.020,7.446 154.663 C 7.440 147.581,8.238 145.651,11.885 143.926 L 13.451 143.185 145.436 143.185 C 284.551 143.185,280.267 143.221,286.657 142.015 C 287.525 141.851,288.945 141.585,289.813 141.423 C 298.559 139.797,310.158 135.365,312.195 132.872 C 312.274 132.776,312.887 132.270,313.558 131.748 C 315.135 130.520,315.132 130.511,312.414 126.973 C 311.916 126.326,310.187 123.678,310.187 123.564 C 310.187 123.496,309.764 122.686,309.248 121.764 C 301.549 108.011,302.071 89.505,310.658 71.771 C 313.915 65.044,314.277 64.675,316.255 66.069 M72.965 98.241 C 73.473 98.458,74.211 98.985,74.605 99.412 L 75.323 100.190 75.323 116.804 L 75.323 133.418 74.385 134.356 L 73.447 135.294 54.768 135.294 L 36.089 135.294 35.118 134.170 L 34.146 133.046 34.146 116.868 C 34.146 98.668,34.063 99.396,36.246 98.406 C 37.828 97.687,71.312 97.537,72.965 98.241 M121.958 98.425 C 124.210 99.574,124.093 98.639,124.184 116.220 C 124.274 133.565,124.268 133.628,122.554 134.781 L 121.579 135.438 103.659 135.438 C 83.555 135.438,84.275 135.509,83.199 133.401 C 82.665 132.353,82.640 131.605,82.641 116.582 C 82.642 98.873,82.546 99.665,84.852 98.448 C 86.556 97.548,120.199 97.528,121.958 98.425 M171.300 98.351 C 171.849 98.626,172.592 99.291,172.950 99.827 L 173.601 100.802 173.601 116.641 C 173.601 133.642,173.620 133.404,172.139 134.746 C 171.269 135.533,135.769 135.758,134.144 134.987 C 131.953 133.947,131.970 134.092,132.059 116.466 C 132.147 99.056,132.074 99.680,134.146 98.507 L 135.294 97.857 152.798 97.853 C 168.895 97.849,170.382 97.889,171.300 98.351 M219.893 98.239 C 220.409 98.455,221.179 99.046,221.606 99.553 L 222.382 100.474 222.382 116.622 L 222.382 132.770 221.727 133.741 C 220.549 135.490,221.267 135.429,201.765 135.433 C 182.153 135.438,182.576 135.473,181.551 133.739 C 181.105 132.984,181.062 131.462,181.062 116.660 C 181.062 98.564,180.958 99.521,183.042 98.419 C 184.401 97.701,218.210 97.536,219.893 98.239 M269.264 98.246 C 269.787 98.465,270.526 99.078,270.904 99.609 L 271.593 100.574 271.593 116.643 C 271.593 131.248,271.548 132.793,271.103 133.605 C 270.079 135.476,270.500 135.438,251.140 135.438 C 231.604 135.438,232.126 135.473,231.047 134.058 L 230.273 133.043 230.273 116.758 C 230.273 98.451,230.146 99.523,232.445 98.351 C 233.784 97.668,267.649 97.571,269.264 98.246 M41.964 105.927 C 41.692 106.199,41.607 108.800,41.607 116.808 C 41.607 128.660,41.490 128.070,43.808 127.922 L 45.194 127.834 45.194 116.786 L 45.194 105.739 43.757 105.655 C 42.888 105.604,42.180 105.711,41.964 105.927 M53.102 106.136 C 52.628 107.022,52.687 126.856,53.166 127.510 C 53.450 127.898,53.860 127.993,54.959 127.924 L 56.385 127.834 56.385 116.786 L 56.385 105.739 54.896 105.653 C 53.653 105.581,53.357 105.661,53.102 106.136 M64.620 105.940 C 64.126 106.434,64.126 127.139,64.620 127.633 C 64.982 127.995,66.780 128.099,67.552 127.803 C 68.146 127.575,68.251 106.530,67.661 105.940 C 67.472 105.750,66.788 105.595,66.141 105.595 C 65.494 105.595,64.809 105.750,64.620 105.940 M90.524 105.940 C 90.445 106.146,90.414 111.157,90.456 117.074 L 90.531 127.834 92.109 127.834 L 93.687 127.834 93.687 116.786 L 93.687 105.739 92.178 105.652 C 91.134 105.592,90.623 105.681,90.524 105.940 M101.923 105.940 C 101.429 106.434,101.429 127.139,101.923 127.633 C 102.451 128.162,104.922 128.077,105.134 127.523 C 105.230 127.274,105.308 122.442,105.308 116.786 C 105.308 111.131,105.230 106.299,105.134 106.049 C 104.922 105.495,102.451 105.411,101.923 105.940 M113.055 106.316 C 112.886 106.761,112.769 111.033,112.769 116.786 C 112.769 128.201,112.739 128.042,114.848 127.920 L 116.356 127.834 116.356 116.786 L 116.356 105.739 114.848 105.652 C 113.450 105.572,113.319 105.620,113.055 106.316 M139.873 105.955 C 139.797 106.153,139.769 111.157,139.810 117.074 L 139.885 127.834 141.310 127.924 C 142.409 127.993,142.820 127.898,143.104 127.510 C 143.618 126.806,143.641 106.453,143.128 105.940 C 142.664 105.476,140.052 105.489,139.873 105.955 M151.289 105.927 C 151.018 106.199,150.933 108.800,150.933 116.808 C 150.933 128.660,150.816 128.070,153.134 127.922 L 154.519 127.834 154.519 116.786 L 154.519 105.739 153.083 105.655 C 152.214 105.604,151.505 105.711,151.289 105.927 M162.541 105.955 C 162.465 106.153,162.437 111.157,162.479 117.074 L 162.554 127.834 163.979 127.924 C 165.078 127.993,165.489 127.898,165.772 127.510 C 166.244 126.865,166.310 107.023,165.844 106.150 C 165.490 105.490,162.781 105.330,162.541 105.955 M188.881 105.785 C 188.275 106.030,188.368 127.570,188.976 127.803 C 189.561 128.027,191.214 128.027,191.799 127.803 C 192.393 127.575,192.498 106.530,191.908 105.940 C 191.570 105.602,189.587 105.501,188.881 105.785 M200.057 105.940 C 199.802 106.195,199.713 109.000,199.713 116.786 C 199.713 128.371,199.648 127.980,201.564 127.973 C 203.708 127.965,203.587 128.636,203.587 116.786 C 203.587 107.643,203.526 106.110,203.156 105.876 C 202.543 105.489,200.466 105.531,200.057 105.940 M211.549 105.785 C 211.271 105.898,211.191 108.369,211.191 116.779 C 211.191 128.829,211.041 127.977,213.166 127.977 C 214.972 127.977,214.921 128.301,214.921 116.786 C 214.921 109.000,214.832 106.195,214.577 105.940 C 214.239 105.602,212.255 105.501,211.549 105.785 M237.934 105.940 C 237.679 106.195,237.590 109.000,237.590 116.786 C 237.590 128.471,237.501 127.977,239.598 127.977 C 241.696 127.977,241.607 128.471,241.607 116.786 C 241.607 109.000,241.518 106.195,241.263 105.940 C 240.816 105.493,238.380 105.493,237.934 105.940 M249.426 105.785 C 248.820 106.030,248.914 127.570,249.521 127.803 C 250.106 128.027,251.759 128.027,252.344 127.803 C 253.035 127.538,253.035 106.035,252.344 105.770 C 251.813 105.566,249.945 105.576,249.426 105.785 M260.603 105.940 C 260.013 106.530,260.118 127.575,260.712 127.803 C 261.581 128.136,263.374 127.977,263.825 127.526 C 264.506 126.845,264.506 106.727,263.825 106.046 C 263.288 105.509,261.105 105.437,260.603 105.940 M126.299 202.377 C 124.459 202.818,122.187 204.993,121.569 206.904 C 119.080 214.613,128.056 220.153,133.878 214.500 C 134.656 213.744,135.725 210.872,135.725 209.535 C 135.725 207.816,135.586 207.656,134.555 208.189 C 131.748 209.641,128.152 206.180,129.467 203.293 C 130.039 202.037,128.985 201.733,126.299 202.377 M257.389 267.001 C 257.389 267.258,257.125 267.432,256.735 267.432 C 256.375 267.432,255.895 267.690,255.667 268.006 C 255.440 268.321,255.088 268.580,254.886 268.580 C 254.685 268.580,254.519 268.830,254.519 269.137 C 254.519 269.443,254.390 269.773,254.232 269.871 C 253.417 270.375,254.063 276.614,254.930 276.614 C 255.195 276.614,255.954 277.373,255.954 277.638 C 255.954 277.750,256.180 278.014,256.456 278.223 C 257.067 278.687,263.128 278.789,263.128 278.336 C 263.128 278.178,263.321 278.049,263.558 278.049 C 263.795 278.049,263.989 277.915,263.989 277.752 C 263.989 277.589,264.440 277.004,264.993 276.451 L 265.997 275.447 265.997 272.766 C 265.997 270.733,265.893 269.998,265.567 269.727 C 265.330 269.531,265.136 269.251,265.136 269.105 C 265.136 268.623,263.737 267.432,263.171 267.432 C 262.866 267.432,262.541 267.238,262.450 267.001 C 262.321 266.665,261.748 266.571,259.837 266.571 C 257.852 266.571,257.389 266.652,257.389 267.001 M257.102 272.757 C 257.102 273.748,256.993 274.285,256.815 274.175 C 256.657 274.077,256.528 273.360,256.528 272.580 C 256.528 271.800,256.657 271.162,256.815 271.162 C 256.973 271.162,257.102 271.880,257.102 272.757 M263.128 273.314 C 263.128 273.709,262.999 274.032,262.841 274.032 C 262.683 274.032,262.554 273.709,262.554 273.314 C 262.554 272.920,262.683 272.597,262.841 272.597 C 262.999 272.597,263.128 272.920,263.128 273.314 M260.545 275.897 C 260.545 276.618,259.893 276.897,259.541 276.327 C 259.443 276.169,259.500 276.040,259.667 276.040 C 259.835 276.040,259.971 275.846,259.971 275.610 C 259.971 275.373,260.100 275.179,260.258 275.179 C 260.416 275.179,260.545 275.502,260.545 275.897 " stroke="none" fill="#2b54a4" fill-rule="evenodd"></path><path id="path1" d="M124.821 196.710 C 113.018 200.381,111.864 216.233,123.019 221.446 C 125.399 222.558,130.318 222.974,132.039 222.209 C 136.614 220.175,138.533 218.482,140.226 214.989 C 145.010 205.116,135.204 193.480,124.821 196.710 M129.669 201.984 C 129.990 202.187,130.010 202.476,129.768 203.429 C 129.001 206.451,131.593 209.003,134.321 207.912 C 135.814 207.315,135.873 207.385,135.844 209.710 C 135.720 219.504,121.043 219.409,120.967 209.613 C 120.929 204.751,126.427 199.932,129.669 201.984 M104.009 237.985 C 102.713 238.892,97.809 241.436,94.835 242.746 C 94.046 243.094,92.884 243.608,92.253 243.890 C 91.621 244.171,90.653 244.560,90.100 244.755 C 88.658 245.262,88.086 245.485,86.863 246.015 C 86.265 246.273,85.531 246.485,85.230 246.485 C 84.929 246.485,84.603 246.614,84.505 246.772 C 84.407 246.930,84.075 247.059,83.767 247.059 C 83.458 247.059,82.982 247.176,82.708 247.319 C 82.434 247.462,81.370 247.799,80.344 248.068 C 79.319 248.338,78.156 248.659,77.762 248.782 C 77.367 248.905,76.270 249.164,75.323 249.357 C 74.376 249.549,73.214 249.819,72.740 249.956 C 67.904 251.353,53.614 252.476,47.434 251.945 C 42.509 251.522,42.336 251.596,44.226 253.318 C 50.392 258.936,57.712 263.610,65.854 267.130 C 66.643 267.471,67.547 267.863,67.862 268.001 C 70.185 269.014,77.096 271.396,80.057 272.204 C 83.536 273.153,88.727 274.441,90.818 274.874 C 109.500 278.742,126.908 280.135,148.801 279.512 C 156.443 279.294,158.973 278.989,157.389 278.475 C 156.603 278.220,152.957 276.809,151.148 276.060 C 148.218 274.846,139.598 270.429,137.846 269.244 C 137.389 268.935,135.875 267.929,134.480 267.009 C 126.763 261.917,118.846 254.892,113.281 248.198 C 110.211 244.506,106.848 240.031,106.172 238.737 C 105.540 237.529,104.954 237.325,104.009 237.985 " stroke="none" fill="#f9fafb" fill-rule="evenodd"></path><path id="path2" d="M183.169 7.904 C 180.962 8.871,181.062 7.996,181.062 26.459 L 181.062 42.929 181.995 43.834 C 183.528 45.320,184.208 45.367,202.595 45.276 C 221.241 45.184,220.594 45.253,221.819 43.243 C 222.357 42.361,222.380 41.687,222.381 26.300 C 222.382 8.271,222.483 9.125,220.217 8.028 C 218.688 7.288,184.834 7.175,183.169 7.904 M191.799 15.382 C 192.393 15.610,192.498 36.655,191.908 37.245 C 191.546 37.608,189.748 37.712,188.976 37.415 C 188.368 37.182,188.275 15.642,188.881 15.398 C 189.400 15.189,191.268 15.178,191.799 15.382 M203.156 15.489 C 203.526 15.723,203.587 17.255,203.587 26.399 C 203.587 38.248,203.708 37.577,201.564 37.585 C 199.648 37.593,199.713 37.984,199.713 26.399 C 199.713 18.613,199.802 15.808,200.057 15.552 C 200.466 15.144,202.543 15.101,203.156 15.489 M214.577 15.552 C 214.832 15.808,214.921 18.613,214.921 26.399 C 214.921 37.914,214.972 37.590,213.166 37.590 C 211.041 37.590,211.191 38.442,211.191 26.392 C 211.191 17.981,211.271 15.510,211.549 15.398 C 212.255 15.113,214.239 15.214,214.577 15.552 M84.680 53.198 C 84.303 53.407,83.690 54.081,83.318 54.694 L 82.643 55.811 82.641 71.622 L 82.640 87.433 83.291 88.408 C 84.661 90.458,83.931 90.386,103.443 90.386 C 122.766 90.386,122.137 90.443,123.509 88.573 C 124.094 87.776,124.103 87.497,124.103 71.493 L 124.103 55.223 123.434 54.369 C 123.065 53.899,122.484 53.358,122.142 53.167 C 121.197 52.637,85.639 52.667,84.680 53.198 M134.410 53.076 C 131.994 54.053,131.947 54.441,132.051 72.453 C 132.146 88.719,132.112 88.388,133.809 89.644 C 135.059 90.570,170.034 90.732,171.523 89.819 C 173.686 88.492,173.599 89.254,173.600 71.565 C 173.601 54.090,173.641 54.486,171.775 53.348 C 170.804 52.757,135.829 52.502,134.410 53.076 M182.889 53.348 C 180.962 54.523,181.062 53.526,181.062 71.540 C 181.062 89.893,180.960 89.034,183.247 89.989 C 185.055 90.745,218.985 90.559,220.360 89.786 C 222.475 88.598,222.382 89.434,222.382 71.606 C 222.382 53.985,222.432 54.493,220.574 53.360 C 219.158 52.497,184.303 52.486,182.889 53.348 M93.185 60.439 L 93.831 60.612 93.831 71.613 L 93.831 82.614 92.804 82.806 C 92.226 82.915,91.475 82.861,91.083 82.682 L 90.387 82.365 90.387 71.613 C 90.387 59.347,90.307 59.668,93.185 60.439 M104.827 60.617 C 105.276 60.946,105.310 61.875,105.241 71.736 L 105.165 82.496 104.161 82.738 C 103.537 82.889,102.857 82.864,102.367 82.674 L 101.578 82.367 101.578 71.590 L 101.578 60.814 102.224 60.554 C 103.160 60.178,104.265 60.205,104.827 60.617 M115.854 60.439 L 116.499 60.612 116.499 71.593 L 116.499 82.573 115.854 82.746 C 112.785 83.568,112.769 83.511,112.769 71.593 C 112.769 59.674,112.785 59.617,115.854 60.439 M143.222 60.882 C 143.533 61.372,143.539 81.803,143.229 82.291 C 142.896 82.816,141.081 83.050,140.355 82.661 C 139.482 82.194,139.376 61.085,140.244 60.552 C 140.885 60.159,142.906 60.383,143.222 60.882 M154.108 60.555 C 155.023 61.045,154.967 82.170,154.050 82.661 C 153.323 83.050,151.508 82.816,151.175 82.291 C 150.884 81.833,150.862 61.381,151.152 60.947 C 151.603 60.272,153.187 60.063,154.108 60.555 M165.806 60.688 C 166.048 60.930,166.229 80.453,166.001 81.696 C 165.805 82.763,164.362 83.254,163.106 82.682 L 162.410 82.365 162.410 71.613 C 162.410 61.681,162.449 60.837,162.912 60.552 C 163.420 60.241,165.453 60.336,165.806 60.688 M191.697 60.555 C 192.564 61.019,192.564 82.166,191.697 82.630 C 190.987 83.010,189.788 83.010,189.077 82.630 C 188.256 82.190,188.206 61.045,189.024 60.568 C 189.679 60.187,190.997 60.180,191.697 60.555 M203.156 60.832 C 203.709 61.384,203.730 61.789,203.730 71.593 C 203.730 81.396,203.709 81.801,203.156 82.353 C 202.533 82.977,201.162 83.108,200.268 82.630 C 199.447 82.190,199.396 61.045,200.215 60.568 C 201.057 60.078,202.535 60.211,203.156 60.832 M214.366 60.555 C 215.232 61.019,215.232 82.166,214.366 82.630 C 213.655 83.010,212.456 83.010,211.746 82.630 C 210.924 82.190,210.873 60.670,211.693 60.456 C 212.625 60.213,213.808 60.256,214.366 60.555 M313.292 66.822 C 302.539 84.024,300.864 106.786,309.248 121.764 C 309.764 122.686,310.187 123.496,310.187 123.564 C 310.187 123.678,311.916 126.326,312.414 126.973 C 315.132 130.511,315.135 130.520,313.558 131.748 C 312.887 132.270,312.274 132.776,312.195 132.872 C 310.158 135.365,298.559 139.797,289.813 141.423 C 288.945 141.585,287.525 141.851,286.657 142.015 C 280.267 143.221,284.551 143.185,145.436 143.185 L 13.451 143.185 11.885 143.926 C 8.238 145.651,7.440 147.581,7.446 154.663 C 7.455 165.020,8.666 175.973,11.223 188.809 C 12.257 193.999,12.154 193.573,14.286 201.435 C 15.109 204.470,17.467 211.499,18.426 213.773 C 18.592 214.168,18.836 214.749,18.969 215.065 C 19.101 215.380,19.478 216.338,19.806 217.194 C 22.756 224.881,31.332 239.741,34.542 242.729 C 36.281 244.347,54.117 245.208,62.554 244.082 C 67.711 243.394,74.722 242.051,76.901 241.335 C 77.296 241.206,78.199 240.936,78.910 240.736 C 80.695 240.233,84.385 239.041,85.079 238.741 C 85.395 238.605,87.009 237.954,88.666 237.295 C 91.472 236.178,93.664 235.124,100.343 231.685 L 102.981 230.326 104.300 230.830 C 107.719 232.135,107.601 235.654,104.071 237.682 C 102.998 238.298,102.181 238.862,102.254 238.935 C 102.327 239.008,102.906 238.723,103.541 238.303 C 104.866 237.426,105.628 237.520,106.129 238.620 C 106.943 240.407,112.454 247.441,116.212 251.490 C 121.696 257.399,127.890 262.660,134.480 267.009 C 135.875 267.929,137.389 268.935,137.846 269.244 C 139.598 270.429,148.218 274.846,151.148 276.060 C 152.957 276.809,156.603 278.220,157.389 278.475 C 161.951 279.955,130.390 279.981,113.917 278.511 C 112.361 278.372,112.232 278.391,113.139 278.625 C 117.922 279.858,155.919 280.363,158.770 279.230 C 159.215 279.054,160.239 278.910,161.047 278.910 C 161.854 278.910,163.686 278.778,165.117 278.618 C 166.548 278.457,169.010 278.185,170.588 278.013 C 172.166 277.841,174.232 277.577,175.179 277.426 C 176.126 277.275,177.740 277.031,178.766 276.884 C 183.279 276.237,188.084 275.379,191.607 274.591 C 196.527 273.491,202.424 272.046,204.591 271.411 C 205.617 271.110,206.908 270.738,207.461 270.585 C 211.569 269.446,222.371 265.783,225.108 264.600 C 225.423 264.464,226.004 264.219,226.399 264.056 C 226.793 263.892,227.746 263.479,228.515 263.138 C 229.284 262.797,230.576 262.258,231.384 261.941 C 255.232 252.590,282.696 230.682,300.041 207.174 C 303.689 202.229,310.187 192.586,310.187 192.116 C 310.187 192.037,310.768 191.065,311.478 189.957 C 312.188 188.849,312.769 187.902,312.769 187.853 C 312.769 187.804,313.655 186.219,314.737 184.330 C 317.418 179.649,322.808 168.789,325.259 163.128 C 325.464 162.654,325.953 161.557,326.345 160.689 C 326.737 159.821,327.406 158.271,327.832 157.245 C 328.257 156.220,328.779 154.993,328.991 154.519 C 329.203 154.046,330.292 151.333,331.411 148.491 L 333.446 143.323 341.544 143.313 C 351.092 143.301,355.506 142.689,362.410 140.423 C 364.825 139.630,364.655 139.700,368.580 137.884 C 377.581 133.719,385.918 125.638,390.416 116.719 C 391.798 113.977,391.782 113.942,388.208 112.135 C 380.310 108.140,365.586 106.165,354.459 107.607 C 349.069 108.306,347.464 108.555,344.763 109.114 C 343.185 109.440,341.506 109.718,341.033 109.732 L 340.172 109.756 339.991 106.887 C 338.976 90.850,330.334 75.989,316.255 66.069 C 314.529 64.852,314.522 64.854,313.292 66.822 M36.246 98.406 C 34.063 99.396,34.146 98.668,34.146 116.868 L 34.146 133.046 35.118 134.170 L 36.089 135.294 54.768 135.294 L 73.447 135.294 74.385 134.356 L 75.323 133.418 75.323 116.804 L 75.323 100.190 74.605 99.412 C 73.138 97.822,73.468 97.847,54.744 97.854 C 38.372 97.860,37.382 97.890,36.246 98.406 M84.852 98.448 C 82.546 99.665,82.642 98.873,82.641 116.582 C 82.640 131.605,82.665 132.353,83.199 133.401 C 84.275 135.509,83.555 135.438,103.659 135.438 L 121.579 135.438 122.554 134.781 C 124.268 133.628,124.274 133.565,124.184 116.220 C 124.093 98.639,124.210 99.574,121.958 98.425 C 120.199 97.528,86.556 97.548,84.852 98.448 M134.146 98.507 C 132.074 99.680,132.147 99.056,132.059 116.466 C 131.970 134.092,131.953 133.947,134.144 134.987 C 135.769 135.758,171.269 135.533,172.139 134.746 C 173.620 133.404,173.601 133.642,173.601 116.641 L 173.601 100.802 172.950 99.827 C 171.580 97.777,172.312 97.848,152.798 97.853 L 135.294 97.857 134.146 98.507 M183.042 98.419 C 180.958 99.521,181.062 98.564,181.062 116.660 C 181.062 131.462,181.105 132.984,181.551 133.739 C 182.576 135.473,182.153 135.438,201.765 135.433 C 221.267 135.429,220.549 135.490,221.727 133.741 L 222.382 132.770 222.382 116.622 L 222.382 100.474 221.606 99.553 C 220.137 97.807,220.612 97.847,201.516 97.861 C 184.938 97.873,184.023 97.900,183.042 98.419 M232.445 98.351 C 230.146 99.523,230.273 98.451,230.273 116.758 L 230.273 133.043 231.047 134.058 C 232.126 135.473,231.604 135.438,251.140 135.438 C 270.500 135.438,270.079 135.476,271.103 133.605 C 271.548 132.793,271.593 131.248,271.593 116.643 L 271.593 100.574 270.904 99.609 C 269.621 97.809,270.061 97.848,250.870 97.848 C 234.832 97.849,233.350 97.889,232.445 98.351 M45.194 116.786 L 45.194 127.834 43.808 127.922 C 41.490 128.070,41.607 128.660,41.607 116.808 C 41.607 104.973,41.501 105.522,43.757 105.655 L 45.194 105.739 45.194 116.786 M56.385 116.786 L 56.385 127.834 54.959 127.924 C 52.721 128.065,52.798 128.456,52.798 116.856 C 52.798 105.200,52.736 105.528,54.896 105.653 L 56.385 105.739 56.385 116.786 M67.661 105.940 C 68.251 106.530,68.146 127.575,67.552 127.803 C 66.780 128.099,64.982 127.995,64.620 127.633 C 64.126 127.139,64.126 106.434,64.620 105.940 C 64.809 105.750,65.494 105.595,66.141 105.595 C 66.788 105.595,67.472 105.750,67.661 105.940 M93.687 116.786 L 93.687 127.834 92.109 127.834 L 90.531 127.834 90.456 117.074 C 90.368 104.591,90.225 105.540,92.178 105.652 L 93.687 105.739 93.687 116.786 M105.134 106.049 C 105.230 106.299,105.308 111.131,105.308 116.786 C 105.308 122.442,105.230 127.274,105.134 127.523 C 104.922 128.077,102.451 128.162,101.923 127.633 C 101.429 127.139,101.429 106.434,101.923 105.940 C 102.451 105.411,104.922 105.495,105.134 106.049 M116.356 116.786 L 116.356 127.834 114.848 127.920 C 112.739 128.042,112.769 128.201,112.769 116.786 C 112.769 105.372,112.739 105.531,114.848 105.652 L 116.356 105.739 116.356 116.786 M143.128 105.940 C 143.641 106.453,143.618 126.806,143.104 127.510 C 142.820 127.898,142.409 127.993,141.310 127.924 L 139.885 127.834 139.810 117.074 C 139.769 111.157,139.797 106.153,139.873 105.955 C 140.052 105.489,142.664 105.476,143.128 105.940 M154.519 116.786 L 154.519 127.834 153.134 127.922 C 150.816 128.070,150.933 128.660,150.933 116.808 C 150.933 104.973,150.827 105.522,153.083 105.655 L 154.519 105.739 154.519 116.786 M165.844 106.150 C 166.310 107.023,166.244 126.865,165.772 127.510 C 165.489 127.898,165.078 127.993,163.979 127.924 L 162.554 127.834 162.479 117.074 C 162.437 111.157,162.465 106.153,162.541 105.955 C 162.781 105.330,165.490 105.490,165.844 106.150 M191.908 105.940 C 192.498 106.530,192.393 127.575,191.799 127.803 C 191.214 128.027,189.561 128.027,188.976 127.803 C 188.368 127.570,188.275 106.030,188.881 105.785 C 189.587 105.501,191.570 105.602,191.908 105.940 M203.156 105.876 C 203.526 106.110,203.587 107.643,203.587 116.786 C 203.587 128.636,203.708 127.965,201.564 127.973 C 199.648 127.980,199.713 128.371,199.713 116.786 C 199.713 109.000,199.802 106.195,200.057 105.940 C 200.466 105.531,202.543 105.489,203.156 105.876 M214.577 105.940 C 214.832 106.195,214.921 109.000,214.921 116.786 C 214.921 128.301,214.972 127.977,213.166 127.977 C 211.041 127.977,211.191 128.829,211.191 116.779 C 211.191 108.369,211.271 105.898,211.549 105.785 C 212.255 105.501,214.239 105.602,214.577 105.940 M241.263 105.940 C 241.518 106.195,241.607 109.000,241.607 116.786 C 241.607 128.471,241.696 127.977,239.598 127.977 C 237.501 127.977,237.590 128.471,237.590 116.786 C 237.590 109.000,237.679 106.195,237.934 105.940 C 238.380 105.493,240.816 105.493,241.263 105.940 M252.344 105.770 C 253.035 106.035,253.035 127.538,252.344 127.803 C 251.759 128.027,250.106 128.027,249.521 127.803 C 248.914 127.570,248.820 106.030,249.426 105.785 C 249.945 105.576,251.813 105.566,252.344 105.770 M263.825 106.046 C 264.506 106.727,264.506 126.845,263.825 127.526 C 263.374 127.977,261.581 128.136,260.712 127.803 C 260.118 127.575,260.013 106.530,260.603 105.940 C 261.105 105.437,263.288 105.509,263.825 106.046 M131.912 196.715 C 141.595 199.857,144.662 211.620,137.652 218.728 C 136.355 220.044,134.953 220.913,132.039 222.209 C 128.772 223.661,122.276 221.912,119.146 218.738 C 109.748 209.209,119.354 192.640,131.912 196.715 M126.235 202.110 C 123.705 202.922,121.054 205.748,121.108 207.576 C 121.118 207.907,121.332 207.559,121.585 206.802 C 122.273 204.735,124.522 202.785,126.766 202.309 C 128.878 201.861,129.835 202.087,129.555 202.969 C 128.840 205.217,129.517 207.064,131.413 208.031 C 132.759 208.717,133.465 208.753,134.555 208.189 C 135.000 207.959,135.446 207.851,135.545 207.950 C 135.644 208.049,135.725 207.979,135.725 207.795 C 135.725 207.366,135.673 207.371,134.291 207.924 C 131.593 209.004,129.005 206.432,129.768 203.429 C 130.203 201.713,128.942 201.242,126.235 202.110 M120.882 209.469 C 120.882 210.179,120.938 210.470,121.006 210.115 C 121.074 209.760,121.074 209.179,121.006 208.824 C 120.938 208.468,120.882 208.759,120.882 209.469 M135.803 209.469 C 135.803 210.179,135.859 210.470,135.927 210.115 C 135.995 209.760,135.995 209.179,135.927 208.824 C 135.859 208.468,135.803 208.759,135.803 209.469 M121.112 211.478 C 121.110 211.872,121.298 212.446,121.530 212.752 C 122.049 213.439,122.049 213.352,121.529 211.908 C 121.201 210.997,121.115 210.908,121.112 211.478 M134.902 212.664 C 134.538 213.457,134.294 214.160,134.360 214.226 C 134.426 214.292,134.781 213.701,135.151 212.912 C 135.520 212.124,135.764 211.421,135.693 211.350 C 135.622 211.279,135.266 211.870,134.902 212.664 M122.238 213.916 C 123.136 215.109,125.023 216.536,125.315 216.244 C 125.412 216.148,125.354 216.069,125.186 216.069 C 125.019 216.069,124.191 215.456,123.345 214.706 C 122.500 213.957,122.001 213.602,122.238 213.916 M133.716 214.566 C 133.716 214.687,133.205 215.101,132.580 215.487 C 131.956 215.873,131.492 216.236,131.550 216.294 C 131.714 216.458,134.003 214.874,134.003 214.596 C 134.003 214.459,133.938 214.347,133.859 214.347 C 133.780 214.347,133.716 214.446,133.716 214.566 M126.399 216.770 C 126.872 217.001,127.776 217.191,128.407 217.191 C 129.039 217.191,129.943 217.001,130.416 216.770 C 131.109 216.432,131.137 216.388,130.560 216.545 C 130.165 216.653,129.197 216.741,128.407 216.741 C 127.618 216.741,126.650 216.653,126.255 216.545 C 125.678 216.388,125.706 216.432,126.399 216.770 M98.259 240.728 C 96.513 241.627,94.527 242.586,93.848 242.858 C 93.168 243.130,92.676 243.417,92.756 243.497 C 92.977 243.718,101.041 239.925,101.707 239.286 C 102.265 238.751,101.372 239.124,98.259 240.728 M91.423 243.852 C 91.343 243.982,90.753 244.261,90.113 244.472 C 89.473 244.683,89.005 244.912,89.073 244.979 C 89.236 245.143,91.239 244.451,91.958 243.984 C 92.431 243.676,92.445 243.615,92.046 243.615 C 91.784 243.615,91.503 243.722,91.423 243.852 M86.083 245.904 C 85.846 246.039,84.684 246.444,83.501 246.803 C 82.283 247.173,81.580 247.507,81.881 247.572 C 82.174 247.635,82.555 247.545,82.728 247.373 C 82.900 247.200,83.331 247.059,83.685 247.059 C 84.038 247.059,84.407 246.930,84.505 246.772 C 84.603 246.614,84.965 246.480,85.311 246.475 C 85.657 246.469,86.263 246.280,86.657 246.055 C 87.062 245.823,87.187 245.647,86.944 245.651 C 86.707 245.655,86.320 245.769,86.083 245.904 M79.973 247.813 C 79.874 247.912,79.304 248.096,78.706 248.221 C 76.372 248.713,73.342 249.580,73.855 249.610 C 74.152 249.627,74.927 249.502,75.576 249.332 C 76.226 249.161,77.274 248.887,77.905 248.723 C 80.104 248.150,81.361 247.678,80.751 247.655 C 80.422 247.643,80.072 247.714,79.973 247.813 M71.671 249.802 C 71.501 249.972,70.002 250.214,63.702 251.091 C 61.066 251.457,60.516 251.585,61.980 251.491 C 66.920 251.172,75.283 249.726,72.573 249.660 C 72.165 249.650,71.759 249.714,71.671 249.802 M42.468 251.904 C 42.468 252.044,43.416 252.980,44.575 253.984 C 47.429 256.457,47.881 256.832,49.211 257.824 C 49.842 258.295,50.590 258.889,50.874 259.144 C 51.158 259.399,51.836 259.848,52.381 260.142 C 52.926 260.436,53.372 260.775,53.372 260.897 C 53.372 261.019,53.499 261.119,53.656 261.119 C 53.812 261.119,54.813 261.678,55.879 262.362 C 56.946 263.045,59.498 264.415,61.549 265.407 C 63.601 266.399,65.504 267.324,65.778 267.464 C 66.052 267.604,66.439 267.716,66.639 267.712 C 66.838 267.709,66.549 267.493,65.997 267.232 C 59.315 264.082,57.289 262.990,53.372 260.424 C 49.172 257.673,42.568 252.220,42.960 251.827 C 43.058 251.730,42.987 251.650,42.802 251.650 C 42.618 251.650,42.468 251.764,42.468 251.904 M48.675 252.009 C 50.699 252.182,53.012 252.181,54.988 252.008 C 57.947 251.747,57.785 251.734,51.793 251.735 C 45.749 251.736,45.617 251.748,48.675 252.009 M69.154 268.776 C 69.706 269.021,70.382 269.336,70.656 269.475 C 70.930 269.614,71.382 269.722,71.660 269.715 C 71.939 269.709,71.402 269.386,70.468 268.998 C 68.627 268.234,67.509 268.045,69.154 268.776 M74.462 270.742 C 74.935 270.959,75.541 271.142,75.808 271.149 C 76.075 271.156,76.373 271.291,76.471 271.449 C 76.568 271.607,76.995 271.731,77.420 271.724 C 77.939 271.716,77.534 271.483,76.184 271.014 C 74.003 270.256,73.084 270.111,74.462 270.742 M78.479 272.023 C 78.577 272.181,78.939 272.301,79.285 272.290 C 79.891 272.270,79.893 272.261,79.340 272.023 C 78.550 271.684,78.269 271.684,78.479 272.023 M80.879 272.727 C 81.410 272.971,82.047 273.171,82.294 273.171 C 82.541 273.171,83.139 273.291,83.624 273.438 C 86.153 274.206,86.913 274.377,87.269 274.258 C 87.484 274.186,86.240 273.773,84.504 273.341 C 80.160 272.258,79.684 272.177,80.879 272.727 M88.379 274.624 C 89.267 275.014,91.542 275.477,93.257 275.617 L 94.548 275.722 93.400 275.453 C 89.367 274.508,87.357 274.177,88.379 274.624 M94.978 276.040 C 95.215 276.193,95.861 276.305,96.413 276.289 L 97.418 276.259 96.557 276.040 C 95.211 275.698,94.449 275.698,94.978 276.040 M97.900 276.458 C 98.164 276.745,102.708 277.484,105.022 277.617 L 106.887 277.725 105.308 277.470 C 104.440 277.329,102.891 277.086,101.865 276.930 C 100.839 276.773,99.484 276.555,98.852 276.445 C 98.221 276.336,97.792 276.341,97.900 276.458 M107.461 278.049 C 107.776 278.184,108.680 278.290,109.469 278.283 L 110.904 278.270 109.756 278.032 C 108.152 277.701,106.675 277.711,107.461 278.049 " stroke="none" fill="#2493eb" fill-rule="evenodd"></path></g></svg>