<svg id="svg" version="1.1" xmlns="http://www.w3.org/2000/svg" xmlns:xlink="http://www.w3.org/1999/xlink" width="400" height="400" viewBox="0, 0, 400,400"><g id="svgg"><path id="path0" d="M194.400 218.000 C 194.400 218.220,193.680 218.400,192.800 218.400 C 191.920 218.400,191.200 218.580,191.200 218.800 C 191.200 219.020,190.851 219.200,190.424 219.200 C 189.997 219.200,189.536 219.380,189.400 219.600 C 189.264 219.820,188.713 220.000,188.176 220.000 C 187.639 220.000,187.200 220.180,187.200 220.400 C 187.200 220.620,186.928 220.800,186.596 220.800 C 186.264 220.800,185.428 221.340,184.737 222.000 C 184.046 222.660,183.325 223.200,183.134 223.200 C 181.254 223.200,174.800 232.052,174.800 234.632 C 174.800 235.164,174.620 235.600,174.400 235.600 C 174.180 235.600,174.000 236.399,174.000 237.376 C 174.000 238.353,173.820 239.264,173.600 239.400 C 173.375 239.539,173.200 241.463,173.200 243.800 C 173.200 246.137,173.375 248.061,173.600 248.200 C 173.820 248.336,174.000 249.247,174.000 250.224 C 174.000 251.201,174.180 252.000,174.400 252.000 C 174.620 252.000,174.800 252.349,174.800 252.776 C 174.800 253.203,174.980 253.664,175.200 253.800 C 175.420 253.936,175.600 254.342,175.600 254.702 C 175.600 256.163,182.040 263.600,183.304 263.600 C 183.590 263.600,184.083 263.960,184.400 264.400 C 184.717 264.840,185.257 265.200,185.600 265.200 C 185.943 265.200,186.483 265.560,186.800 266.000 C 187.117 266.440,187.697 266.800,188.088 266.800 C 188.480 266.800,188.800 266.980,188.800 267.200 C 188.800 267.420,189.036 267.600,189.325 267.600 C 189.613 267.600,190.236 267.960,190.708 268.400 C 191.180 268.840,191.844 269.200,192.183 269.200 C 192.522 269.200,192.800 269.380,192.800 269.600 C 192.800 269.820,193.070 270.000,193.400 270.000 C 193.730 270.000,194.001 270.135,194.003 270.300 C 194.005 270.465,194.410 270.798,194.903 271.040 C 196.885 272.013,199.412 273.414,199.600 273.644 C 199.949 274.071,202.339 275.200,202.892 275.200 C 203.184 275.200,203.683 275.560,204.000 276.000 C 204.317 276.440,204.819 276.800,205.114 276.800 C 205.571 276.800,208.501 279.605,209.800 281.287 C 210.731 282.492,212.000 285.170,212.000 285.931 C 212.000 286.383,212.180 286.864,212.400 287.000 C 212.620 287.136,212.800 288.137,212.800 289.224 C 212.800 290.311,212.620 291.200,212.400 291.200 C 212.180 291.200,212.000 291.632,212.000 292.159 C 212.000 294.007,209.123 298.118,207.096 299.168 C 206.493 299.480,206.000 299.885,206.000 300.068 C 206.000 300.250,205.460 300.400,204.800 300.400 C 204.140 300.400,203.600 300.580,203.600 300.800 C 203.600 301.020,203.060 301.200,202.400 301.200 C 201.740 301.200,201.200 301.380,201.200 301.600 C 201.200 301.844,199.333 302.000,196.400 302.000 C 193.467 302.000,191.600 301.844,191.600 301.600 C 191.600 301.380,190.981 301.200,190.224 301.200 C 189.467 301.200,188.736 301.020,188.600 300.800 C 188.464 300.580,187.733 300.400,186.976 300.400 C 186.219 300.400,185.600 300.220,185.600 300.000 C 185.600 299.780,185.240 299.600,184.800 299.600 C 184.360 299.600,184.000 299.420,184.000 299.200 C 184.000 298.980,183.561 298.800,183.024 298.800 C 182.487 298.800,181.936 298.620,181.800 298.400 C 181.664 298.180,181.203 298.000,180.776 298.000 C 180.349 298.000,180.000 297.820,180.000 297.600 C 180.000 297.380,179.640 297.200,179.200 297.200 C 178.760 297.200,178.400 297.020,178.400 296.800 C 178.400 296.355,177.208 296.269,176.233 296.643 C 175.885 296.776,175.600 297.316,175.600 297.843 C 175.600 298.369,175.420 298.800,175.200 298.800 C 174.980 298.800,174.800 299.160,174.800 299.600 C 174.800 300.040,174.620 300.400,174.400 300.400 C 174.180 300.400,174.000 300.760,174.000 301.200 C 174.000 301.640,173.820 302.000,173.600 302.000 C 173.380 302.000,173.200 302.439,173.200 302.976 C 173.200 303.513,173.020 304.064,172.800 304.200 C 172.072 304.650,172.352 306.331,173.200 306.600 C 173.640 306.740,174.000 307.004,174.000 307.187 C 174.000 307.371,174.809 307.854,175.799 308.260 C 176.788 308.667,177.598 309.135,177.599 309.300 C 177.599 309.465,177.960 309.600,178.400 309.600 C 178.840 309.600,179.200 309.780,179.200 310.000 C 179.200 310.220,179.560 310.400,180.000 310.400 C 180.440 310.400,180.800 310.580,180.800 310.800 C 180.800 311.020,181.160 311.200,181.600 311.200 C 182.040 311.200,182.400 311.380,182.400 311.600 C 182.400 311.820,182.760 312.000,183.200 312.000 C 183.640 312.000,184.000 312.180,184.000 312.400 C 184.000 312.620,184.720 312.800,185.600 312.800 C 186.480 312.800,187.200 312.980,187.200 313.200 C 187.200 313.420,187.740 313.600,188.400 313.600 C 189.060 313.600,189.600 313.780,189.600 314.000 C 189.600 314.220,190.489 314.400,191.576 314.400 C 192.663 314.400,193.664 314.580,193.800 314.800 C 193.943 315.032,196.130 315.200,199.000 315.200 C 201.870 315.200,204.057 315.032,204.200 314.800 C 204.336 314.580,205.236 314.400,206.200 314.400 C 207.164 314.400,208.064 314.220,208.200 314.000 C 208.336 313.780,209.067 313.600,209.824 313.600 C 210.581 313.600,211.200 313.420,211.200 313.200 C 211.200 312.980,211.740 312.800,212.400 312.800 C 213.060 312.800,213.600 312.620,213.600 312.400 C 213.600 312.180,213.960 312.000,214.400 312.000 C 214.840 312.000,215.200 311.820,215.200 311.600 C 215.200 311.380,215.560 311.200,216.000 311.200 C 216.440 311.200,216.800 311.020,216.800 310.800 C 216.800 310.580,217.120 310.400,217.512 310.400 C 217.903 310.400,218.483 310.040,218.800 309.600 C 219.117 309.160,219.615 308.800,219.906 308.800 C 220.639 308.800,224.626 304.778,224.972 303.690 C 225.127 303.200,225.422 302.800,225.627 302.800 C 225.832 302.800,226.000 302.522,226.000 302.183 C 226.000 301.844,226.360 301.180,226.800 300.708 C 227.240 300.236,227.600 299.433,227.600 298.925 C 227.600 298.416,227.780 298.000,228.000 298.000 C 228.220 298.000,228.400 297.640,228.400 297.200 C 228.400 296.760,228.580 296.400,228.800 296.400 C 229.020 296.400,229.200 295.680,229.200 294.800 C 229.200 293.920,229.380 293.200,229.600 293.200 C 229.849 293.200,230.000 290.875,230.000 287.024 C 230.000 283.337,229.839 280.748,229.600 280.600 C 229.380 280.464,229.200 279.733,229.200 278.976 C 229.200 278.219,229.020 277.600,228.800 277.600 C 228.580 277.600,228.400 277.240,228.400 276.800 C 228.400 276.360,228.220 276.000,228.000 276.000 C 227.780 276.000,227.600 275.730,227.600 275.400 C 227.600 275.070,227.420 274.800,227.200 274.800 C 226.980 274.800,226.800 274.524,226.800 274.186 C 226.800 273.484,226.093 272.636,222.280 268.763 C 220.784 267.243,219.299 266.000,218.980 266.000 C 218.661 266.000,218.400 265.820,218.400 265.600 C 218.400 265.380,218.040 265.200,217.600 265.200 C 217.160 265.200,216.800 265.020,216.800 264.800 C 216.800 264.580,216.480 264.400,216.088 264.400 C 215.697 264.400,215.117 264.040,214.800 263.600 C 214.483 263.160,213.903 262.800,213.512 262.800 C 213.120 262.800,212.800 262.620,212.800 262.400 C 212.800 262.180,212.522 262.000,212.183 262.000 C 211.844 262.000,211.180 261.640,210.708 261.200 C 210.236 260.760,209.613 260.400,209.325 260.400 C 209.036 260.400,208.800 260.260,208.800 260.090 C 208.800 259.919,207.992 259.424,207.004 258.990 C 206.016 258.555,205.206 258.065,205.204 257.900 C 205.202 257.735,204.840 257.600,204.400 257.600 C 203.960 257.600,203.600 257.420,203.600 257.200 C 203.600 256.980,203.280 256.800,202.888 256.800 C 202.497 256.800,201.917 256.440,201.600 256.000 C 201.283 255.560,200.703 255.200,200.312 255.200 C 199.920 255.200,199.600 255.020,199.600 254.800 C 199.600 254.580,199.312 254.400,198.960 254.400 C 198.609 254.400,197.817 253.860,197.200 253.200 C 196.583 252.540,195.926 252.000,195.740 252.000 C 195.168 251.999,193.200 250.139,193.200 249.600 C 193.200 249.322,192.873 248.803,192.472 248.447 C 188.255 244.697,191.768 231.600,196.991 231.600 C 197.546 231.600,198.000 231.420,198.000 231.200 C 198.000 230.980,198.799 230.800,199.776 230.800 C 200.753 230.800,201.664 230.620,201.800 230.400 C 201.936 230.180,202.937 230.000,204.024 230.000 C 205.111 230.000,206.000 230.180,206.000 230.400 C 206.000 230.631,207.267 230.800,209.000 230.800 C 210.733 230.800,212.000 230.969,212.000 231.200 C 212.000 231.420,212.540 231.600,213.200 231.600 C 213.860 231.600,214.400 231.780,214.400 232.000 C 214.400 232.220,214.940 232.400,215.600 232.400 C 216.260 232.400,216.800 232.580,216.800 232.800 C 216.800 233.020,217.340 233.200,218.000 233.200 C 218.660 233.200,219.200 233.391,219.200 233.624 C 219.200 233.868,219.821 233.996,220.665 233.924 C 222.257 233.789,221.968 234.286,224.653 227.056 C 225.261 225.418,225.074 224.000,224.248 224.000 C 223.975 224.000,223.364 223.640,222.892 223.200 C 222.420 222.760,221.882 222.400,221.696 222.400 C 221.103 222.400,219.206 221.411,219.203 221.100 C 219.201 220.935,218.851 220.800,218.424 220.800 C 217.997 220.800,217.536 220.620,217.400 220.400 C 217.264 220.180,216.713 220.000,216.176 220.000 C 215.639 220.000,215.200 219.820,215.200 219.600 C 215.200 219.380,214.660 219.200,214.000 219.200 C 213.340 219.200,212.800 219.020,212.800 218.800 C 212.800 218.580,212.080 218.400,211.200 218.400 C 210.320 218.400,209.600 218.220,209.600 218.000 C 209.600 217.747,206.800 217.600,202.000 217.600 C 197.200 217.600,194.400 217.747,194.400 218.000 M263.800 218.000 C 263.664 218.220,262.944 218.400,262.200 218.400 C 261.456 218.400,260.736 218.580,260.600 218.800 C 260.464 219.020,259.913 219.200,259.376 219.200 C 258.839 219.200,258.400 219.380,258.400 219.600 C 258.400 219.820,258.040 220.000,257.600 220.000 C 257.160 220.000,256.800 220.180,256.800 220.400 C 256.800 220.620,256.566 220.800,256.280 220.800 C 255.544 220.800,253.607 221.741,253.603 222.100 C 253.601 222.265,253.365 222.400,253.078 222.400 C 252.791 222.400,251.846 223.054,250.978 223.853 C 250.110 224.652,248.725 225.734,247.900 226.258 C 247.075 226.781,246.400 227.406,246.400 227.645 C 246.400 227.884,245.894 228.556,245.275 229.140 C 243.818 230.514,242.000 233.214,242.000 234.005 C 242.000 234.345,241.640 234.883,241.200 235.200 C 240.760 235.517,240.400 236.097,240.400 236.488 C 240.400 236.880,240.220 237.200,240.000 237.200 C 239.780 237.200,239.600 237.740,239.600 238.400 C 239.600 239.060,239.420 239.600,239.200 239.600 C 238.980 239.600,238.800 239.960,238.800 240.400 C 238.800 240.840,238.620 241.200,238.400 241.200 C 238.180 241.200,238.000 241.819,238.000 242.576 C 238.000 243.333,237.820 244.064,237.600 244.200 C 237.380 244.336,237.200 245.146,237.200 246.000 C 237.200 246.854,237.020 247.664,236.800 247.800 C 236.580 247.936,236.400 248.757,236.400 249.624 C 236.400 250.491,236.220 251.200,236.000 251.200 C 235.775 251.200,235.600 252.325,235.600 253.776 C 235.600 255.193,235.420 256.464,235.200 256.600 C 234.949 256.755,234.800 260.996,234.800 268.000 C 234.800 275.004,234.949 279.245,235.200 279.400 C 235.420 279.536,235.600 280.807,235.600 282.224 C 235.600 283.675,235.775 284.800,236.000 284.800 C 236.220 284.800,236.400 285.599,236.400 286.576 C 236.400 287.553,236.580 288.464,236.800 288.600 C 237.020 288.736,237.200 289.456,237.200 290.200 C 237.200 290.944,237.380 291.664,237.600 291.800 C 237.820 291.936,238.000 292.667,238.000 293.424 C 238.000 294.181,238.180 294.800,238.400 294.800 C 238.620 294.800,238.800 295.160,238.800 295.600 C 238.800 296.040,238.980 296.400,239.200 296.400 C 239.420 296.400,239.600 296.816,239.600 297.325 C 239.600 297.833,239.960 298.636,240.400 299.108 C 240.840 299.580,241.200 300.244,241.200 300.583 C 241.200 300.922,241.360 301.200,241.557 301.200 C 241.753 301.200,242.016 301.605,242.141 302.100 C 242.498 303.511,248.636 309.600,249.701 309.600 C 249.988 309.600,250.483 309.960,250.800 310.400 C 251.117 310.840,251.697 311.200,252.088 311.200 C 252.480 311.200,252.800 311.380,252.800 311.600 C 252.800 311.820,253.160 312.000,253.600 312.000 C 254.040 312.000,254.400 312.180,254.400 312.400 C 254.400 312.620,254.940 312.800,255.600 312.800 C 256.260 312.800,256.800 312.980,256.800 313.200 C 256.800 313.420,257.340 313.600,258.000 313.600 C 258.660 313.600,259.200 313.780,259.200 314.000 C 259.200 314.220,260.089 314.400,261.176 314.400 C 262.263 314.400,263.264 314.580,263.400 314.800 C 263.549 315.040,266.271 315.200,270.224 315.200 C 274.341 315.200,276.800 315.050,276.800 314.800 C 276.800 314.580,277.700 314.400,278.800 314.400 C 279.900 314.400,280.800 314.220,280.800 314.000 C 280.800 313.780,281.160 313.600,281.600 313.600 C 282.040 313.600,282.400 313.780,282.400 314.000 C 282.400 314.220,282.636 314.400,282.925 314.400 C 283.213 314.400,283.836 314.760,284.308 315.200 C 284.780 315.640,285.404 316.000,285.695 316.000 C 285.986 316.000,286.483 316.360,286.800 316.800 C 287.117 317.240,287.697 317.600,288.088 317.600 C 288.480 317.600,288.800 317.780,288.800 318.000 C 288.800 318.220,289.036 318.400,289.325 318.400 C 289.613 318.400,290.198 318.715,290.625 319.100 C 291.051 319.485,291.940 320.070,292.600 320.400 C 293.260 320.730,294.149 321.315,294.575 321.700 C 295.002 322.085,295.509 322.400,295.703 322.400 C 295.897 322.400,296.808 322.915,297.728 323.545 C 298.648 324.175,299.805 324.817,300.300 324.972 C 300.795 325.127,301.200 325.422,301.200 325.627 C 301.200 325.832,301.965 326.000,302.901 326.000 C 304.595 326.000,304.605 325.991,305.771 323.500 C 306.414 322.125,307.064 320.910,307.214 320.800 C 307.681 320.460,308.800 318.073,308.800 317.420 C 308.800 317.079,308.980 316.800,309.200 316.800 C 309.420 316.800,309.600 316.080,309.600 315.200 C 309.600 313.849,309.471 313.600,308.772 313.600 C 308.317 313.600,307.192 313.095,306.272 312.478 C 304.247 311.120,298.583 308.400,297.779 308.400 C 297.460 308.400,297.200 308.220,297.200 308.000 C 297.200 307.780,296.917 307.600,296.571 307.600 C 294.776 307.600,294.691 306.442,296.369 304.829 C 297.266 303.968,298.000 303.051,298.000 302.792 C 298.000 302.533,298.540 301.817,299.200 301.200 C 299.860 300.583,300.400 299.791,300.400 299.440 C 300.400 299.088,300.543 298.800,300.719 298.800 C 301.205 298.800,303.869 293.331,304.811 290.400 C 306.084 286.440,306.374 285.022,307.675 276.400 C 308.241 272.646,308.235 256.418,307.665 252.400 C 307.107 248.459,306.551 245.372,306.046 243.400 C 305.820 242.520,305.514 241.260,305.364 240.600 C 305.215 239.940,304.969 239.220,304.818 239.000 C 304.668 238.780,304.294 237.790,303.989 236.800 C 303.683 235.810,303.327 234.910,303.196 234.800 C 303.065 234.690,302.644 233.924,302.260 233.099 C 301.876 232.273,301.120 231.156,300.581 230.617 C 300.041 230.078,299.600 229.434,299.600 229.187 C 299.600 228.503,293.872 223.200,293.133 223.200 C 292.892 223.200,292.403 222.871,292.047 222.470 C 291.691 222.068,290.815 221.484,290.100 221.172 C 289.385 220.860,288.800 220.469,288.800 220.302 C 288.800 220.136,288.451 220.000,288.024 220.000 C 287.597 220.000,287.136 219.820,287.000 219.600 C 286.864 219.380,286.313 219.200,285.776 219.200 C 285.239 219.200,284.800 219.020,284.800 218.800 C 284.800 218.580,284.091 218.400,283.224 218.400 C 282.357 218.400,281.536 218.220,281.400 218.000 C 281.248 217.754,277.870 217.600,272.600 217.600 C 267.330 217.600,263.952 217.754,263.800 218.000 M319.200 265.992 L 319.200 313.600 341.400 313.600 L 363.600 313.600 363.600 307.000 L 363.600 300.400 349.602 300.400 L 335.604 300.400 335.502 259.500 L 335.400 218.600 327.300 218.492 L 319.200 218.383 319.200 265.992 M276.400 231.200 C 276.400 231.420,276.850 231.600,277.400 231.600 C 277.950 231.600,278.400 231.780,278.400 232.000 C 278.400 232.220,278.760 232.400,279.200 232.400 C 279.640 232.400,280.000 232.580,280.000 232.800 C 280.000 233.020,280.274 233.200,280.609 233.200 C 281.401 233.200,285.600 237.399,285.600 238.191 C 285.600 238.526,285.780 238.800,286.000 238.800 C 286.220 238.800,286.400 239.160,286.400 239.600 C 286.400 240.040,286.580 240.400,286.800 240.400 C 287.020 240.400,287.200 240.850,287.200 241.400 C 287.200 241.950,287.380 242.400,287.600 242.400 C 287.820 242.400,288.000 242.839,288.000 243.376 C 288.000 243.913,288.180 244.464,288.400 244.600 C 288.620 244.736,288.800 245.456,288.800 246.200 C 288.800 246.944,288.980 247.664,289.200 247.800 C 289.420 247.936,289.600 248.757,289.600 249.624 C 289.600 250.491,289.780 251.200,290.000 251.200 C 290.229 251.200,290.400 252.400,290.400 254.000 C 290.400 255.600,290.571 256.800,290.800 256.800 C 291.056 256.800,291.200 260.259,291.200 266.376 C 291.200 272.329,291.049 276.046,290.800 276.200 C 290.580 276.336,290.400 277.607,290.400 279.024 C 290.400 280.475,290.225 281.600,290.000 281.600 C 289.780 281.600,289.600 282.320,289.600 283.200 C 289.600 284.080,289.420 284.800,289.200 284.800 C 288.980 284.800,288.800 285.520,288.800 286.400 C 288.800 287.280,288.620 288.000,288.400 288.000 C 288.180 288.000,288.000 288.349,288.000 288.776 C 288.000 289.203,287.820 289.664,287.600 289.800 C 287.380 289.936,287.200 290.487,287.200 291.024 C 287.200 291.561,287.020 292.000,286.800 292.000 C 286.580 292.000,286.400 292.360,286.400 292.800 C 286.400 293.240,286.220 293.600,286.000 293.600 C 285.780 293.600,285.600 293.870,285.600 294.200 C 285.600 294.530,285.420 294.800,285.200 294.800 C 284.980 294.800,284.800 295.100,284.800 295.467 C 284.800 295.833,284.705 296.038,284.588 295.922 C 284.472 295.805,283.497 296.585,282.421 297.655 C 281.346 298.725,280.181 299.600,279.833 299.600 C 279.485 299.600,279.200 299.780,279.200 300.000 C 279.200 300.220,278.851 300.400,278.424 300.400 C 277.997 300.400,277.536 300.580,277.400 300.800 C 277.264 301.020,276.623 301.200,275.976 301.200 C 275.329 301.200,274.800 301.380,274.800 301.600 C 274.800 301.831,273.541 302.000,271.824 302.000 C 270.187 302.000,268.736 301.820,268.600 301.600 C 268.464 301.380,267.834 301.200,267.200 301.200 C 266.566 301.200,265.936 301.020,265.800 300.800 C 265.664 300.580,265.113 300.400,264.576 300.400 C 264.039 300.400,263.600 300.220,263.600 300.000 C 263.600 299.780,263.280 299.600,262.888 299.600 C 262.497 299.600,261.917 299.240,261.600 298.800 C 261.283 298.360,260.769 298.000,260.459 298.000 C 259.803 298.000,258.400 296.501,258.400 295.801 C 258.400 295.539,258.040 294.998,257.600 294.600 C 257.160 294.202,256.800 293.715,256.800 293.519 C 256.800 293.322,256.440 292.416,256.000 291.506 C 255.560 290.595,255.200 289.534,255.200 289.148 C 255.200 288.763,255.020 288.336,254.800 288.200 C 254.580 288.064,254.400 287.423,254.400 286.776 C 254.400 286.129,254.220 285.600,254.000 285.600 C 253.780 285.600,253.600 284.891,253.600 284.024 C 253.600 283.157,253.420 282.336,253.200 282.200 C 252.980 282.064,252.800 280.804,252.800 279.400 C 252.800 277.996,252.620 276.736,252.400 276.600 C 252.149 276.445,252.000 272.270,252.000 265.400 C 252.000 258.530,252.149 254.355,252.400 254.200 C 252.620 254.064,252.800 252.894,252.800 251.600 C 252.800 250.306,252.980 249.136,253.200 249.000 C 253.420 248.864,253.600 248.311,253.600 247.771 C 253.600 247.231,253.762 246.477,253.961 246.095 C 254.160 245.713,254.557 244.590,254.845 243.600 C 256.491 237.933,262.081 231.600,265.438 231.600 C 265.747 231.600,266.000 231.420,266.000 231.200 C 266.000 230.954,268.000 230.800,271.200 230.800 C 274.400 230.800,276.400 230.954,276.400 231.200 M8.893 249.200 C 8.893 249.970,8.975 250.285,9.076 249.900 C 9.176 249.515,9.176 248.885,9.076 248.500 C 8.975 248.115,8.893 248.430,8.893 249.200 M368.478 302.300 C 368.599 304.182,368.614 304.201,370.100 304.324 L 371.600 304.448 371.600 309.024 L 371.600 313.600 373.800 313.600 L 376.000 313.600 376.000 309.000 L 376.000 304.400 377.600 304.400 L 379.200 304.400 379.200 302.400 L 379.200 300.400 373.778 300.400 L 368.356 300.400 368.478 302.300 M379.924 306.500 C 379.761 313.986,379.647 313.600,382.015 313.600 C 383.697 313.600,383.967 313.484,384.121 312.700 L 384.298 311.800 384.596 312.700 C 385.132 314.323,388.599 314.010,389.020 312.300 L 389.340 311.000 389.496 312.300 C 389.649 313.588,389.670 313.600,391.825 313.600 L 394.000 313.600 394.000 307.000 L 394.000 300.400 391.571 300.400 C 388.868 300.400,388.000 300.928,388.000 302.571 C 388.000 303.137,387.820 303.600,387.600 303.600 C 387.380 303.600,387.200 304.140,387.200 304.800 C 387.200 305.460,387.020 306.000,386.800 306.000 C 386.580 306.000,386.400 305.548,386.400 304.995 C 386.400 304.442,386.241 303.677,386.047 303.295 C 385.852 302.913,385.462 302.105,385.179 301.500 C 384.705 300.487,384.483 300.400,382.361 300.400 L 380.058 300.400 379.924 306.500 " stroke="none" fill="#f49525" fill-rule="evenodd"></path><path id="path1" d="M239.600 62.116 C 237.478 63.405,234.800 66.388,234.800 67.464 C 234.800 67.979,234.620 68.400,234.400 68.400 C 234.165 68.400,234.000 69.800,234.000 71.800 C 234.000 73.800,234.165 75.200,234.400 75.200 C 234.620 75.200,234.800 75.740,234.800 76.400 C 234.800 77.060,234.980 77.600,235.200 77.600 C 235.420 77.600,235.600 77.960,235.600 78.400 C 235.600 78.840,235.780 79.200,236.000 79.200 C 236.220 79.200,236.400 79.494,236.400 79.853 C 236.400 80.212,236.716 80.797,237.103 81.153 C 237.489 81.509,238.060 82.295,238.370 82.900 C 238.681 83.505,239.085 84.000,239.268 84.000 C 239.450 84.000,239.600 84.243,239.600 84.541 C 239.600 84.838,240.095 85.617,240.700 86.272 C 241.305 86.926,241.980 87.736,242.200 88.071 C 244.350 91.346,244.953 92.228,245.160 92.400 C 245.632 92.793,246.400 94.400,246.400 94.995 C 246.400 95.328,246.580 95.600,246.800 95.600 C 247.020 95.600,247.200 96.230,247.200 97.000 C 247.200 97.770,247.380 98.400,247.600 98.400 C 247.820 98.400,248.000 98.929,248.000 99.576 C 248.000 100.223,248.180 100.864,248.400 101.000 C 248.620 101.136,248.800 101.777,248.800 102.424 C 248.800 103.071,248.980 103.600,249.200 103.600 C 249.420 103.600,249.600 104.039,249.600 104.576 C 249.600 105.113,249.780 105.664,250.000 105.800 C 250.220 105.936,250.400 106.487,250.400 107.024 C 250.400 107.561,250.580 108.000,250.800 108.000 C 251.020 108.000,251.200 108.540,251.200 109.200 C 251.200 109.860,251.380 110.400,251.600 110.400 C 251.820 110.400,252.000 110.760,252.000 111.200 C 252.000 111.640,252.180 112.000,252.400 112.000 C 252.620 112.000,252.800 112.540,252.800 113.200 C 252.800 113.860,252.980 114.400,253.200 114.400 C 253.420 114.400,253.600 114.760,253.600 115.200 C 253.600 115.640,253.780 116.000,254.000 116.000 C 254.220 116.000,254.400 116.360,254.400 116.800 C 254.400 117.240,254.580 117.600,254.800 117.600 C 255.020 117.600,255.200 118.016,255.200 118.525 C 255.200 119.033,255.515 119.798,255.900 120.225 C 256.285 120.651,256.855 121.495,257.168 122.100 C 257.480 122.705,257.885 123.200,258.068 123.200 C 258.250 123.200,258.400 123.388,258.400 123.618 C 258.400 123.848,258.850 124.486,259.400 125.036 C 260.571 126.207,260.612 126.596,259.775 128.598 C 259.158 130.074,258.909 131.162,258.517 134.100 C 258.406 134.925,258.155 135.600,257.958 135.600 C 257.761 135.600,257.600 136.309,257.600 137.176 C 257.600 138.043,257.420 138.864,257.200 139.000 C 256.980 139.136,256.800 140.036,256.800 141.000 C 256.800 141.964,256.620 142.864,256.400 143.000 C 256.157 143.150,256.000 146.137,256.000 150.624 C 256.000 155.275,256.148 158.000,256.400 158.000 C 256.620 158.000,256.800 158.900,256.800 160.000 C 256.800 161.100,256.980 162.000,257.200 162.000 C 257.420 162.000,257.600 162.722,257.600 163.605 C 257.600 164.488,257.767 165.523,257.971 165.905 C 258.349 166.613,258.879 168.116,258.818 168.304 C 258.799 168.361,259.061 168.945,259.400 169.600 C 259.739 170.255,260.025 170.929,260.037 171.096 C 260.089 171.874,261.382 174.072,262.435 175.173 C 263.076 175.844,263.600 176.529,263.600 176.696 C 263.601 177.210,265.466 179.200,265.947 179.200 C 266.196 179.200,266.400 179.380,266.400 179.600 C 266.400 179.820,266.670 180.000,267.000 180.000 C 267.330 180.000,267.600 180.180,267.600 180.400 C 267.600 180.634,268.956 180.800,270.869 180.800 L 274.137 180.800 275.869 178.993 C 277.104 177.704,277.600 176.851,277.600 176.017 C 277.600 175.373,277.780 174.736,278.000 174.600 C 278.220 174.464,278.400 173.273,278.400 171.953 C 278.400 170.455,278.550 169.646,278.800 169.800 C 279.050 169.954,279.200 169.137,279.200 167.624 C 279.200 166.275,279.377 165.200,279.600 165.200 C 279.820 165.200,280.000 165.560,280.000 166.000 C 280.000 166.440,280.180 166.800,280.400 166.800 C 280.620 166.800,280.800 167.160,280.800 167.600 C 280.800 168.040,280.980 168.400,281.200 168.400 C 281.420 168.400,281.600 168.760,281.600 169.200 C 281.600 169.640,281.780 170.000,282.000 170.000 C 282.220 170.000,282.400 170.450,282.400 171.000 C 282.400 171.550,282.580 172.000,282.800 172.000 C 283.020 172.000,283.200 172.360,283.200 172.800 C 283.200 173.240,283.350 173.600,283.532 173.600 C 283.715 173.600,284.120 174.095,284.432 174.700 C 284.745 175.305,285.495 176.277,286.100 176.860 C 286.705 177.444,287.200 178.098,287.200 178.314 C 287.200 178.794,292.206 183.999,292.669 184.002 C 292.851 184.002,293.747 184.767,294.661 185.702 C 301.490 192.685,304.045 194.847,305.326 194.723 C 306.487 194.611,307.468 192.800,306.368 192.800 C 306.190 192.800,305.360 192.064,304.523 191.163 C 303.685 190.263,301.875 188.377,300.500 186.971 C 299.125 185.565,298.000 184.181,298.000 183.896 C 298.000 183.610,297.640 183.117,297.200 182.800 C 296.760 182.483,296.400 181.993,296.400 181.712 C 296.400 181.430,296.220 181.200,296.000 181.200 C 295.780 181.200,295.600 180.930,295.600 180.600 C 295.600 180.270,295.420 180.000,295.200 180.000 C 294.980 180.000,294.800 179.680,294.800 179.288 C 294.800 178.897,294.440 178.317,294.000 178.000 C 293.560 177.683,293.200 177.093,293.200 176.688 C 293.200 176.284,293.020 176.064,292.800 176.200 C 292.580 176.336,292.400 176.077,292.400 175.624 C 292.400 175.171,292.255 174.800,292.077 174.800 C 291.716 174.800,290.177 171.570,290.313 171.100 C 290.361 170.935,290.242 170.800,290.049 170.800 C 289.685 170.800,288.659 168.644,288.793 168.162 C 288.834 168.012,288.713 167.779,288.523 167.645 C 287.959 167.244,283.994 159.059,283.997 158.300 C 283.999 157.915,283.820 157.600,283.600 157.600 C 283.380 157.600,283.200 157.240,283.200 156.800 C 283.200 156.360,283.020 156.000,282.800 156.000 C 282.580 156.000,282.400 155.550,282.400 155.000 C 282.400 154.450,282.220 154.000,282.000 154.000 C 281.780 154.000,281.600 153.550,281.600 153.000 C 281.600 152.450,281.420 152.000,281.200 152.000 C 280.980 152.000,280.800 151.280,280.800 150.400 C 280.800 148.852,280.756 148.800,279.462 148.800 C 278.246 148.800,276.800 149.756,276.800 150.560 C 276.800 150.723,276.575 151.108,276.300 151.415 C 275.077 152.779,274.800 153.199,274.800 153.695 C 274.800 153.986,274.440 154.483,274.000 154.800 C 273.560 155.117,273.200 155.697,273.200 156.088 C 273.200 156.480,273.040 156.800,272.844 156.800 C 272.648 156.800,272.378 157.430,272.244 158.200 C 272.110 158.970,271.890 160.230,271.756 161.000 C 271.622 161.770,271.375 162.400,271.206 162.400 C 271.038 162.400,270.794 163.885,270.664 165.700 C 270.399 169.392,269.979 172.926,269.780 173.142 C 269.513 173.431,267.600 171.216,267.600 170.618 C 267.600 170.278,267.420 170.000,267.200 170.000 C 266.980 170.000,266.800 169.640,266.800 169.200 C 266.800 168.760,266.620 168.400,266.400 168.400 C 266.180 168.400,266.000 168.040,266.000 167.600 C 266.000 167.160,265.820 166.800,265.600 166.800 C 265.380 166.800,265.200 166.260,265.200 165.600 C 265.200 164.940,265.020 164.400,264.800 164.400 C 264.580 164.400,264.400 163.961,264.400 163.424 C 264.400 162.887,264.220 162.336,264.000 162.200 C 263.780 162.064,263.600 161.333,263.600 160.576 C 263.600 159.819,263.420 159.200,263.200 159.200 C 262.945 159.200,262.800 155.941,262.800 150.224 C 262.800 144.671,262.953 141.153,263.200 141.000 C 263.420 140.864,263.600 140.133,263.600 139.376 C 263.600 138.619,263.780 138.000,264.000 138.000 C 264.220 138.000,264.400 137.460,264.400 136.800 C 264.400 136.140,264.580 135.600,264.800 135.600 C 265.020 135.600,265.200 135.060,265.200 134.400 C 265.200 133.740,265.380 133.200,265.600 133.200 C 265.820 133.200,266.000 132.851,266.000 132.424 C 266.000 131.997,266.180 131.536,266.400 131.400 C 266.620 131.264,266.800 130.544,266.800 129.800 C 266.800 129.056,266.980 128.336,267.200 128.200 C 267.420 128.064,267.600 127.063,267.600 125.976 C 267.600 124.889,267.420 124.000,267.200 124.000 C 266.980 124.000,266.800 123.718,266.800 123.374 C 266.800 123.030,265.900 121.871,264.800 120.800 C 263.700 119.729,262.800 118.610,262.800 118.314 C 262.800 118.019,262.440 117.517,262.000 117.200 C 261.560 116.883,261.200 116.303,261.200 115.912 C 261.200 115.520,261.020 115.200,260.800 115.200 C 260.580 115.200,260.400 114.840,260.400 114.400 C 260.400 113.960,260.220 113.600,260.000 113.600 C 259.780 113.600,259.600 113.240,259.600 112.800 C 259.600 112.360,259.420 112.000,259.200 112.000 C 258.980 112.000,258.799 111.595,258.798 111.100 C 258.796 110.605,258.526 109.684,258.198 109.054 C 257.869 108.424,257.600 107.557,257.600 107.128 C 257.600 106.699,257.419 106.009,257.197 105.595 C 256.976 105.181,256.757 104.383,256.710 103.821 C 256.664 103.260,256.523 102.800,256.398 102.800 C 256.273 102.800,256.143 102.395,256.109 101.900 C 256.030 100.744,255.159 97.913,254.730 97.420 C 254.549 97.211,254.400 96.626,254.400 96.120 C 254.400 95.614,254.220 95.200,254.000 95.200 C 253.780 95.200,253.600 94.660,253.600 94.000 C 253.600 93.340,253.464 92.800,253.298 92.800 C 252.983 92.800,252.010 90.847,252.037 90.270 C 252.046 90.088,251.681 89.617,251.226 89.223 C 250.772 88.829,250.400 88.252,250.400 87.941 C 250.400 87.631,250.040 87.117,249.600 86.800 C 249.160 86.483,248.800 85.991,248.800 85.708 C 248.800 85.425,248.260 84.628,247.600 83.937 C 246.940 83.246,246.400 82.520,246.400 82.322 C 246.400 82.125,245.950 81.514,245.400 80.964 C 244.850 80.414,244.400 79.835,244.400 79.678 C 244.400 79.520,243.989 78.944,243.486 78.396 C 242.441 77.256,241.200 74.784,241.200 73.840 C 241.200 73.488,241.020 73.200,240.800 73.200 C 240.115 73.200,240.362 70.966,241.147 70.061 C 241.931 69.157,245.200 68.785,245.200 69.600 C 245.200 69.820,245.542 70.000,245.959 70.000 C 246.377 70.000,247.745 70.540,249.000 71.200 C 250.255 71.860,251.623 72.400,252.041 72.400 C 252.458 72.400,252.800 72.547,252.800 72.726 C 252.800 72.906,253.880 73.569,255.200 74.200 C 256.520 74.831,257.600 75.494,257.600 75.674 C 257.600 75.853,257.915 76.001,258.300 76.001 C 258.685 76.002,259.356 76.533,259.790 77.182 C 260.225 77.831,260.990 78.581,261.490 78.848 C 261.991 79.116,262.400 79.485,262.400 79.668 C 262.400 79.850,263.739 80.000,265.376 80.000 C 267.013 80.000,268.450 80.158,268.569 80.350 C 268.688 80.543,270.454 80.730,272.493 80.766 C 274.532 80.803,276.260 81.005,276.333 81.216 C 276.407 81.427,276.902 81.600,277.433 81.600 C 277.965 81.600,278.400 81.780,278.400 82.000 C 278.400 82.220,278.749 82.400,279.176 82.400 C 279.603 82.400,280.064 82.580,280.200 82.800 C 280.336 83.020,280.887 83.200,281.424 83.200 C 281.961 83.200,282.400 83.380,282.400 83.600 C 282.400 83.820,282.760 84.000,283.200 84.000 C 283.640 84.000,284.000 84.165,284.000 84.367 C 284.000 84.569,284.900 85.142,286.000 85.639 C 287.100 86.136,288.000 86.691,288.000 86.871 C 288.000 87.052,288.278 87.200,288.617 87.200 C 288.956 87.200,289.620 87.560,290.092 88.000 C 290.564 88.440,291.187 88.800,291.475 88.800 C 291.764 88.800,292.000 88.980,292.000 89.200 C 292.000 89.420,292.192 89.600,292.427 89.600 C 292.661 89.600,293.443 90.050,294.164 90.600 C 294.886 91.150,295.611 91.600,295.777 91.600 C 295.943 91.600,296.583 92.140,297.200 92.800 C 297.817 93.460,298.519 94.000,298.760 94.000 C 299.002 94.000,299.200 94.180,299.200 94.400 C 299.200 94.620,299.395 94.800,299.632 94.800 C 300.153 94.800,312.800 107.583,312.800 108.110 C 312.800 108.313,313.340 108.983,314.000 109.600 C 314.660 110.217,315.200 110.937,315.200 111.200 C 315.200 111.463,315.740 112.183,316.400 112.800 C 317.060 113.417,317.600 114.126,317.600 114.377 C 317.600 114.628,317.960 115.220,318.400 115.692 C 318.840 116.164,319.200 116.787,319.200 117.075 C 319.200 117.364,319.380 117.600,319.600 117.600 C 319.820 117.600,320.000 117.960,320.000 118.400 C 320.000 118.840,320.180 119.200,320.400 119.200 C 320.620 119.200,320.800 119.448,320.800 119.751 C 320.800 120.054,321.073 120.529,321.407 120.806 C 321.741 121.083,322.317 121.960,322.687 122.755 C 323.056 123.550,323.458 124.290,323.579 124.400 C 323.907 124.697,325.124 126.952,325.148 127.307 C 325.159 127.476,325.536 128.444,325.984 129.458 C 326.433 130.472,326.800 131.551,326.800 131.856 C 326.800 132.161,326.952 132.723,327.137 133.105 C 328.802 136.538,329.202 137.467,329.201 137.900 C 329.200 138.175,329.380 138.400,329.600 138.400 C 329.820 138.400,330.000 138.634,330.000 138.920 C 330.000 139.656,330.941 141.593,331.300 141.597 C 331.465 141.599,331.600 142.140,331.600 142.800 C 331.600 143.460,331.780 144.000,332.000 144.000 C 332.220 144.000,332.400 144.360,332.400 144.800 C 332.400 145.240,332.580 145.600,332.800 145.600 C 333.020 145.600,333.200 145.960,333.200 146.400 C 333.200 146.840,333.380 147.200,333.600 147.200 C 333.820 147.200,334.000 147.740,334.000 148.400 C 334.000 149.060,334.180 149.600,334.400 149.600 C 334.620 149.600,334.800 149.960,334.800 150.400 C 334.800 150.840,334.980 151.200,335.200 151.200 C 335.420 151.200,335.600 151.562,335.600 152.005 C 335.600 152.448,335.764 153.123,335.965 153.505 C 337.400 156.235,338.800 159.360,338.800 159.834 C 338.800 160.146,338.980 160.400,339.200 160.400 C 339.420 160.400,339.600 160.636,339.600 160.925 C 339.600 161.213,339.960 161.836,340.400 162.308 C 340.840 162.780,341.200 163.444,341.200 163.783 C 341.200 164.122,341.350 164.400,341.532 164.400 C 341.715 164.400,342.120 164.895,342.432 165.500 C 343.119 166.831,344.607 168.400,345.182 168.400 C 345.412 168.400,345.600 168.580,345.600 168.800 C 345.600 169.020,345.949 169.200,346.376 169.200 C 346.803 169.200,347.264 169.380,347.400 169.600 C 347.536 169.820,348.166 170.000,348.800 170.000 C 349.434 170.000,350.064 170.180,350.200 170.400 C 350.336 170.620,350.799 170.800,351.229 170.800 C 351.659 170.800,352.368 170.980,352.805 171.200 C 353.242 171.420,353.958 171.780,354.395 172.000 C 354.832 172.220,355.552 172.400,355.995 172.400 C 356.438 172.400,356.800 172.580,356.800 172.800 C 356.800 173.020,357.065 173.200,357.388 173.200 C 358.178 173.200,362.565 175.212,362.733 175.651 C 362.807 175.843,363.139 176.000,363.473 176.000 C 363.806 176.000,364.583 176.540,365.200 177.200 C 365.817 177.860,366.520 178.400,366.764 178.400 C 367.008 178.400,367.772 178.940,368.463 179.600 C 369.154 180.260,369.890 180.800,370.099 180.800 C 370.308 180.800,370.983 181.340,371.600 182.000 C 372.217 182.660,373.009 183.200,373.360 183.200 C 373.712 183.200,374.000 183.380,374.000 183.600 C 374.000 183.820,374.177 184.000,374.393 184.000 C 374.900 184.000,378.343 186.507,378.375 186.900 C 378.401 187.212,377.106 187.330,374.940 187.213 C 374.248 187.176,373.562 187.338,373.417 187.573 C 373.265 187.818,371.797 188.000,369.976 188.000 C 368.125 188.000,366.800 188.167,366.800 188.400 C 366.800 188.620,366.181 188.800,365.424 188.800 C 364.667 188.800,363.936 188.980,363.800 189.200 C 363.664 189.420,362.933 189.600,362.176 189.600 C 361.419 189.600,360.800 189.780,360.800 190.000 C 360.800 190.220,360.440 190.400,360.000 190.400 C 359.560 190.400,359.200 190.580,359.200 190.800 C 359.200 191.020,358.705 191.213,358.100 191.229 C 356.113 191.282,354.615 192.481,354.476 194.130 C 354.404 194.977,354.531 195.600,354.776 195.600 C 355.009 195.600,355.200 196.016,355.200 196.525 C 355.200 197.033,355.560 197.836,356.000 198.308 C 356.440 198.780,356.800 199.360,356.800 199.597 C 356.800 199.833,357.385 200.626,358.100 201.359 C 358.815 202.092,360.030 203.399,360.800 204.263 C 362.118 205.743,363.111 206.587,365.191 208.000 C 365.677 208.330,366.445 208.915,366.899 209.300 C 367.352 209.685,367.862 210.000,368.033 210.000 C 368.203 210.000,368.586 210.225,368.884 210.500 C 369.626 211.186,371.651 212.402,372.500 212.671 C 372.885 212.793,373.200 213.052,373.200 213.247 C 373.200 213.441,373.543 213.600,373.962 213.600 C 374.869 213.600,378.000 215.208,378.000 215.674 C 378.000 215.853,378.410 216.000,378.912 216.000 C 379.413 216.000,380.083 216.360,380.400 216.800 C 380.717 217.240,381.209 217.600,381.492 217.600 C 381.775 217.600,382.572 218.140,383.263 218.800 C 383.954 219.460,384.674 220.000,384.863 220.000 C 385.052 220.000,385.772 220.540,386.463 221.200 C 387.154 221.860,387.890 222.400,388.099 222.400 C 388.309 222.400,389.088 222.985,389.832 223.700 C 391.988 225.773,392.319 226.000,393.183 226.000 C 393.850 226.000,394.000 225.743,394.000 224.600 C 394.000 223.467,393.848 223.200,393.200 223.200 C 392.606 223.200,392.400 222.933,392.400 222.166 C 392.400 221.550,391.874 220.571,391.100 219.746 C 390.385 218.984,389.215 217.745,388.500 216.994 C 387.785 216.242,387.200 215.467,387.200 215.272 C 387.200 214.418,379.110 206.816,378.188 206.805 C 377.962 206.802,377.517 206.440,377.200 206.000 C 376.883 205.560,376.343 205.200,376.000 205.200 C 375.657 205.200,375.117 204.840,374.800 204.400 C 374.483 203.960,373.993 203.600,373.712 203.600 C 373.430 203.600,373.200 203.420,373.200 203.200 C 373.200 202.980,372.880 202.800,372.488 202.800 C 372.097 202.800,371.517 202.440,371.200 202.000 C 370.883 201.560,370.393 201.200,370.112 201.200 C 369.830 201.200,369.600 201.020,369.600 200.800 C 369.600 200.580,369.414 200.400,369.187 200.400 C 368.542 200.400,366.000 197.699,366.000 197.013 C 366.000 196.566,366.427 196.400,367.576 196.400 C 368.443 196.400,369.264 196.220,369.400 196.000 C 369.536 195.780,370.177 195.600,370.824 195.600 C 371.471 195.600,372.000 195.420,372.000 195.200 C 372.000 194.980,372.889 194.800,373.976 194.800 C 375.063 194.800,376.064 194.620,376.200 194.400 C 376.336 194.180,377.609 194.000,379.029 194.000 C 380.449 194.000,381.923 193.848,382.305 193.662 C 382.687 193.477,383.403 193.117,383.895 192.862 C 384.387 192.608,385.332 192.400,385.995 192.400 C 386.658 192.400,387.200 192.220,387.200 192.000 C 387.200 191.780,387.522 191.600,387.915 191.600 C 389.080 191.600,388.891 190.006,387.580 188.781 C 386.931 188.175,386.400 187.431,386.400 187.128 C 386.400 186.825,386.040 186.317,385.600 186.000 C 385.160 185.683,384.800 185.238,384.800 185.012 C 384.799 184.407,383.203 182.702,381.600 181.595 C 380.830 181.063,379.518 179.947,378.685 179.114 C 377.851 178.281,376.987 177.600,376.765 177.600 C 376.542 177.600,375.712 176.970,374.919 176.200 C 374.126 175.430,373.307 174.800,373.099 174.800 C 372.891 174.800,372.217 174.260,371.600 173.600 C 370.983 172.940,370.281 172.400,370.040 172.400 C 369.798 172.400,369.600 172.220,369.600 172.000 C 369.600 171.780,369.330 171.600,369.000 171.600 C 368.670 171.600,368.400 171.450,368.400 171.268 C 368.400 171.085,367.905 170.681,367.300 170.370 C 366.695 170.060,365.909 169.489,365.553 169.103 C 365.197 168.716,364.612 168.400,364.253 168.400 C 363.894 168.400,363.600 168.220,363.600 168.000 C 363.600 167.780,363.240 167.600,362.800 167.600 C 362.360 167.600,362.000 167.420,362.000 167.200 C 362.000 166.980,361.640 166.800,361.200 166.800 C 360.760 166.800,360.400 166.620,360.400 166.400 C 360.400 166.180,360.040 166.000,359.600 166.000 C 359.160 166.000,358.800 165.820,358.800 165.600 C 358.800 165.380,358.476 165.200,358.080 165.200 C 357.684 165.200,357.189 165.037,356.980 164.838 C 356.192 164.087,353.545 162.800,352.788 162.800 C 352.355 162.800,352.000 162.620,352.000 162.400 C 352.000 162.180,351.671 162.000,351.270 162.000 C 350.469 162.000,348.800 160.429,348.800 159.674 C 348.800 159.413,348.620 159.200,348.400 159.200 C 348.180 159.200,348.000 158.840,348.000 158.400 C 348.000 157.960,347.820 157.600,347.600 157.600 C 347.380 157.600,347.200 157.240,347.200 156.800 C 347.200 156.360,347.020 156.000,346.800 156.000 C 346.580 156.000,346.400 155.640,346.400 155.200 C 346.400 154.760,346.220 154.400,346.000 154.400 C 345.780 154.400,345.600 153.900,345.600 153.288 C 345.600 152.635,345.270 151.939,344.800 151.600 C 344.360 151.283,344.000 150.703,344.000 150.312 C 344.000 149.920,343.820 149.600,343.600 149.600 C 343.380 149.600,343.200 149.245,343.200 148.812 C 343.200 148.379,342.840 147.383,342.400 146.600 C 341.960 145.817,341.600 145.002,341.600 144.791 C 341.600 144.117,340.224 141.200,339.906 141.200 C 339.738 141.200,339.600 140.761,339.600 140.224 C 339.600 139.687,339.420 139.136,339.200 139.000 C 338.980 138.864,338.800 138.403,338.800 137.976 C 338.800 137.549,338.620 137.200,338.400 137.200 C 338.180 137.200,338.000 136.761,338.000 136.224 C 338.000 135.687,337.845 135.151,337.655 135.034 C 337.465 134.917,337.082 134.006,336.803 133.010 C 336.524 132.015,336.183 131.200,336.045 131.200 C 335.908 131.200,335.561 130.435,335.275 129.500 C 334.546 127.115,333.857 125.600,333.502 125.600 C 333.336 125.600,333.200 125.161,333.200 124.624 C 333.200 124.087,333.020 123.536,332.800 123.400 C 332.580 123.264,332.400 122.803,332.400 122.376 C 332.400 121.949,332.220 121.600,332.000 121.600 C 331.780 121.600,331.600 121.280,331.600 120.888 C 331.600 120.497,331.240 119.917,330.800 119.600 C 330.360 119.283,330.000 118.743,330.000 118.400 C 330.000 118.057,329.640 117.517,329.200 117.200 C 328.760 116.883,328.400 116.303,328.400 115.912 C 328.400 115.520,328.220 115.200,328.000 115.200 C 327.780 115.200,327.600 114.975,327.599 114.700 C 327.599 114.425,327.059 113.570,326.400 112.800 C 325.741 112.030,325.201 111.253,325.201 111.073 C 325.200 110.681,323.126 107.856,322.700 107.667 C 322.535 107.593,322.400 107.305,322.400 107.026 C 322.400 106.747,321.860 105.954,321.200 105.263 C 320.540 104.572,320.000 103.832,320.000 103.618 C 320.000 103.403,317.570 100.795,314.600 97.822 C 311.630 94.848,309.200 92.510,309.200 92.625 C 309.200 92.740,308.508 92.106,307.662 91.217 C 306.816 90.328,306.006 89.600,305.862 89.600 C 305.719 89.600,304.859 88.880,303.952 88.000 C 303.045 87.120,302.144 86.400,301.948 86.400 C 301.753 86.400,301.028 85.860,300.337 85.200 C 299.646 84.540,298.920 84.000,298.722 84.000 C 298.525 84.000,297.922 83.559,297.383 83.019 C 296.844 82.480,295.727 81.724,294.901 81.340 C 294.076 80.955,293.128 80.362,292.796 80.020 C 292.463 79.679,291.743 79.145,291.196 78.832 C 290.648 78.520,289.345 77.760,288.300 77.143 C 287.255 76.526,286.400 76.100,286.400 76.196 C 286.400 76.293,285.575 76.018,284.567 75.586 C 283.559 75.154,282.299 74.800,281.767 74.800 C 281.235 74.800,280.800 74.620,280.800 74.400 C 280.800 74.180,279.900 74.000,278.800 74.000 C 277.700 74.000,276.800 73.820,276.800 73.600 C 276.800 73.367,275.475 73.200,273.624 73.200 C 271.877 73.200,270.336 73.020,270.200 72.800 C 270.064 72.580,269.154 72.400,268.178 72.400 C 266.588 72.400,266.192 72.192,264.361 70.400 C 263.238 69.300,262.067 68.400,261.759 68.400 C 261.452 68.400,261.200 68.220,261.200 68.000 C 261.200 67.780,260.880 67.600,260.488 67.600 C 260.097 67.600,259.517 67.240,259.200 66.800 C 258.883 66.360,258.303 66.000,257.912 66.000 C 257.520 66.000,257.200 65.820,257.200 65.600 C 257.200 65.380,256.840 65.200,256.400 65.200 C 255.960 65.200,255.599 65.065,255.597 64.900 C 255.593 64.494,253.614 63.600,252.720 63.600 C 252.324 63.600,252.000 63.420,252.000 63.200 C 252.000 62.980,251.490 62.800,250.867 62.800 C 250.243 62.800,249.610 62.677,249.459 62.526 C 247.985 61.051,241.779 60.793,239.600 62.116 M265.376 90.038 C 265.076 90.524,265.943 92.400,266.468 92.400 C 266.650 92.400,266.800 92.688,266.800 93.040 C 266.800 93.391,267.340 94.183,268.000 94.800 C 268.660 95.417,269.200 96.209,269.200 96.560 C 269.200 96.912,269.380 97.200,269.600 97.200 C 269.820 97.200,270.000 97.549,270.000 97.976 C 270.000 98.403,270.180 98.864,270.400 99.000 C 270.620 99.136,270.800 99.687,270.800 100.224 C 270.800 100.799,271.033 101.200,271.367 101.200 C 271.678 101.200,272.038 101.425,272.167 101.700 C 272.353 102.100,272.447 102.100,272.633 101.700 C 272.762 101.425,273.056 101.200,273.286 101.200 C 275.041 101.200,275.973 95.419,274.628 92.880 C 273.185 90.157,266.561 88.122,265.376 90.038 M11.795 220.415 C 11.427 221.523,11.233 222.710,11.365 223.052 C 11.496 223.394,11.429 224.783,11.215 226.137 C 10.685 229.492,10.004 236.597,9.771 241.200 C 9.665 243.290,9.472 245.630,9.342 246.400 C 9.040 248.189,8.981 249.095,8.603 257.800 C 8.432 261.760,8.152 265.180,7.982 265.400 C 7.812 265.620,7.650 268.500,7.622 271.800 C 7.593 275.245,7.407 277.857,7.186 277.933 C 6.955 278.013,6.800 281.272,6.800 286.019 C 6.800 293.562,6.759 293.994,6.000 294.400 C 5.235 294.809,5.200 295.238,5.200 304.214 L 5.200 313.600 13.128 313.600 L 21.057 313.600 20.877 310.170 C 20.767 308.078,20.870 306.401,21.142 305.870 C 21.428 305.310,21.658 300.367,21.788 292.000 C 22.050 275.002,22.861 257.100,23.839 246.700 C 24.102 243.908,24.800 242.946,24.800 245.376 C 24.800 246.133,24.992 246.872,25.227 247.017 C 25.462 247.162,25.568 247.507,25.462 247.783 C 25.356 248.059,25.602 249.291,26.007 250.522 C 26.413 251.752,26.841 253.263,26.957 253.879 C 27.368 256.058,28.046 258.378,28.806 260.200 C 29.127 260.968,29.382 262.014,29.879 264.600 C 30.007 265.260,30.222 265.890,30.357 266.000 C 30.754 266.321,31.600 268.980,31.600 269.905 C 31.600 270.371,31.780 270.864,32.000 271.000 C 32.220 271.136,32.400 271.697,32.400 272.247 C 32.400 272.812,32.574 273.140,32.800 273.000 C 33.033 272.856,33.200 273.263,33.200 273.976 C 33.200 274.649,33.380 275.200,33.600 275.200 C 33.820 275.200,34.000 275.920,34.000 276.800 C 34.000 277.680,34.180 278.400,34.400 278.400 C 34.620 278.400,34.800 278.940,34.800 279.600 C 34.800 280.260,34.980 280.800,35.200 280.800 C 35.420 280.800,35.600 281.340,35.600 282.000 C 35.600 282.660,35.780 283.200,36.000 283.200 C 36.220 283.200,36.400 283.819,36.400 284.576 C 36.400 285.333,36.580 286.064,36.800 286.200 C 37.020 286.336,37.200 286.797,37.200 287.224 C 37.200 287.651,37.380 288.000,37.600 288.000 C 37.820 288.000,38.000 288.630,38.000 289.400 C 38.000 290.170,38.180 290.800,38.400 290.800 C 38.620 290.800,38.800 291.340,38.800 292.000 C 38.800 292.660,38.980 293.200,39.200 293.200 C 39.420 293.200,39.600 293.740,39.600 294.400 C 39.600 295.060,39.780 295.600,40.000 295.600 C 40.220 295.600,40.400 296.320,40.400 297.200 C 40.400 298.080,40.580 298.800,40.800 298.800 C 41.020 298.800,41.200 299.329,41.200 299.976 C 41.200 300.623,41.356 301.249,41.546 301.367 C 41.736 301.484,41.997 302.260,42.124 303.090 C 42.503 305.554,42.817 306.885,43.180 307.562 C 43.367 307.913,43.541 308.380,43.565 308.600 C 43.621 309.102,43.901 310.178,44.478 312.100 L 44.928 313.600 51.384 313.600 C 58.562 313.600,58.800 313.520,58.800 311.120 C 58.800 310.284,58.980 309.600,59.200 309.600 C 59.420 309.600,59.600 309.060,59.600 308.400 C 59.600 307.740,59.780 307.200,60.000 307.200 C 60.220 307.200,60.400 306.671,60.400 306.024 C 60.400 305.377,60.580 304.736,60.800 304.600 C 61.020 304.464,61.200 303.733,61.200 302.976 C 61.200 302.219,61.380 301.600,61.600 301.600 C 61.820 301.600,62.000 300.970,62.000 300.200 C 62.000 299.430,62.180 298.800,62.400 298.800 C 62.620 298.800,62.800 298.260,62.800 297.600 C 62.800 296.940,62.980 296.400,63.200 296.400 C 63.420 296.400,63.600 295.680,63.600 294.800 C 63.600 293.920,63.780 293.200,64.000 293.200 C 64.220 293.200,64.400 292.761,64.400 292.224 C 64.400 291.687,64.580 291.136,64.800 291.000 C 65.020 290.864,65.200 290.223,65.200 289.576 C 65.200 288.929,65.380 288.400,65.600 288.400 C 65.820 288.400,66.000 287.950,66.000 287.400 C 66.000 286.850,66.180 286.400,66.400 286.400 C 66.620 286.400,66.800 285.781,66.800 285.024 C 66.800 284.267,66.980 283.536,67.200 283.400 C 67.420 283.264,67.600 282.623,67.600 281.976 C 67.600 281.329,67.780 280.800,68.000 280.800 C 68.220 280.800,68.400 280.260,68.400 279.600 C 68.400 278.940,68.580 278.400,68.800 278.400 C 69.020 278.400,69.200 278.007,69.200 277.527 C 69.200 276.521,70.720 271.986,71.247 271.420 C 71.441 271.211,71.600 270.457,71.600 269.744 C 71.600 269.031,71.780 268.336,72.000 268.200 C 72.220 268.064,72.400 267.524,72.400 267.000 C 72.400 266.476,72.580 265.936,72.800 265.800 C 73.020 265.664,73.200 265.034,73.200 264.400 C 73.200 263.766,73.357 263.150,73.548 263.032 C 73.740 262.914,74.033 262.228,74.199 261.508 C 74.366 260.789,74.585 259.930,74.687 259.600 C 74.789 259.270,74.965 258.415,75.080 257.700 C 75.194 256.985,75.448 256.400,75.644 256.400 C 75.840 256.400,76.000 255.781,76.000 255.024 C 76.000 254.267,76.180 253.536,76.400 253.400 C 76.620 253.264,76.800 252.724,76.800 252.200 C 76.800 251.676,76.980 251.136,77.200 251.000 C 77.420 250.864,77.600 250.144,77.600 249.400 C 77.600 248.656,77.780 247.936,78.000 247.800 C 78.220 247.664,78.400 246.933,78.400 246.176 C 78.400 245.419,78.544 244.800,78.720 244.800 C 79.655 244.800,80.000 245.986,80.000 249.200 C 80.000 251.092,80.171 252.811,80.379 253.020 C 80.588 253.229,80.786 255.740,80.820 258.600 C 80.855 261.460,81.031 263.982,81.212 264.205 C 81.393 264.428,81.578 267.038,81.624 270.005 C 81.670 272.972,81.860 275.595,82.047 275.833 C 82.234 276.071,82.401 279.536,82.419 283.533 C 82.438 287.751,82.609 290.800,82.826 290.800 C 83.049 290.800,83.200 295.395,83.200 302.200 L 83.200 313.600 91.819 313.600 L 100.437 313.600 100.373 309.000 C 100.338 306.470,100.150 304.400,99.955 304.400 C 99.760 304.400,99.600 300.710,99.600 296.200 C 99.600 291.000,99.454 288.000,99.200 288.000 C 98.949 288.000,98.800 285.533,98.800 281.400 C 98.800 277.267,98.651 274.800,98.400 274.800 C 98.156 274.800,98.000 272.933,98.000 270.000 C 98.000 267.067,97.844 265.200,97.600 265.200 C 97.353 265.200,97.200 263.133,97.200 259.800 C 97.200 256.467,97.047 254.400,96.800 254.400 C 96.559 254.400,96.400 252.733,96.400 250.200 C 96.400 247.667,96.241 246.000,96.000 246.000 C 95.758 246.000,95.600 244.267,95.600 241.600 C 95.600 238.933,95.442 237.200,95.200 237.200 C 94.961 237.200,94.800 235.667,94.800 233.400 C 94.800 231.133,94.639 229.600,94.400 229.600 C 94.157 229.600,94.000 227.800,94.000 225.000 C 94.000 222.200,93.843 220.400,93.600 220.400 C 93.380 220.400,93.200 220.059,93.200 219.643 C 93.200 218.483,92.553 218.400,83.539 218.400 C 74.789 218.400,74.000 218.547,74.000 220.171 C 74.000 220.517,73.820 220.800,73.600 220.800 C 73.380 220.800,73.200 221.340,73.200 222.000 C 73.200 222.660,73.020 223.200,72.800 223.200 C 72.580 223.200,72.400 223.819,72.400 224.576 C 72.400 225.333,72.220 226.064,72.000 226.200 C 71.780 226.336,71.600 226.887,71.600 227.424 C 71.600 227.961,71.420 228.400,71.200 228.400 C 70.980 228.400,70.800 228.929,70.800 229.576 C 70.800 230.223,70.620 230.864,70.400 231.000 C 70.180 231.136,70.000 231.687,70.000 232.224 C 70.000 232.761,69.820 233.200,69.600 233.200 C 69.380 233.200,69.200 233.740,69.200 234.400 C 69.200 235.060,69.020 235.600,68.800 235.600 C 68.580 235.600,68.400 236.140,68.400 236.800 C 68.400 237.460,68.220 238.000,68.000 238.000 C 67.780 238.000,67.600 238.363,67.600 238.806 C 67.600 239.933,66.669 242.800,66.303 242.800 C 66.136 242.800,66.000 243.430,66.000 244.200 C 66.000 244.970,65.820 245.600,65.600 245.600 C 65.380 245.600,65.200 245.962,65.200 246.405 C 65.200 246.848,65.020 247.568,64.800 248.005 C 64.580 248.442,64.220 249.158,64.000 249.595 C 63.780 250.032,63.600 250.902,63.600 251.528 C 63.600 252.154,63.481 252.786,63.335 252.932 C 62.996 253.270,61.611 257.084,61.349 258.400 C 61.105 259.625,60.068 263.069,59.568 264.319 C 59.366 264.824,59.200 265.669,59.200 266.195 C 59.200 266.722,59.020 267.264,58.800 267.400 C 58.580 267.536,58.400 268.177,58.400 268.824 C 58.400 269.471,58.220 270.000,58.000 270.000 C 57.780 270.000,57.600 270.720,57.600 271.600 C 57.600 272.480,57.420 273.200,57.200 273.200 C 56.980 273.200,56.800 273.740,56.800 274.400 C 56.800 275.060,56.620 275.600,56.400 275.600 C 56.180 275.600,56.000 276.151,56.000 276.824 C 56.000 277.537,55.833 277.944,55.600 277.800 C 55.358 277.651,55.200 278.196,55.200 279.176 C 55.200 280.069,55.020 280.800,54.800 280.800 C 54.580 280.800,54.400 281.149,54.400 281.576 C 54.400 282.003,54.220 282.464,54.000 282.600 C 53.780 282.736,53.600 283.467,53.600 284.224 C 53.600 284.981,53.420 285.600,53.200 285.600 C 52.980 285.600,52.800 285.060,52.800 284.400 C 52.800 283.740,52.620 283.200,52.400 283.200 C 52.180 283.200,52.000 282.480,52.000 281.600 C 52.000 280.720,51.820 280.000,51.600 280.000 C 51.380 280.000,51.200 279.550,51.200 279.000 C 51.200 278.450,51.020 278.000,50.800 278.000 C 50.580 278.000,50.400 277.460,50.400 276.800 C 50.400 276.140,50.220 275.600,50.000 275.600 C 49.780 275.600,49.600 275.060,49.600 274.400 C 49.600 273.740,49.420 273.200,49.200 273.200 C 48.980 273.200,48.800 272.660,48.800 272.000 C 48.800 271.340,48.620 270.800,48.400 270.800 C 48.180 270.800,48.000 270.080,48.000 269.200 C 48.000 268.320,47.820 267.600,47.600 267.600 C 47.380 267.600,47.200 267.240,47.200 266.800 C 47.200 266.360,47.020 266.000,46.800 266.000 C 46.580 266.000,46.400 265.381,46.400 264.624 C 46.400 263.867,46.220 263.136,46.000 263.000 C 45.780 262.864,45.600 262.234,45.600 261.600 C 45.600 260.966,45.420 260.336,45.200 260.200 C 44.980 260.064,44.800 259.423,44.800 258.776 C 44.800 258.129,44.620 257.600,44.400 257.600 C 44.180 257.600,44.000 256.869,44.000 255.976 C 44.000 254.996,43.842 254.451,43.600 254.600 C 43.362 254.747,43.200 254.271,43.200 253.424 C 43.200 252.641,43.020 252.000,42.800 252.000 C 42.580 252.000,42.400 251.460,42.400 250.800 C 42.400 250.140,42.243 249.600,42.051 249.600 C 41.859 249.600,41.562 248.835,41.390 247.900 C 41.219 246.965,41.041 246.110,40.995 246.000 C 40.949 245.890,40.773 245.211,40.604 244.492 C 40.435 243.772,40.140 243.086,39.948 242.968 C 39.757 242.850,39.600 242.223,39.600 241.576 C 39.600 240.929,39.420 240.400,39.200 240.400 C 38.980 240.400,38.800 239.860,38.800 239.200 C 38.800 238.540,38.620 238.000,38.400 238.000 C 38.180 238.000,38.000 237.460,38.000 236.800 C 38.000 236.140,37.820 235.600,37.600 235.600 C 37.380 235.600,37.200 235.237,37.200 234.794 C 37.200 233.667,36.269 230.800,35.903 230.800 C 35.736 230.800,35.600 230.170,35.600 229.400 C 35.600 228.630,35.420 228.000,35.200 228.000 C 34.980 228.000,34.800 227.460,34.800 226.800 C 34.800 226.140,34.620 225.600,34.400 225.600 C 34.180 225.600,34.000 225.240,34.000 224.800 C 34.000 224.360,33.820 224.000,33.600 224.000 C 33.380 224.000,33.200 223.280,33.200 222.400 C 33.200 221.520,33.020 220.800,32.800 220.800 C 32.580 220.800,32.400 220.260,32.400 219.600 L 32.400 218.400 22.432 218.400 L 12.464 218.400 11.795 220.415 M106.500 243.465 C 105.908 243.704,105.819 245.600,106.400 245.600 C 106.620 245.600,106.800 246.140,106.800 246.800 C 106.800 247.460,106.980 248.000,107.200 248.000 C 107.420 248.000,107.600 248.619,107.600 249.376 C 107.600 250.133,107.780 250.864,108.000 251.000 C 108.220 251.136,108.400 251.856,108.400 252.600 C 108.400 253.344,108.559 254.051,108.754 254.171 C 108.949 254.292,109.200 254.887,109.313 255.495 C 109.427 256.103,109.620 256.960,109.744 257.400 C 109.867 257.840,110.276 259.415,110.651 260.900 C 111.026 262.385,111.484 263.600,111.667 263.600 C 111.850 263.600,112.000 264.140,112.000 264.800 C 112.000 265.460,112.180 266.000,112.400 266.000 C 112.620 266.000,112.800 266.542,112.800 267.205 C 112.800 267.868,112.980 268.768,113.200 269.205 C 113.420 269.642,113.780 270.358,114.000 270.795 C 114.220 271.232,114.400 272.042,114.400 272.595 C 114.400 273.148,114.580 273.600,114.800 273.600 C 115.020 273.600,115.200 274.140,115.200 274.800 C 115.200 275.460,115.380 276.000,115.600 276.000 C 115.820 276.000,116.000 276.540,116.000 277.200 C 116.000 277.860,116.180 278.400,116.400 278.400 C 116.620 278.400,116.800 279.120,116.800 280.000 C 116.800 280.880,116.980 281.600,117.200 281.600 C 117.420 281.600,117.600 281.949,117.600 282.376 C 117.600 282.803,117.780 283.264,118.000 283.400 C 118.220 283.536,118.400 284.166,118.400 284.800 C 118.400 285.434,118.580 286.064,118.800 286.200 C 119.020 286.336,119.200 286.977,119.200 287.624 C 119.200 288.271,119.380 288.800,119.600 288.800 C 119.820 288.800,120.000 289.239,120.000 289.776 C 120.000 290.313,120.180 290.864,120.400 291.000 C 120.620 291.136,120.800 291.867,120.800 292.624 C 120.800 293.381,120.980 294.000,121.200 294.000 C 121.420 294.000,121.600 294.540,121.600 295.200 C 121.600 295.860,121.780 296.400,122.000 296.400 C 122.220 296.400,122.400 296.940,122.400 297.600 C 122.400 298.260,122.580 298.800,122.800 298.800 C 123.020 298.800,123.200 299.520,123.200 300.400 C 123.200 301.280,123.380 302.000,123.600 302.000 C 123.820 302.000,124.000 302.630,124.000 303.400 C 124.000 304.170,124.180 304.800,124.400 304.800 C 124.620 304.800,124.800 305.520,124.800 306.400 C 124.800 307.280,124.942 308.000,125.115 308.000 C 125.611 308.000,125.716 316.281,125.224 316.585 C 124.991 316.729,124.800 317.377,124.800 318.024 C 124.800 318.671,124.620 319.200,124.400 319.200 C 124.180 319.200,124.000 319.475,124.000 319.811 C 124.000 320.487,120.658 324.000,120.015 324.000 C 119.792 324.000,119.241 324.315,118.792 324.700 C 118.342 325.085,117.893 325.367,117.794 325.326 C 117.696 325.285,117.026 325.429,116.307 325.645 C 115.588 325.862,112.892 326.033,110.315 326.026 C 103.967 326.009,104.400 325.655,104.400 330.871 C 104.400 335.377,104.723 336.400,106.148 336.400 C 106.481 336.400,106.864 336.580,107.000 336.800 C 107.136 337.020,107.689 337.200,108.229 337.200 C 108.769 337.200,109.568 337.380,110.005 337.600 C 110.442 337.820,111.158 338.180,111.595 338.400 C 112.983 339.099,117.085 338.874,118.894 338.000 C 119.805 337.560,120.966 337.200,121.475 337.200 C 121.984 337.200,122.400 337.020,122.400 336.800 C 122.400 336.580,122.762 336.400,123.205 336.400 C 124.046 336.400,125.383 335.755,126.313 334.900 C 126.612 334.625,127.020 334.400,127.218 334.400 C 127.417 334.400,128.389 333.590,129.379 332.600 C 130.369 331.610,131.375 330.800,131.615 330.800 C 132.117 330.800,136.000 326.915,136.000 326.413 C 136.000 326.230,136.630 325.450,137.400 324.680 C 138.170 323.910,138.800 323.082,138.800 322.840 C 138.800 322.598,138.941 322.400,139.114 322.400 C 139.287 322.400,139.962 321.365,140.614 320.100 C 141.266 318.835,141.935 317.740,142.100 317.667 C 142.265 317.593,142.400 317.228,142.400 316.855 C 142.400 316.482,142.760 315.917,143.200 315.600 C 143.640 315.283,144.000 314.714,144.000 314.335 C 144.000 313.957,144.180 313.536,144.400 313.400 C 144.620 313.264,144.800 312.793,144.800 312.353 C 144.800 311.913,144.942 311.640,145.115 311.748 C 145.288 311.855,145.470 311.460,145.519 310.871 C 145.567 310.282,145.785 309.740,146.003 309.667 C 146.222 309.593,146.400 309.278,146.400 308.967 C 146.400 308.655,146.580 308.400,146.800 308.400 C 147.020 308.400,147.200 308.040,147.200 307.600 C 147.200 307.160,147.380 306.800,147.600 306.800 C 147.820 306.800,148.000 306.451,148.000 306.024 C 148.000 305.597,148.180 305.136,148.400 305.000 C 148.620 304.864,148.800 304.403,148.800 303.976 C 148.800 303.549,148.980 303.200,149.200 303.200 C 149.420 303.200,149.600 302.750,149.600 302.200 C 149.600 301.650,149.780 301.200,150.000 301.200 C 150.220 301.200,150.400 300.851,150.400 300.424 C 150.400 299.997,150.580 299.536,150.800 299.400 C 151.020 299.264,151.200 298.713,151.200 298.176 C 151.200 297.639,151.380 297.200,151.600 297.200 C 151.820 297.200,152.000 296.660,152.000 296.000 C 152.000 295.340,152.180 294.800,152.400 294.800 C 152.620 294.800,152.800 294.260,152.800 293.600 C 152.800 292.940,152.980 292.400,153.200 292.400 C 153.420 292.400,153.600 292.051,153.600 291.624 C 153.600 291.197,153.780 290.736,154.000 290.600 C 154.220 290.464,154.400 289.949,154.400 289.456 C 154.400 288.963,154.556 288.389,154.746 288.180 C 155.053 287.843,156.952 281.485,157.369 279.400 C 157.457 278.960,157.703 278.150,157.917 277.600 C 158.130 277.050,158.313 276.463,158.324 276.296 C 158.453 274.296,158.969 271.543,159.247 271.371 C 159.441 271.251,159.600 270.353,159.600 269.376 C 159.600 268.399,159.780 267.600,160.000 267.600 C 160.220 267.600,160.400 266.880,160.400 266.000 C 160.400 265.120,160.580 264.400,160.800 264.400 C 161.020 264.400,161.200 263.500,161.200 262.400 C 161.200 261.300,161.380 260.400,161.600 260.400 C 161.820 260.400,162.000 259.590,162.000 258.600 C 162.000 257.610,162.180 256.800,162.400 256.800 C 162.620 256.800,162.800 255.900,162.800 254.800 C 162.800 253.700,162.980 252.800,163.200 252.800 C 163.420 252.800,163.600 251.900,163.600 250.800 C 163.600 249.700,163.780 248.800,164.000 248.800 C 164.220 248.800,164.400 247.915,164.400 246.833 C 164.400 245.616,164.591 244.803,164.900 244.698 C 165.288 244.568,165.276 244.380,164.844 243.857 C 164.352 243.261,163.406 243.196,156.644 243.292 L 149.000 243.400 148.882 246.100 C 148.817 247.585,148.592 248.800,148.382 248.800 C 148.172 248.800,148.000 249.880,148.000 251.200 C 148.000 252.520,147.837 253.600,147.637 253.600 C 147.298 253.600,147.138 254.626,146.556 260.500 C 146.431 261.765,146.165 262.800,145.964 262.800 C 145.764 262.800,145.600 263.509,145.600 264.376 C 145.600 265.243,145.454 266.043,145.276 266.153 C 145.098 266.263,144.908 267.219,144.854 268.277 C 144.799 269.334,144.585 270.371,144.378 270.580 C 144.170 270.789,144.000 271.633,144.000 272.456 C 144.000 273.279,143.817 274.066,143.593 274.204 C 143.370 274.342,143.288 274.619,143.412 274.819 C 143.536 275.020,143.468 275.502,143.262 275.892 C 142.896 276.581,142.546 278.245,142.123 281.300 C 142.009 282.125,141.755 282.800,141.558 282.800 C 141.361 282.800,141.200 283.419,141.200 284.176 C 141.200 284.933,141.020 285.664,140.800 285.800 C 140.580 285.936,140.400 286.656,140.400 287.400 C 140.400 288.144,140.220 288.864,140.000 289.000 C 139.780 289.136,139.600 289.867,139.600 290.624 C 139.600 291.381,139.420 292.000,139.200 292.000 C 138.980 292.000,138.800 292.439,138.800 292.976 C 138.800 293.513,138.620 294.064,138.400 294.200 C 138.180 294.336,138.000 295.067,138.000 295.824 C 138.000 296.581,137.820 297.200,137.600 297.200 C 137.380 297.200,137.200 296.606,137.200 295.880 C 137.200 295.154,137.030 294.389,136.821 294.180 C 136.613 293.971,136.398 293.035,136.343 292.100 C 136.288 291.165,136.099 290.400,135.922 290.400 C 135.745 290.400,135.600 289.680,135.600 288.800 C 135.600 287.920,135.420 287.200,135.200 287.200 C 134.980 287.200,134.800 286.660,134.800 286.000 C 134.800 285.340,134.620 284.800,134.400 284.800 C 134.180 284.800,134.000 284.260,134.000 283.600 C 134.000 282.940,133.820 282.400,133.600 282.400 C 133.380 282.400,133.200 281.680,133.200 280.800 C 133.200 279.920,133.020 279.200,132.800 279.200 C 132.580 279.200,132.400 278.750,132.400 278.200 C 132.400 277.650,132.220 277.200,132.000 277.200 C 131.780 277.200,131.600 276.660,131.600 276.000 C 131.600 275.340,131.420 274.800,131.200 274.800 C 130.980 274.800,130.800 274.080,130.800 273.200 C 130.800 272.320,130.620 271.600,130.400 271.600 C 130.180 271.600,130.000 271.060,130.000 270.400 C 130.000 269.740,129.820 269.200,129.600 269.200 C 129.380 269.200,129.200 268.480,129.200 267.600 C 129.200 266.720,129.020 266.000,128.800 266.000 C 128.580 266.000,128.400 265.460,128.400 264.800 C 128.400 264.140,128.220 263.600,128.000 263.600 C 127.780 263.600,127.600 262.970,127.600 262.200 C 127.600 261.430,127.420 260.800,127.200 260.800 C 126.980 260.800,126.800 260.181,126.800 259.424 C 126.800 258.667,126.620 257.936,126.400 257.800 C 126.180 257.664,126.000 257.023,126.000 256.376 C 126.000 255.729,125.859 255.200,125.687 255.200 C 125.515 255.200,125.134 253.895,124.842 252.300 C 124.550 250.705,124.201 249.220,124.067 249.000 C 123.932 248.780,123.780 248.420,123.727 248.200 C 122.431 242.771,123.219 243.195,114.486 243.232 C 110.369 243.249,106.775 243.354,106.500 243.465 " stroke="none" fill="#5b84a2" fill-rule="evenodd"></path></g></svg>